G75*
%MOIN*%
%OFA0B0*%
%FSLAX25Y25*%
%IPPOS*%
%LPD*%
%AMOC8*
5,1,8,0,0,1.08239X$1,22.5*
%
%ADD10C,0.00500*%
%ADD11C,0.00200*%
%ADD12R,0.15000X0.07500*%
%ADD13C,0.00100*%
%ADD14C,0.00800*%
%ADD15R,0.01800X0.03000*%
%ADD16C,0.02200*%
%ADD17C,0.01200*%
%ADD18R,0.03000X0.01800*%
%ADD19C,0.01000*%
D10*
X0098094Y0036126D02*
X0109906Y0036126D01*
X0109906Y0051874D01*
X0098094Y0051874D01*
X0098094Y0036126D01*
X0099275Y0050299D02*
X0099277Y0050338D01*
X0099283Y0050377D01*
X0099293Y0050415D01*
X0099306Y0050452D01*
X0099323Y0050487D01*
X0099343Y0050521D01*
X0099367Y0050552D01*
X0099394Y0050581D01*
X0099423Y0050607D01*
X0099455Y0050630D01*
X0099489Y0050650D01*
X0099525Y0050666D01*
X0099562Y0050678D01*
X0099601Y0050687D01*
X0099640Y0050692D01*
X0099679Y0050693D01*
X0099718Y0050690D01*
X0099757Y0050683D01*
X0099794Y0050672D01*
X0099831Y0050658D01*
X0099866Y0050640D01*
X0099899Y0050619D01*
X0099930Y0050594D01*
X0099958Y0050567D01*
X0099983Y0050537D01*
X0100005Y0050504D01*
X0100024Y0050470D01*
X0100039Y0050434D01*
X0100051Y0050396D01*
X0100059Y0050358D01*
X0100063Y0050319D01*
X0100063Y0050279D01*
X0100059Y0050240D01*
X0100051Y0050202D01*
X0100039Y0050164D01*
X0100024Y0050128D01*
X0100005Y0050094D01*
X0099983Y0050061D01*
X0099958Y0050031D01*
X0099930Y0050004D01*
X0099899Y0049979D01*
X0099866Y0049958D01*
X0099831Y0049940D01*
X0099794Y0049926D01*
X0099757Y0049915D01*
X0099718Y0049908D01*
X0099679Y0049905D01*
X0099640Y0049906D01*
X0099601Y0049911D01*
X0099562Y0049920D01*
X0099525Y0049932D01*
X0099489Y0049948D01*
X0099455Y0049968D01*
X0099423Y0049991D01*
X0099394Y0050017D01*
X0099367Y0050046D01*
X0099343Y0050077D01*
X0099323Y0050111D01*
X0099306Y0050146D01*
X0099293Y0050183D01*
X0099283Y0050221D01*
X0099277Y0050260D01*
X0099275Y0050299D01*
X0188290Y0077645D02*
X0189308Y0078662D01*
X0189308Y0083750D01*
X0186274Y0082732D02*
X0185256Y0081715D01*
X0182204Y0081715D01*
X0182204Y0080697D02*
X0182204Y0083750D01*
X0185256Y0083750D01*
X0186274Y0082732D01*
X0180197Y0083750D02*
X0180197Y0079680D01*
X0177144Y0079680D01*
X0176127Y0080697D01*
X0176127Y0083750D01*
X0182204Y0080697D02*
X0183221Y0079680D01*
X0185256Y0079680D01*
X0188290Y0080697D02*
X0190325Y0080697D01*
X0192333Y0080697D02*
X0196403Y0080697D01*
X0198414Y0079680D02*
X0199432Y0079680D01*
X0201467Y0081715D01*
X0203474Y0081715D02*
X0206527Y0081715D01*
X0207544Y0082732D01*
X0206527Y0083750D01*
X0203474Y0083750D01*
X0203474Y0080697D01*
X0204492Y0079680D01*
X0206527Y0079680D01*
X0210578Y0077645D02*
X0210578Y0083750D01*
X0209561Y0083750D02*
X0211596Y0083750D01*
X0213603Y0082732D02*
X0213603Y0080697D01*
X0214620Y0079680D01*
X0216655Y0079680D01*
X0217673Y0080697D01*
X0217673Y0082732D01*
X0216655Y0083750D01*
X0214620Y0083750D01*
X0213603Y0082732D01*
X0219680Y0082732D02*
X0220697Y0081715D01*
X0222732Y0081715D01*
X0223750Y0080697D01*
X0222732Y0079680D01*
X0219680Y0079680D01*
X0211596Y0077645D02*
X0210578Y0077645D01*
X0201467Y0079680D02*
X0201467Y0083750D01*
X0219680Y0082732D02*
X0220697Y0083750D01*
X0223750Y0083750D01*
X0274000Y0088500D02*
X0304000Y0088500D01*
X0304000Y0066500D01*
X0299000Y0066500D01*
X0299000Y0071500D01*
X0279000Y0071500D01*
X0279000Y0066500D01*
X0274000Y0066500D01*
X0274000Y0088500D01*
X0279000Y0066500D02*
X0299000Y0066500D01*
D11*
X0247432Y0081698D02*
X0247432Y0083900D01*
X0248533Y0083900D01*
X0248900Y0083533D01*
X0248900Y0082799D01*
X0248533Y0082432D01*
X0247432Y0082432D01*
X0246323Y0082432D02*
X0245589Y0082432D01*
X0245222Y0082799D01*
X0245222Y0083900D01*
X0246323Y0083900D01*
X0246690Y0083533D01*
X0246323Y0083166D01*
X0245222Y0083166D01*
X0244480Y0082432D02*
X0243379Y0082432D01*
X0243012Y0082799D01*
X0243012Y0083900D01*
X0242270Y0083533D02*
X0241903Y0083900D01*
X0241536Y0083533D01*
X0241169Y0083900D01*
X0240802Y0083533D01*
X0240802Y0082432D01*
X0239694Y0082432D02*
X0238960Y0082432D01*
X0238593Y0082799D01*
X0238593Y0083900D01*
X0239694Y0083900D01*
X0240060Y0083533D01*
X0239694Y0083166D01*
X0238593Y0083166D01*
X0237851Y0082799D02*
X0237484Y0082432D01*
X0236750Y0082432D01*
X0236383Y0082799D01*
X0236383Y0083900D01*
X0235641Y0083900D02*
X0234907Y0083900D01*
X0235274Y0083900D02*
X0235274Y0081698D01*
X0235641Y0081698D01*
X0237851Y0081698D02*
X0237851Y0083900D01*
X0234167Y0083900D02*
X0233800Y0083900D01*
X0233800Y0083533D01*
X0234167Y0083533D01*
X0234167Y0083900D01*
X0233063Y0083900D02*
X0233063Y0082432D01*
X0231962Y0082432D01*
X0231595Y0082799D01*
X0231595Y0083900D01*
X0230853Y0083533D02*
X0230853Y0082799D01*
X0230486Y0082432D01*
X0229752Y0082432D01*
X0229385Y0082799D01*
X0229385Y0083166D01*
X0230853Y0083166D01*
X0230853Y0083533D02*
X0230486Y0083900D01*
X0229752Y0083900D01*
X0228276Y0083533D02*
X0227909Y0083900D01*
X0228276Y0083533D02*
X0228276Y0082065D01*
X0228643Y0082432D02*
X0227909Y0082432D01*
X0227170Y0083900D02*
X0225702Y0081698D01*
X0242270Y0082432D02*
X0242270Y0083533D01*
X0244480Y0083900D02*
X0244480Y0082432D01*
X0076400Y0026400D02*
X0076400Y0024932D01*
X0076400Y0025666D02*
X0075666Y0024932D01*
X0075299Y0024932D01*
X0074558Y0025299D02*
X0074191Y0024932D01*
X0073457Y0024932D01*
X0073091Y0025299D01*
X0073091Y0025666D01*
X0074558Y0025666D01*
X0074558Y0026033D02*
X0074558Y0025299D01*
X0074558Y0026033D02*
X0074191Y0026400D01*
X0073457Y0026400D01*
X0072349Y0024932D02*
X0071615Y0026400D01*
X0070881Y0024932D01*
X0067929Y0025299D02*
X0066461Y0025299D01*
X0063509Y0024198D02*
X0063509Y0026400D01*
X0060563Y0026400D02*
X0059462Y0026400D01*
X0059095Y0026033D01*
X0059462Y0025666D01*
X0060196Y0025666D01*
X0060563Y0025299D01*
X0060196Y0024932D01*
X0059095Y0024932D01*
X0058353Y0024932D02*
X0057252Y0024932D01*
X0056885Y0025299D01*
X0056885Y0026400D01*
X0056143Y0026400D02*
X0056143Y0026033D01*
X0055776Y0026033D01*
X0055776Y0026400D01*
X0056143Y0026400D01*
X0056143Y0025299D02*
X0056143Y0024932D01*
X0055776Y0024932D01*
X0055776Y0025299D01*
X0056143Y0025299D01*
X0058353Y0024932D02*
X0058353Y0026400D01*
D12*
X0046500Y0025250D03*
D13*
X0087103Y0023451D02*
X0087103Y0021950D01*
X0087103Y0022450D02*
X0087854Y0022450D01*
X0088104Y0022701D01*
X0088104Y0023201D01*
X0087854Y0023451D01*
X0087103Y0023451D01*
X0087604Y0022450D02*
X0088104Y0021950D01*
X0088577Y0022200D02*
X0088827Y0021950D01*
X0089327Y0021950D01*
X0089578Y0022200D01*
X0089578Y0022450D01*
X0089327Y0022701D01*
X0089077Y0022701D01*
X0089327Y0022701D02*
X0089578Y0022951D01*
X0089578Y0023201D01*
X0089327Y0023451D01*
X0088827Y0023451D01*
X0088577Y0023201D01*
X0118050Y0029550D02*
X0118050Y0031051D01*
X0118801Y0031051D01*
X0119051Y0030801D01*
X0119051Y0030301D01*
X0118801Y0030050D01*
X0118050Y0030050D01*
X0118550Y0030050D02*
X0119051Y0029550D01*
X0119523Y0030301D02*
X0120524Y0030301D01*
X0120274Y0031051D02*
X0119523Y0030301D01*
X0120274Y0031051D02*
X0120274Y0029550D01*
X0134253Y0024233D02*
X0134253Y0023232D01*
X0134503Y0022981D01*
X0135004Y0022981D01*
X0135254Y0023232D01*
X0135726Y0023732D02*
X0136727Y0023732D01*
X0136477Y0022981D02*
X0136477Y0024483D01*
X0135726Y0023732D01*
X0135254Y0024233D02*
X0135004Y0024483D01*
X0134503Y0024483D01*
X0134253Y0024233D01*
X0168049Y0026854D02*
X0168299Y0026603D01*
X0169300Y0026603D01*
X0169550Y0026854D01*
X0169550Y0027354D01*
X0169300Y0027604D01*
X0169300Y0028077D02*
X0169550Y0028327D01*
X0169550Y0028827D01*
X0169300Y0029078D01*
X0168799Y0029078D01*
X0168549Y0028827D01*
X0168549Y0028577D01*
X0168799Y0028077D01*
X0168049Y0028077D01*
X0168049Y0029078D01*
X0168299Y0027604D02*
X0168049Y0027354D01*
X0168049Y0026854D01*
X0133024Y0042300D02*
X0133024Y0042550D01*
X0132774Y0042801D01*
X0132023Y0042801D01*
X0132023Y0042300D01*
X0132273Y0042050D01*
X0132774Y0042050D01*
X0133024Y0042300D01*
X0132524Y0043301D02*
X0132023Y0042801D01*
X0131551Y0042801D02*
X0131301Y0042550D01*
X0130550Y0042550D01*
X0130550Y0042050D02*
X0130550Y0043551D01*
X0131301Y0043551D01*
X0131551Y0043301D01*
X0131551Y0042801D01*
X0131050Y0042550D02*
X0131551Y0042050D01*
X0132524Y0043301D02*
X0133024Y0043551D01*
X0120524Y0043551D02*
X0119523Y0043551D01*
X0119523Y0042801D01*
X0120024Y0043051D01*
X0120274Y0043051D01*
X0120524Y0042801D01*
X0120524Y0042300D01*
X0120274Y0042050D01*
X0119773Y0042050D01*
X0119523Y0042300D01*
X0119051Y0042050D02*
X0118550Y0042550D01*
X0118801Y0042550D02*
X0118050Y0042550D01*
X0118050Y0042050D02*
X0118050Y0043551D01*
X0118801Y0043551D01*
X0119051Y0043301D01*
X0119051Y0042801D01*
X0118801Y0042550D01*
X0089578Y0046950D02*
X0088577Y0046950D01*
X0088104Y0046950D02*
X0087604Y0047450D01*
X0087854Y0047450D02*
X0087103Y0047450D01*
X0087103Y0046950D02*
X0087103Y0048451D01*
X0087854Y0048451D01*
X0088104Y0048201D01*
X0088104Y0047701D01*
X0087854Y0047450D01*
X0088577Y0047951D02*
X0089077Y0048451D01*
X0089077Y0046950D01*
X0085524Y0043301D02*
X0085274Y0043551D01*
X0084773Y0043551D01*
X0084523Y0043301D01*
X0084051Y0043301D02*
X0084051Y0042801D01*
X0083801Y0042550D01*
X0083050Y0042550D01*
X0083050Y0042050D02*
X0083050Y0043551D01*
X0083801Y0043551D01*
X0084051Y0043301D01*
X0083550Y0042550D02*
X0084051Y0042050D01*
X0084523Y0042050D02*
X0085524Y0043051D01*
X0085524Y0043301D01*
X0085524Y0042050D02*
X0084523Y0042050D01*
X0077078Y0035701D02*
X0076827Y0035951D01*
X0076327Y0035951D01*
X0076077Y0035701D01*
X0075604Y0035701D02*
X0075354Y0035951D01*
X0074854Y0035951D01*
X0074603Y0035701D01*
X0074603Y0034700D01*
X0074854Y0034450D01*
X0075354Y0034450D01*
X0075604Y0034700D01*
X0076077Y0034450D02*
X0077078Y0035451D01*
X0077078Y0035701D01*
X0077078Y0034450D02*
X0076077Y0034450D01*
X0054950Y0035050D02*
X0054950Y0035801D01*
X0054700Y0036051D01*
X0053699Y0036051D01*
X0053449Y0035801D01*
X0053449Y0035050D01*
X0054950Y0035050D01*
X0054950Y0036523D02*
X0054950Y0037524D01*
X0054950Y0037024D02*
X0053449Y0037024D01*
X0053949Y0036523D01*
X0071151Y0053519D02*
X0071651Y0053519D01*
X0071901Y0053769D01*
X0072374Y0053519D02*
X0073374Y0053519D01*
X0072874Y0053519D02*
X0072874Y0055020D01*
X0072374Y0054519D01*
X0071901Y0054770D02*
X0071651Y0055020D01*
X0071151Y0055020D01*
X0070900Y0054770D01*
X0070900Y0053769D01*
X0071151Y0053519D01*
X0061524Y0055048D02*
X0061524Y0055549D01*
X0061274Y0055799D01*
X0061024Y0055799D01*
X0060523Y0055549D01*
X0060523Y0056299D01*
X0061524Y0056299D01*
X0060051Y0056299D02*
X0059550Y0056299D01*
X0059801Y0056299D02*
X0059801Y0055048D01*
X0059550Y0054798D01*
X0059300Y0054798D01*
X0059050Y0055048D01*
X0060523Y0055048D02*
X0060773Y0054798D01*
X0061274Y0054798D01*
X0061524Y0055048D01*
X0082949Y0058300D02*
X0082949Y0059051D01*
X0083199Y0059301D01*
X0084200Y0059301D01*
X0084450Y0059051D01*
X0084450Y0058300D01*
X0082949Y0058300D01*
X0083449Y0059773D02*
X0082949Y0060274D01*
X0084450Y0060274D01*
X0084450Y0060774D02*
X0084450Y0059773D01*
X0084200Y0061247D02*
X0083199Y0061247D01*
X0082949Y0061497D01*
X0082949Y0061997D01*
X0083199Y0062247D01*
X0084200Y0061247D01*
X0084450Y0061497D01*
X0084450Y0061997D01*
X0084200Y0062247D01*
X0083199Y0062247D01*
X0096550Y0055551D02*
X0096550Y0054300D01*
X0096800Y0054050D01*
X0097301Y0054050D01*
X0097551Y0054300D01*
X0097551Y0055551D01*
X0098023Y0055051D02*
X0098524Y0055551D01*
X0098524Y0054050D01*
X0099024Y0054050D02*
X0098023Y0054050D01*
X0107049Y0059854D02*
X0107299Y0059603D01*
X0108300Y0059603D01*
X0108550Y0059854D01*
X0108550Y0060354D01*
X0108300Y0060604D01*
X0108300Y0061077D02*
X0108550Y0061327D01*
X0108550Y0061827D01*
X0108300Y0062078D01*
X0108050Y0062078D01*
X0107799Y0061827D01*
X0107799Y0061577D01*
X0107799Y0061827D02*
X0107549Y0062078D01*
X0107299Y0062078D01*
X0107049Y0061827D01*
X0107049Y0061327D01*
X0107299Y0061077D01*
X0107299Y0060604D02*
X0107049Y0060354D01*
X0107049Y0059854D01*
X0082450Y0070550D02*
X0082450Y0071301D01*
X0082200Y0071551D01*
X0081199Y0071551D01*
X0080949Y0071301D01*
X0080949Y0070550D01*
X0082450Y0070550D01*
X0082450Y0072023D02*
X0081449Y0073024D01*
X0081199Y0073024D01*
X0080949Y0072774D01*
X0080949Y0072273D01*
X0081199Y0072023D01*
X0082450Y0072023D02*
X0082450Y0073024D01*
X0092550Y0083050D02*
X0093301Y0083050D01*
X0093551Y0083300D01*
X0093551Y0084301D01*
X0093301Y0084551D01*
X0092550Y0084551D01*
X0092550Y0083050D01*
X0094023Y0083300D02*
X0094273Y0083050D01*
X0094774Y0083050D01*
X0095024Y0083300D01*
X0095024Y0083550D01*
X0094774Y0083801D01*
X0094524Y0083801D01*
X0094774Y0083801D02*
X0095024Y0084051D01*
X0095024Y0084301D01*
X0094774Y0084551D01*
X0094273Y0084551D01*
X0094023Y0084301D01*
X0153749Y0083627D02*
X0153749Y0083127D01*
X0153999Y0082877D01*
X0153749Y0082404D02*
X0153749Y0081904D01*
X0153749Y0082154D02*
X0155000Y0082154D01*
X0155250Y0081904D01*
X0155250Y0081654D01*
X0155000Y0081403D01*
X0155000Y0082877D02*
X0155250Y0083127D01*
X0155250Y0083627D01*
X0155000Y0083878D01*
X0154750Y0083878D01*
X0154499Y0083627D01*
X0154499Y0083377D01*
X0154499Y0083627D02*
X0154249Y0083878D01*
X0153999Y0083878D01*
X0153749Y0083627D01*
X0174549Y0079578D02*
X0174549Y0078577D01*
X0174799Y0078104D02*
X0174549Y0077854D01*
X0174549Y0077354D01*
X0174799Y0077103D01*
X0175800Y0077103D01*
X0176050Y0077354D01*
X0176050Y0077854D01*
X0175800Y0078104D01*
X0175800Y0078577D02*
X0176050Y0078577D01*
X0175800Y0078577D02*
X0174799Y0079578D01*
X0174549Y0079578D01*
X0192699Y0077274D02*
X0192699Y0076773D01*
X0192949Y0076523D01*
X0193199Y0076523D01*
X0193449Y0076773D01*
X0193449Y0077524D01*
X0192949Y0077524D02*
X0192699Y0077274D01*
X0192949Y0077524D02*
X0193950Y0077524D01*
X0194200Y0077274D01*
X0194200Y0076773D01*
X0193950Y0076523D01*
X0193950Y0076051D02*
X0192949Y0076051D01*
X0192699Y0075801D01*
X0192699Y0075050D01*
X0194200Y0075050D01*
X0194200Y0075801D01*
X0193950Y0076051D01*
X0219050Y0072801D02*
X0219050Y0071800D01*
X0219300Y0071550D01*
X0219801Y0071550D01*
X0220051Y0071800D01*
X0220051Y0072801D01*
X0219801Y0073051D01*
X0219300Y0073051D01*
X0219050Y0072801D01*
X0219550Y0072050D02*
X0220051Y0071550D01*
X0220523Y0071550D02*
X0221524Y0071550D01*
X0221024Y0071550D02*
X0221024Y0073051D01*
X0220523Y0072551D01*
X0211497Y0068551D02*
X0211497Y0067050D01*
X0210997Y0067050D02*
X0211997Y0067050D01*
X0210997Y0068051D02*
X0211497Y0068551D01*
X0210024Y0068551D02*
X0210024Y0067050D01*
X0210524Y0067050D02*
X0209523Y0067050D01*
X0209051Y0067050D02*
X0208550Y0067550D01*
X0208801Y0067550D02*
X0208050Y0067550D01*
X0208050Y0067050D02*
X0208050Y0068551D01*
X0208801Y0068551D01*
X0209051Y0068301D01*
X0209051Y0067801D01*
X0208801Y0067550D01*
X0209523Y0068051D02*
X0210024Y0068551D01*
X0204827Y0061701D02*
X0204077Y0060951D01*
X0205078Y0060951D01*
X0204827Y0061701D02*
X0204827Y0060200D01*
X0203604Y0060450D02*
X0203354Y0060200D01*
X0202603Y0060200D01*
X0202603Y0061701D01*
X0203354Y0061701D01*
X0203604Y0061451D01*
X0203604Y0060450D01*
X0190024Y0060951D02*
X0189023Y0059950D01*
X0189023Y0059700D01*
X0188551Y0059950D02*
X0188551Y0060951D01*
X0188301Y0061201D01*
X0187550Y0061201D01*
X0187550Y0059700D01*
X0188301Y0059700D01*
X0188551Y0059950D01*
X0189023Y0061201D02*
X0190024Y0061201D01*
X0190024Y0060951D01*
X0192199Y0055524D02*
X0192449Y0055024D01*
X0192949Y0054523D01*
X0192949Y0055274D01*
X0193200Y0055524D01*
X0193450Y0055524D01*
X0193700Y0055274D01*
X0193700Y0054773D01*
X0193450Y0054523D01*
X0192949Y0054523D01*
X0192449Y0054051D02*
X0192199Y0053801D01*
X0192199Y0053050D01*
X0193700Y0053050D01*
X0193700Y0053801D01*
X0193450Y0054051D01*
X0192449Y0054051D01*
X0180078Y0053051D02*
X0180078Y0052801D01*
X0179827Y0052551D01*
X0179327Y0052551D01*
X0179077Y0052801D01*
X0179077Y0053051D01*
X0179327Y0053301D01*
X0179827Y0053301D01*
X0180078Y0053051D01*
X0179827Y0052551D02*
X0180078Y0052300D01*
X0180078Y0052050D01*
X0179827Y0051800D01*
X0179327Y0051800D01*
X0179077Y0052050D01*
X0179077Y0052300D01*
X0179327Y0052551D01*
X0178604Y0053051D02*
X0178354Y0053301D01*
X0177603Y0053301D01*
X0177603Y0051800D01*
X0178354Y0051800D01*
X0178604Y0052050D01*
X0178604Y0053051D01*
X0168450Y0058300D02*
X0168200Y0058050D01*
X0167199Y0058050D01*
X0166949Y0058300D01*
X0166949Y0058801D01*
X0167199Y0059051D01*
X0167699Y0059523D02*
X0167199Y0060024D01*
X0166949Y0060524D01*
X0167699Y0060274D02*
X0167699Y0059523D01*
X0168200Y0059523D01*
X0168450Y0059773D01*
X0168450Y0060274D01*
X0168200Y0060524D01*
X0167950Y0060524D01*
X0167699Y0060274D01*
X0168200Y0059051D02*
X0168450Y0058801D01*
X0168450Y0058300D01*
X0146450Y0053524D02*
X0146450Y0052523D01*
X0146450Y0052051D02*
X0146450Y0051050D01*
X0144949Y0051050D01*
X0145449Y0052523D02*
X0144949Y0053024D01*
X0146450Y0053024D01*
X0171103Y0046451D02*
X0171854Y0046451D01*
X0172104Y0046201D01*
X0172104Y0045701D01*
X0171854Y0045450D01*
X0171103Y0045450D01*
X0171103Y0044950D02*
X0171103Y0046451D01*
X0171604Y0045450D02*
X0172104Y0044950D01*
X0172577Y0045200D02*
X0172577Y0045450D01*
X0172827Y0045701D01*
X0173327Y0045701D01*
X0173578Y0045450D01*
X0173578Y0045200D01*
X0173327Y0044950D01*
X0172827Y0044950D01*
X0172577Y0045200D01*
X0172827Y0045701D02*
X0172577Y0045951D01*
X0172577Y0046201D01*
X0172827Y0046451D01*
X0173327Y0046451D01*
X0173578Y0046201D01*
X0173578Y0045951D01*
X0173327Y0045701D01*
X0211103Y0045450D02*
X0211854Y0045450D01*
X0212104Y0045701D01*
X0212104Y0046201D01*
X0211854Y0046451D01*
X0211103Y0046451D01*
X0211103Y0044950D01*
X0211604Y0045450D02*
X0212104Y0044950D01*
X0212577Y0044950D02*
X0212577Y0045200D01*
X0213578Y0046201D01*
X0213578Y0046451D01*
X0212577Y0046451D01*
X0212854Y0052200D02*
X0213104Y0052450D01*
X0213104Y0053451D01*
X0212854Y0053701D01*
X0212103Y0053701D01*
X0212103Y0052200D01*
X0212854Y0052200D01*
X0213577Y0052450D02*
X0213827Y0052200D01*
X0214327Y0052200D01*
X0214578Y0052450D01*
X0214578Y0052951D01*
X0214327Y0053201D01*
X0214077Y0053201D01*
X0213577Y0052951D01*
X0213577Y0053701D01*
X0214578Y0053701D01*
X0243130Y0053451D02*
X0243130Y0051950D01*
X0243130Y0052450D02*
X0243881Y0052450D01*
X0244131Y0052701D01*
X0244131Y0053201D01*
X0243881Y0053451D01*
X0243130Y0053451D01*
X0243631Y0052450D02*
X0244131Y0051950D01*
X0244603Y0051950D02*
X0245604Y0051950D01*
X0245104Y0051950D02*
X0245104Y0053451D01*
X0244603Y0052951D01*
X0246077Y0053201D02*
X0246327Y0053451D01*
X0246827Y0053451D01*
X0247078Y0053201D01*
X0247078Y0052951D01*
X0246827Y0052701D01*
X0247078Y0052450D01*
X0247078Y0052200D01*
X0246827Y0051950D01*
X0246327Y0051950D01*
X0246077Y0052200D01*
X0246577Y0052701D02*
X0246827Y0052701D01*
X0256800Y0064050D02*
X0257301Y0064050D01*
X0257551Y0064300D01*
X0257551Y0065551D01*
X0258023Y0065301D02*
X0258273Y0065551D01*
X0258774Y0065551D01*
X0259024Y0065301D01*
X0259024Y0065051D01*
X0258023Y0064050D01*
X0259024Y0064050D01*
X0256800Y0064050D02*
X0256550Y0064300D01*
X0256550Y0065551D01*
X0266103Y0065200D02*
X0266354Y0064950D01*
X0266854Y0064950D01*
X0267104Y0065200D01*
X0267104Y0066201D01*
X0266854Y0066451D01*
X0266354Y0066451D01*
X0266103Y0066201D01*
X0266103Y0065200D01*
X0266604Y0065450D02*
X0267104Y0064950D01*
X0267577Y0065200D02*
X0267827Y0064950D01*
X0268327Y0064950D01*
X0268578Y0065200D01*
X0268578Y0065450D01*
X0268327Y0065701D01*
X0268077Y0065701D01*
X0268327Y0065701D02*
X0268578Y0065951D01*
X0268578Y0066201D01*
X0268327Y0066451D01*
X0267827Y0066451D01*
X0267577Y0066201D01*
X0246997Y0067300D02*
X0246747Y0067050D01*
X0246247Y0067050D01*
X0245997Y0067300D01*
X0246997Y0068301D01*
X0246997Y0067300D01*
X0245997Y0067300D02*
X0245997Y0068301D01*
X0246247Y0068551D01*
X0246747Y0068551D01*
X0246997Y0068301D01*
X0245524Y0067050D02*
X0244523Y0067050D01*
X0244051Y0067050D02*
X0243550Y0067550D01*
X0243801Y0067550D02*
X0243050Y0067550D01*
X0243050Y0067050D02*
X0243050Y0068551D01*
X0243801Y0068551D01*
X0244051Y0068301D01*
X0244051Y0067801D01*
X0243801Y0067550D01*
X0244523Y0068051D02*
X0245024Y0068551D01*
X0245024Y0067050D01*
X0244603Y0074450D02*
X0244603Y0075951D01*
X0245354Y0075951D01*
X0245604Y0075701D01*
X0245604Y0075201D01*
X0245354Y0074950D01*
X0244603Y0074950D01*
X0245104Y0074950D02*
X0245604Y0074450D01*
X0246077Y0074700D02*
X0246327Y0074450D01*
X0246827Y0074450D01*
X0247078Y0074700D01*
X0247078Y0075701D01*
X0246827Y0075951D01*
X0246327Y0075951D01*
X0246077Y0075701D01*
X0246077Y0075451D01*
X0246327Y0075201D01*
X0247078Y0075201D01*
X0187078Y0068201D02*
X0186827Y0068451D01*
X0186327Y0068451D01*
X0186077Y0068201D01*
X0187078Y0068201D02*
X0187078Y0067951D01*
X0186077Y0066950D01*
X0187078Y0066950D01*
X0185604Y0066950D02*
X0184603Y0066950D01*
X0184131Y0066950D02*
X0183631Y0067450D01*
X0183881Y0067450D02*
X0183130Y0067450D01*
X0183130Y0066950D02*
X0183130Y0068451D01*
X0183881Y0068451D01*
X0184131Y0068201D01*
X0184131Y0067701D01*
X0183881Y0067450D01*
X0184603Y0067951D02*
X0185104Y0068451D01*
X0185104Y0066950D01*
X0291949Y0054497D02*
X0291949Y0053497D01*
X0292699Y0053497D01*
X0292449Y0053997D01*
X0292449Y0054247D01*
X0292699Y0054497D01*
X0293200Y0054497D01*
X0293450Y0054247D01*
X0293450Y0053747D01*
X0293200Y0053497D01*
X0293450Y0053024D02*
X0293450Y0052023D01*
X0293450Y0051551D02*
X0292950Y0051050D01*
X0292950Y0051301D02*
X0292950Y0050550D01*
X0293450Y0050550D02*
X0291949Y0050550D01*
X0291949Y0051301D01*
X0292199Y0051551D01*
X0292699Y0051551D01*
X0292950Y0051301D01*
X0292449Y0052023D02*
X0291949Y0052524D01*
X0293450Y0052524D01*
X0309049Y0040827D02*
X0309049Y0040327D01*
X0309299Y0040077D01*
X0309299Y0039604D02*
X0310300Y0039604D01*
X0310550Y0039354D01*
X0310550Y0038854D01*
X0310300Y0038603D01*
X0309299Y0038603D01*
X0309049Y0038854D01*
X0309049Y0039354D01*
X0309299Y0039604D01*
X0310050Y0039104D02*
X0310550Y0039604D01*
X0310550Y0040077D02*
X0309549Y0041078D01*
X0309299Y0041078D01*
X0309049Y0040827D01*
X0310550Y0041078D02*
X0310550Y0040077D01*
X0330475Y0036800D02*
X0330725Y0036550D01*
X0330976Y0036550D01*
X0331226Y0036800D01*
X0331226Y0038051D01*
X0330976Y0038051D02*
X0331476Y0038051D01*
X0331948Y0038051D02*
X0332699Y0038051D01*
X0332949Y0037801D01*
X0332949Y0037301D01*
X0332699Y0037050D01*
X0331948Y0037050D01*
X0331948Y0036550D02*
X0331948Y0038051D01*
X0333422Y0037551D02*
X0333922Y0038051D01*
X0333922Y0036550D01*
X0333422Y0036550D02*
X0334423Y0036550D01*
X0321827Y0028451D02*
X0321077Y0027701D01*
X0322078Y0027701D01*
X0321827Y0028451D02*
X0321827Y0026950D01*
X0320604Y0026950D02*
X0319603Y0026950D01*
X0319131Y0026950D02*
X0318631Y0027450D01*
X0318881Y0027450D02*
X0318130Y0027450D01*
X0318130Y0026950D02*
X0318130Y0028451D01*
X0318881Y0028451D01*
X0319131Y0028201D01*
X0319131Y0027701D01*
X0318881Y0027450D01*
X0319603Y0027951D02*
X0320104Y0028451D01*
X0320104Y0026950D01*
X0361354Y0082450D02*
X0361604Y0082450D01*
X0361854Y0082700D01*
X0361854Y0083951D01*
X0361604Y0083951D02*
X0362104Y0083951D01*
X0362577Y0083201D02*
X0363327Y0083201D01*
X0363578Y0082950D01*
X0363578Y0082700D01*
X0363327Y0082450D01*
X0362827Y0082450D01*
X0362577Y0082700D01*
X0362577Y0083201D01*
X0363077Y0083701D01*
X0363578Y0083951D01*
X0361354Y0082450D02*
X0361103Y0082700D01*
X0016078Y0082450D02*
X0015077Y0082450D01*
X0015577Y0082450D02*
X0015577Y0083951D01*
X0015077Y0083451D01*
X0014604Y0083951D02*
X0014104Y0083951D01*
X0014354Y0083951D02*
X0014354Y0082700D01*
X0014104Y0082450D01*
X0013854Y0082450D01*
X0013603Y0082700D01*
D14*
X0018783Y0087189D02*
X0054217Y0087189D01*
X0054217Y0045063D01*
X0045949Y0045063D01*
X0057563Y0047937D02*
X0065437Y0047937D01*
X0065437Y0053055D02*
X0067209Y0053055D01*
X0067209Y0034945D01*
X0065437Y0034945D01*
X0057563Y0034945D02*
X0055791Y0034945D01*
X0055791Y0053055D01*
X0057563Y0053055D01*
X0057386Y0057701D02*
X0059945Y0057701D01*
X0059945Y0064000D01*
X0078055Y0064000D02*
X0078055Y0057701D01*
X0080614Y0057701D01*
X0080614Y0087622D01*
X0057386Y0087622D01*
X0057386Y0057701D01*
X0088744Y0058350D02*
X0088744Y0055988D01*
X0091894Y0055988D01*
X0088744Y0064650D02*
X0088744Y0067012D01*
X0091894Y0067012D01*
X0089059Y0070457D02*
X0089059Y0072031D01*
X0083941Y0072031D01*
X0083941Y0077543D01*
X0089059Y0077543D02*
X0089059Y0072031D01*
X0092445Y0072563D02*
X0092445Y0070791D01*
X0110555Y0070791D01*
X0110555Y0072563D01*
X0105437Y0072563D02*
X0105437Y0080437D01*
X0110555Y0080437D02*
X0110555Y0082209D01*
X0092445Y0082209D01*
X0092445Y0080437D01*
X0083941Y0072031D02*
X0083941Y0070457D01*
X0114000Y0066500D02*
X0114005Y0066929D01*
X0114021Y0067359D01*
X0114047Y0067787D01*
X0114084Y0068215D01*
X0114132Y0068642D01*
X0114189Y0069068D01*
X0114258Y0069492D01*
X0114336Y0069914D01*
X0114425Y0070334D01*
X0114524Y0070752D01*
X0114634Y0071167D01*
X0114754Y0071580D01*
X0114883Y0071989D01*
X0115023Y0072396D01*
X0115173Y0072798D01*
X0115332Y0073197D01*
X0115501Y0073592D01*
X0115680Y0073982D01*
X0115869Y0074368D01*
X0116066Y0074749D01*
X0116273Y0075126D01*
X0116490Y0075497D01*
X0116715Y0075862D01*
X0116949Y0076222D01*
X0117192Y0076577D01*
X0117444Y0076925D01*
X0117704Y0077267D01*
X0117972Y0077602D01*
X0118249Y0077931D01*
X0118533Y0078252D01*
X0118826Y0078567D01*
X0119126Y0078874D01*
X0119433Y0079174D01*
X0119748Y0079467D01*
X0120069Y0079751D01*
X0120398Y0080028D01*
X0120733Y0080296D01*
X0121075Y0080556D01*
X0121423Y0080808D01*
X0121778Y0081051D01*
X0122138Y0081285D01*
X0122503Y0081510D01*
X0122874Y0081727D01*
X0123251Y0081934D01*
X0123632Y0082131D01*
X0124018Y0082320D01*
X0124408Y0082499D01*
X0124803Y0082668D01*
X0125202Y0082827D01*
X0125604Y0082977D01*
X0126011Y0083117D01*
X0126420Y0083246D01*
X0126833Y0083366D01*
X0127248Y0083476D01*
X0127666Y0083575D01*
X0128086Y0083664D01*
X0128508Y0083742D01*
X0128932Y0083811D01*
X0129358Y0083868D01*
X0129785Y0083916D01*
X0130213Y0083953D01*
X0130641Y0083979D01*
X0131071Y0083995D01*
X0131500Y0084000D01*
X0131929Y0083995D01*
X0132359Y0083979D01*
X0132787Y0083953D01*
X0133215Y0083916D01*
X0133642Y0083868D01*
X0134068Y0083811D01*
X0134492Y0083742D01*
X0134914Y0083664D01*
X0135334Y0083575D01*
X0135752Y0083476D01*
X0136167Y0083366D01*
X0136580Y0083246D01*
X0136989Y0083117D01*
X0137396Y0082977D01*
X0137798Y0082827D01*
X0138197Y0082668D01*
X0138592Y0082499D01*
X0138982Y0082320D01*
X0139368Y0082131D01*
X0139749Y0081934D01*
X0140126Y0081727D01*
X0140497Y0081510D01*
X0140862Y0081285D01*
X0141222Y0081051D01*
X0141577Y0080808D01*
X0141925Y0080556D01*
X0142267Y0080296D01*
X0142602Y0080028D01*
X0142931Y0079751D01*
X0143252Y0079467D01*
X0143567Y0079174D01*
X0143874Y0078874D01*
X0144174Y0078567D01*
X0144467Y0078252D01*
X0144751Y0077931D01*
X0145028Y0077602D01*
X0145296Y0077267D01*
X0145556Y0076925D01*
X0145808Y0076577D01*
X0146051Y0076222D01*
X0146285Y0075862D01*
X0146510Y0075497D01*
X0146727Y0075126D01*
X0146934Y0074749D01*
X0147131Y0074368D01*
X0147320Y0073982D01*
X0147499Y0073592D01*
X0147668Y0073197D01*
X0147827Y0072798D01*
X0147977Y0072396D01*
X0148117Y0071989D01*
X0148246Y0071580D01*
X0148366Y0071167D01*
X0148476Y0070752D01*
X0148575Y0070334D01*
X0148664Y0069914D01*
X0148742Y0069492D01*
X0148811Y0069068D01*
X0148868Y0068642D01*
X0148916Y0068215D01*
X0148953Y0067787D01*
X0148979Y0067359D01*
X0148995Y0066929D01*
X0149000Y0066500D01*
X0148995Y0066071D01*
X0148979Y0065641D01*
X0148953Y0065213D01*
X0148916Y0064785D01*
X0148868Y0064358D01*
X0148811Y0063932D01*
X0148742Y0063508D01*
X0148664Y0063086D01*
X0148575Y0062666D01*
X0148476Y0062248D01*
X0148366Y0061833D01*
X0148246Y0061420D01*
X0148117Y0061011D01*
X0147977Y0060604D01*
X0147827Y0060202D01*
X0147668Y0059803D01*
X0147499Y0059408D01*
X0147320Y0059018D01*
X0147131Y0058632D01*
X0146934Y0058251D01*
X0146727Y0057874D01*
X0146510Y0057503D01*
X0146285Y0057138D01*
X0146051Y0056778D01*
X0145808Y0056423D01*
X0145556Y0056075D01*
X0145296Y0055733D01*
X0145028Y0055398D01*
X0144751Y0055069D01*
X0144467Y0054748D01*
X0144174Y0054433D01*
X0143874Y0054126D01*
X0143567Y0053826D01*
X0143252Y0053533D01*
X0142931Y0053249D01*
X0142602Y0052972D01*
X0142267Y0052704D01*
X0141925Y0052444D01*
X0141577Y0052192D01*
X0141222Y0051949D01*
X0140862Y0051715D01*
X0140497Y0051490D01*
X0140126Y0051273D01*
X0139749Y0051066D01*
X0139368Y0050869D01*
X0138982Y0050680D01*
X0138592Y0050501D01*
X0138197Y0050332D01*
X0137798Y0050173D01*
X0137396Y0050023D01*
X0136989Y0049883D01*
X0136580Y0049754D01*
X0136167Y0049634D01*
X0135752Y0049524D01*
X0135334Y0049425D01*
X0134914Y0049336D01*
X0134492Y0049258D01*
X0134068Y0049189D01*
X0133642Y0049132D01*
X0133215Y0049084D01*
X0132787Y0049047D01*
X0132359Y0049021D01*
X0131929Y0049005D01*
X0131500Y0049000D01*
X0131071Y0049005D01*
X0130641Y0049021D01*
X0130213Y0049047D01*
X0129785Y0049084D01*
X0129358Y0049132D01*
X0128932Y0049189D01*
X0128508Y0049258D01*
X0128086Y0049336D01*
X0127666Y0049425D01*
X0127248Y0049524D01*
X0126833Y0049634D01*
X0126420Y0049754D01*
X0126011Y0049883D01*
X0125604Y0050023D01*
X0125202Y0050173D01*
X0124803Y0050332D01*
X0124408Y0050501D01*
X0124018Y0050680D01*
X0123632Y0050869D01*
X0123251Y0051066D01*
X0122874Y0051273D01*
X0122503Y0051490D01*
X0122138Y0051715D01*
X0121778Y0051949D01*
X0121423Y0052192D01*
X0121075Y0052444D01*
X0120733Y0052704D01*
X0120398Y0052972D01*
X0120069Y0053249D01*
X0119748Y0053533D01*
X0119433Y0053826D01*
X0119126Y0054126D01*
X0118826Y0054433D01*
X0118533Y0054748D01*
X0118249Y0055069D01*
X0117972Y0055398D01*
X0117704Y0055733D01*
X0117444Y0056075D01*
X0117192Y0056423D01*
X0116949Y0056778D01*
X0116715Y0057138D01*
X0116490Y0057503D01*
X0116273Y0057874D01*
X0116066Y0058251D01*
X0115869Y0058632D01*
X0115680Y0059018D01*
X0115501Y0059408D01*
X0115332Y0059803D01*
X0115173Y0060202D01*
X0115023Y0060604D01*
X0114883Y0061011D01*
X0114754Y0061420D01*
X0114634Y0061833D01*
X0114524Y0062248D01*
X0114425Y0062666D01*
X0114336Y0063086D01*
X0114258Y0063508D01*
X0114189Y0063932D01*
X0114132Y0064358D01*
X0114084Y0064785D01*
X0114047Y0065213D01*
X0114021Y0065641D01*
X0114005Y0066071D01*
X0114000Y0066500D01*
X0156500Y0066500D02*
X0159000Y0064000D01*
X0156500Y0061500D01*
X0156500Y0056500D01*
X0159000Y0054000D01*
X0164000Y0054000D01*
X0166500Y0056500D01*
X0166500Y0061500D01*
X0164000Y0064000D01*
X0166500Y0066500D01*
X0166500Y0071500D01*
X0164000Y0074000D01*
X0166500Y0076500D01*
X0166500Y0081500D01*
X0164000Y0084000D01*
X0159000Y0084000D01*
X0156500Y0081500D01*
X0156500Y0076500D01*
X0159000Y0074000D01*
X0156500Y0071500D01*
X0156500Y0066500D01*
X0183331Y0065811D02*
X0183331Y0064000D01*
X0184551Y0064920D01*
X0183331Y0064000D02*
X0183331Y0062189D01*
X0184551Y0063140D02*
X0183391Y0063900D01*
X0194689Y0059669D02*
X0196500Y0059669D01*
X0197420Y0058449D01*
X0198311Y0059669D02*
X0196500Y0059669D01*
X0196400Y0059609D02*
X0195640Y0058449D01*
X0184669Y0058311D02*
X0184669Y0056500D01*
X0183449Y0055580D01*
X0184669Y0054689D02*
X0184669Y0056500D01*
X0184609Y0056600D02*
X0183449Y0057360D01*
X0208331Y0056500D02*
X0208331Y0054689D01*
X0209551Y0055640D02*
X0208391Y0056400D01*
X0208331Y0056500D02*
X0209551Y0057420D01*
X0208331Y0058311D02*
X0208331Y0056500D01*
X0218254Y0055000D02*
X0234746Y0055000D01*
X0235373Y0060500D02*
X0236952Y0060500D01*
X0227627Y0060500D02*
X0225373Y0060500D01*
X0234746Y0055000D02*
X0234901Y0055202D01*
X0235051Y0055407D01*
X0235197Y0055616D01*
X0235337Y0055829D01*
X0235472Y0056045D01*
X0235601Y0056264D01*
X0235725Y0056486D01*
X0235844Y0056711D01*
X0235957Y0056939D01*
X0236065Y0057169D01*
X0236167Y0057402D01*
X0236264Y0057638D01*
X0236355Y0057876D01*
X0236440Y0058115D01*
X0236519Y0058357D01*
X0236592Y0058601D01*
X0236659Y0058846D01*
X0236721Y0059093D01*
X0236776Y0059342D01*
X0236825Y0059592D01*
X0236868Y0059842D01*
X0236905Y0060094D01*
X0236936Y0060347D01*
X0236961Y0060600D01*
X0236980Y0060854D01*
X0236993Y0061108D01*
X0236999Y0061362D01*
X0236999Y0061617D01*
X0236993Y0061871D01*
X0236981Y0062126D01*
X0236963Y0062379D01*
X0236939Y0062633D01*
X0236908Y0062885D01*
X0236872Y0063137D01*
X0236829Y0063388D01*
X0236780Y0063638D01*
X0236725Y0063886D01*
X0236664Y0064133D01*
X0236598Y0064379D01*
X0236525Y0064623D01*
X0236446Y0064865D01*
X0236362Y0065105D01*
X0236271Y0065343D01*
X0236175Y0065579D01*
X0236074Y0065812D01*
X0235966Y0066043D01*
X0235854Y0066271D01*
X0235735Y0066496D01*
X0235611Y0066718D01*
X0235482Y0066938D01*
X0235348Y0067154D01*
X0235208Y0067367D01*
X0235063Y0067576D01*
X0234914Y0067782D01*
X0234759Y0067984D01*
X0234599Y0068182D01*
X0234435Y0068376D01*
X0234266Y0068567D01*
X0234093Y0068753D01*
X0233915Y0068935D01*
X0233732Y0069112D01*
X0233546Y0069285D01*
X0233355Y0069454D01*
X0233160Y0069618D01*
X0232961Y0069777D01*
X0232759Y0069931D01*
X0232553Y0070080D01*
X0232343Y0070224D01*
X0232130Y0070363D01*
X0231913Y0070497D01*
X0231694Y0070626D01*
X0231471Y0070749D01*
X0231245Y0070866D01*
X0231017Y0070979D01*
X0230786Y0071085D01*
X0230552Y0071186D01*
X0230316Y0071282D01*
X0230078Y0071371D01*
X0229838Y0071455D01*
X0229596Y0071533D01*
X0209669Y0065811D02*
X0209669Y0064000D01*
X0208449Y0063080D01*
X0209669Y0062189D02*
X0209669Y0064000D01*
X0209609Y0064100D02*
X0208449Y0064860D01*
X0216048Y0060500D02*
X0217627Y0060500D01*
X0218254Y0055000D02*
X0218099Y0055202D01*
X0217948Y0055407D01*
X0217803Y0055616D01*
X0217663Y0055829D01*
X0217528Y0056045D01*
X0217399Y0056264D01*
X0217275Y0056486D01*
X0217156Y0056711D01*
X0217042Y0056939D01*
X0216935Y0057169D01*
X0216833Y0057402D01*
X0216736Y0057638D01*
X0216645Y0057876D01*
X0216560Y0058116D01*
X0216481Y0058358D01*
X0216408Y0058601D01*
X0216341Y0058847D01*
X0216279Y0059094D01*
X0216224Y0059342D01*
X0216175Y0059592D01*
X0216132Y0059843D01*
X0216095Y0060094D01*
X0216064Y0060347D01*
X0216039Y0060600D01*
X0216020Y0060854D01*
X0216007Y0061108D01*
X0216001Y0061363D01*
X0216001Y0061617D01*
X0216007Y0061872D01*
X0216019Y0062126D01*
X0216037Y0062380D01*
X0216061Y0062633D01*
X0216092Y0062886D01*
X0216128Y0063137D01*
X0216171Y0063388D01*
X0216220Y0063638D01*
X0216275Y0063887D01*
X0216336Y0064134D01*
X0216402Y0064379D01*
X0216475Y0064623D01*
X0216554Y0064865D01*
X0216638Y0065105D01*
X0216729Y0065343D01*
X0216825Y0065579D01*
X0216926Y0065812D01*
X0217034Y0066043D01*
X0217147Y0066271D01*
X0217265Y0066496D01*
X0217389Y0066719D01*
X0217518Y0066938D01*
X0217652Y0067154D01*
X0217792Y0067367D01*
X0217937Y0067576D01*
X0218086Y0067782D01*
X0218241Y0067984D01*
X0218401Y0068182D01*
X0218565Y0068376D01*
X0218734Y0068567D01*
X0218908Y0068753D01*
X0219086Y0068935D01*
X0219268Y0069112D01*
X0219455Y0069285D01*
X0219645Y0069454D01*
X0219840Y0069618D01*
X0220039Y0069777D01*
X0220241Y0069931D01*
X0220447Y0070080D01*
X0220657Y0070224D01*
X0220870Y0070363D01*
X0221087Y0070497D01*
X0221306Y0070626D01*
X0221529Y0070749D01*
X0221755Y0070867D01*
X0221983Y0070979D01*
X0222214Y0071085D01*
X0222448Y0071187D01*
X0222684Y0071282D01*
X0222922Y0071372D01*
X0223162Y0071455D01*
X0223404Y0071533D01*
X0198311Y0070831D02*
X0196500Y0070831D01*
X0195580Y0072051D01*
X0194689Y0070831D02*
X0196500Y0070831D01*
X0196600Y0070891D02*
X0197360Y0072051D01*
X0251048Y0077500D02*
X0252627Y0077500D01*
X0260373Y0077500D02*
X0262627Y0077500D01*
X0253254Y0083000D02*
X0253099Y0082798D01*
X0252949Y0082593D01*
X0252803Y0082384D01*
X0252663Y0082171D01*
X0252528Y0081955D01*
X0252399Y0081736D01*
X0252275Y0081514D01*
X0252156Y0081289D01*
X0252043Y0081061D01*
X0251935Y0080831D01*
X0251833Y0080598D01*
X0251736Y0080362D01*
X0251645Y0080124D01*
X0251560Y0079885D01*
X0251481Y0079643D01*
X0251408Y0079399D01*
X0251341Y0079154D01*
X0251279Y0078907D01*
X0251224Y0078658D01*
X0251175Y0078408D01*
X0251132Y0078158D01*
X0251095Y0077906D01*
X0251064Y0077653D01*
X0251039Y0077400D01*
X0251020Y0077146D01*
X0251007Y0076892D01*
X0251001Y0076638D01*
X0251001Y0076383D01*
X0251007Y0076129D01*
X0251019Y0075874D01*
X0251037Y0075621D01*
X0251061Y0075367D01*
X0251092Y0075115D01*
X0251128Y0074863D01*
X0251171Y0074612D01*
X0251220Y0074362D01*
X0251275Y0074114D01*
X0251336Y0073867D01*
X0251402Y0073621D01*
X0251475Y0073377D01*
X0251554Y0073135D01*
X0251638Y0072895D01*
X0251729Y0072657D01*
X0251825Y0072421D01*
X0251926Y0072188D01*
X0252034Y0071957D01*
X0252146Y0071729D01*
X0252265Y0071504D01*
X0252389Y0071282D01*
X0252518Y0071062D01*
X0252652Y0070846D01*
X0252792Y0070633D01*
X0252937Y0070424D01*
X0253086Y0070218D01*
X0253241Y0070016D01*
X0253401Y0069818D01*
X0253565Y0069624D01*
X0253734Y0069433D01*
X0253907Y0069247D01*
X0254085Y0069065D01*
X0254268Y0068888D01*
X0254454Y0068715D01*
X0254645Y0068546D01*
X0254840Y0068382D01*
X0255039Y0068223D01*
X0255241Y0068069D01*
X0255447Y0067920D01*
X0255657Y0067776D01*
X0255870Y0067637D01*
X0256087Y0067503D01*
X0256306Y0067374D01*
X0256529Y0067251D01*
X0256755Y0067134D01*
X0256983Y0067021D01*
X0257214Y0066915D01*
X0257448Y0066814D01*
X0257684Y0066718D01*
X0257922Y0066629D01*
X0258162Y0066545D01*
X0258404Y0066467D01*
X0264596Y0066467D02*
X0264838Y0066545D01*
X0265078Y0066628D01*
X0265316Y0066718D01*
X0265552Y0066813D01*
X0265786Y0066915D01*
X0266017Y0067021D01*
X0266245Y0067133D01*
X0266471Y0067251D01*
X0266694Y0067374D01*
X0266913Y0067503D01*
X0267130Y0067637D01*
X0267343Y0067776D01*
X0267553Y0067920D01*
X0267759Y0068069D01*
X0267961Y0068223D01*
X0268160Y0068382D01*
X0268355Y0068546D01*
X0268545Y0068715D01*
X0268732Y0068888D01*
X0268914Y0069065D01*
X0269092Y0069247D01*
X0269266Y0069433D01*
X0269435Y0069624D01*
X0269599Y0069818D01*
X0269759Y0070016D01*
X0269914Y0070218D01*
X0270063Y0070424D01*
X0270208Y0070633D01*
X0270348Y0070846D01*
X0270482Y0071062D01*
X0270611Y0071281D01*
X0270735Y0071504D01*
X0270853Y0071729D01*
X0270966Y0071957D01*
X0271074Y0072188D01*
X0271175Y0072421D01*
X0271271Y0072657D01*
X0271362Y0072895D01*
X0271446Y0073135D01*
X0271525Y0073377D01*
X0271598Y0073621D01*
X0271664Y0073866D01*
X0271725Y0074113D01*
X0271780Y0074362D01*
X0271829Y0074612D01*
X0271872Y0074863D01*
X0271908Y0075114D01*
X0271939Y0075367D01*
X0271963Y0075620D01*
X0271981Y0075874D01*
X0271993Y0076128D01*
X0271999Y0076383D01*
X0271999Y0076637D01*
X0271993Y0076892D01*
X0271980Y0077146D01*
X0271961Y0077400D01*
X0271936Y0077653D01*
X0271905Y0077906D01*
X0271868Y0078157D01*
X0271825Y0078408D01*
X0271776Y0078658D01*
X0271721Y0078906D01*
X0271659Y0079153D01*
X0271592Y0079399D01*
X0271519Y0079642D01*
X0271440Y0079884D01*
X0271355Y0080124D01*
X0271264Y0080362D01*
X0271167Y0080598D01*
X0271065Y0080831D01*
X0270958Y0081061D01*
X0270844Y0081289D01*
X0270725Y0081514D01*
X0270601Y0081736D01*
X0270472Y0081955D01*
X0270337Y0082171D01*
X0270197Y0082384D01*
X0270052Y0082593D01*
X0269901Y0082798D01*
X0269746Y0083000D01*
X0253254Y0083000D01*
X0270373Y0077500D02*
X0271952Y0077500D01*
X0308000Y0069500D02*
X0308000Y0100500D01*
X0360000Y0100500D01*
X0360000Y0069500D01*
X0360000Y0051500D02*
X0360000Y0044500D01*
X0351000Y0044500D01*
X0317000Y0044500D02*
X0308000Y0044500D01*
X0308000Y0051500D01*
X0298000Y0044452D02*
X0298000Y0042873D01*
X0292500Y0042246D02*
X0292500Y0025754D01*
X0298000Y0025127D02*
X0298000Y0023548D01*
X0298000Y0032873D02*
X0298000Y0035127D01*
X0292500Y0025754D02*
X0292702Y0025599D01*
X0292907Y0025449D01*
X0293116Y0025303D01*
X0293329Y0025163D01*
X0293545Y0025028D01*
X0293764Y0024899D01*
X0293986Y0024775D01*
X0294211Y0024656D01*
X0294439Y0024543D01*
X0294669Y0024435D01*
X0294902Y0024333D01*
X0295138Y0024236D01*
X0295376Y0024145D01*
X0295615Y0024060D01*
X0295857Y0023981D01*
X0296101Y0023908D01*
X0296346Y0023841D01*
X0296593Y0023779D01*
X0296842Y0023724D01*
X0297092Y0023675D01*
X0297342Y0023632D01*
X0297594Y0023595D01*
X0297847Y0023564D01*
X0298100Y0023539D01*
X0298354Y0023520D01*
X0298608Y0023507D01*
X0298862Y0023501D01*
X0299117Y0023501D01*
X0299371Y0023507D01*
X0299626Y0023519D01*
X0299879Y0023537D01*
X0300133Y0023561D01*
X0300385Y0023592D01*
X0300637Y0023628D01*
X0300888Y0023671D01*
X0301138Y0023720D01*
X0301386Y0023775D01*
X0301633Y0023836D01*
X0301879Y0023902D01*
X0302123Y0023975D01*
X0302365Y0024054D01*
X0302605Y0024138D01*
X0302843Y0024229D01*
X0303079Y0024325D01*
X0303312Y0024426D01*
X0303543Y0024534D01*
X0303771Y0024646D01*
X0303996Y0024765D01*
X0304218Y0024889D01*
X0304438Y0025018D01*
X0304654Y0025152D01*
X0304867Y0025292D01*
X0305076Y0025437D01*
X0305282Y0025586D01*
X0305484Y0025741D01*
X0305682Y0025901D01*
X0305876Y0026065D01*
X0306067Y0026234D01*
X0306253Y0026407D01*
X0306435Y0026585D01*
X0306612Y0026768D01*
X0306785Y0026954D01*
X0306954Y0027145D01*
X0307118Y0027340D01*
X0307277Y0027539D01*
X0307431Y0027741D01*
X0307580Y0027947D01*
X0307724Y0028157D01*
X0307863Y0028370D01*
X0307997Y0028587D01*
X0308126Y0028806D01*
X0308249Y0029029D01*
X0308366Y0029255D01*
X0308479Y0029483D01*
X0308585Y0029714D01*
X0308686Y0029948D01*
X0308782Y0030184D01*
X0308871Y0030422D01*
X0308955Y0030662D01*
X0309033Y0030904D01*
X0309033Y0037096D02*
X0308955Y0037338D01*
X0308872Y0037578D01*
X0308782Y0037816D01*
X0308687Y0038052D01*
X0308585Y0038286D01*
X0308479Y0038517D01*
X0308367Y0038745D01*
X0308249Y0038971D01*
X0308126Y0039194D01*
X0307997Y0039413D01*
X0307863Y0039630D01*
X0307724Y0039843D01*
X0307580Y0040053D01*
X0307431Y0040259D01*
X0307277Y0040461D01*
X0307118Y0040660D01*
X0306954Y0040855D01*
X0306785Y0041045D01*
X0306612Y0041232D01*
X0306435Y0041414D01*
X0306253Y0041592D01*
X0306067Y0041766D01*
X0305876Y0041935D01*
X0305682Y0042099D01*
X0305484Y0042259D01*
X0305282Y0042414D01*
X0305076Y0042563D01*
X0304867Y0042708D01*
X0304654Y0042848D01*
X0304438Y0042982D01*
X0304219Y0043111D01*
X0303996Y0043235D01*
X0303771Y0043353D01*
X0303543Y0043466D01*
X0303312Y0043574D01*
X0303079Y0043675D01*
X0302843Y0043771D01*
X0302605Y0043862D01*
X0302365Y0043946D01*
X0302123Y0044025D01*
X0301879Y0044098D01*
X0301634Y0044164D01*
X0301387Y0044225D01*
X0301138Y0044280D01*
X0300888Y0044329D01*
X0300637Y0044372D01*
X0300386Y0044408D01*
X0300133Y0044439D01*
X0299880Y0044463D01*
X0299626Y0044481D01*
X0299372Y0044493D01*
X0299117Y0044499D01*
X0298863Y0044499D01*
X0298608Y0044493D01*
X0298354Y0044480D01*
X0298100Y0044461D01*
X0297847Y0044436D01*
X0297594Y0044405D01*
X0297343Y0044368D01*
X0297092Y0044325D01*
X0296842Y0044276D01*
X0296594Y0044221D01*
X0296347Y0044159D01*
X0296101Y0044092D01*
X0295858Y0044019D01*
X0295616Y0043940D01*
X0295376Y0043855D01*
X0295138Y0043764D01*
X0294902Y0043667D01*
X0294669Y0043565D01*
X0294439Y0043458D01*
X0294211Y0043344D01*
X0293986Y0043225D01*
X0293764Y0043101D01*
X0293545Y0042972D01*
X0293329Y0042837D01*
X0293116Y0042697D01*
X0292907Y0042552D01*
X0292702Y0042401D01*
X0292500Y0042246D01*
X0161500Y0044000D02*
X0161500Y0039000D01*
X0143705Y0036500D02*
X0143709Y0036814D01*
X0143720Y0037128D01*
X0143740Y0037441D01*
X0143767Y0037754D01*
X0143801Y0038066D01*
X0143843Y0038377D01*
X0143893Y0038687D01*
X0143951Y0038996D01*
X0144016Y0039303D01*
X0144088Y0039609D01*
X0144168Y0039913D01*
X0144256Y0040214D01*
X0144351Y0040514D01*
X0144453Y0040811D01*
X0144562Y0041105D01*
X0144679Y0041396D01*
X0144803Y0041685D01*
X0144933Y0041971D01*
X0145071Y0042253D01*
X0145216Y0042532D01*
X0145367Y0042807D01*
X0145525Y0043078D01*
X0145690Y0043345D01*
X0145861Y0043609D01*
X0146039Y0043867D01*
X0146223Y0044122D01*
X0146413Y0044372D01*
X0146609Y0044617D01*
X0146812Y0044857D01*
X0147020Y0045093D01*
X0147233Y0045323D01*
X0147453Y0045547D01*
X0147677Y0045767D01*
X0147907Y0045980D01*
X0148143Y0046188D01*
X0148383Y0046391D01*
X0148628Y0046587D01*
X0148878Y0046777D01*
X0149133Y0046961D01*
X0149391Y0047139D01*
X0149655Y0047310D01*
X0149922Y0047475D01*
X0150193Y0047633D01*
X0150468Y0047784D01*
X0150747Y0047929D01*
X0151029Y0048067D01*
X0151315Y0048197D01*
X0151604Y0048321D01*
X0151895Y0048438D01*
X0152189Y0048547D01*
X0152486Y0048649D01*
X0152786Y0048744D01*
X0153087Y0048832D01*
X0153391Y0048912D01*
X0153697Y0048984D01*
X0154004Y0049049D01*
X0154313Y0049107D01*
X0154623Y0049157D01*
X0154934Y0049199D01*
X0155246Y0049233D01*
X0155559Y0049260D01*
X0155872Y0049280D01*
X0156186Y0049291D01*
X0156500Y0049295D01*
X0156814Y0049291D01*
X0157128Y0049280D01*
X0157441Y0049260D01*
X0157754Y0049233D01*
X0158066Y0049199D01*
X0158377Y0049157D01*
X0158687Y0049107D01*
X0158996Y0049049D01*
X0159303Y0048984D01*
X0159609Y0048912D01*
X0159913Y0048832D01*
X0160214Y0048744D01*
X0160514Y0048649D01*
X0160811Y0048547D01*
X0161105Y0048438D01*
X0161396Y0048321D01*
X0161685Y0048197D01*
X0161971Y0048067D01*
X0162253Y0047929D01*
X0162532Y0047784D01*
X0162807Y0047633D01*
X0163078Y0047475D01*
X0163345Y0047310D01*
X0163609Y0047139D01*
X0163867Y0046961D01*
X0164122Y0046777D01*
X0164372Y0046587D01*
X0164617Y0046391D01*
X0164857Y0046188D01*
X0165093Y0045980D01*
X0165323Y0045767D01*
X0165547Y0045547D01*
X0165767Y0045323D01*
X0165980Y0045093D01*
X0166188Y0044857D01*
X0166391Y0044617D01*
X0166587Y0044372D01*
X0166777Y0044122D01*
X0166961Y0043867D01*
X0167139Y0043609D01*
X0167310Y0043345D01*
X0167475Y0043078D01*
X0167633Y0042807D01*
X0167784Y0042532D01*
X0167929Y0042253D01*
X0168067Y0041971D01*
X0168197Y0041685D01*
X0168321Y0041396D01*
X0168438Y0041105D01*
X0168547Y0040811D01*
X0168649Y0040514D01*
X0168744Y0040214D01*
X0168832Y0039913D01*
X0168912Y0039609D01*
X0168984Y0039303D01*
X0169049Y0038996D01*
X0169107Y0038687D01*
X0169157Y0038377D01*
X0169199Y0038066D01*
X0169233Y0037754D01*
X0169260Y0037441D01*
X0169280Y0037128D01*
X0169291Y0036814D01*
X0169295Y0036500D01*
X0169291Y0036186D01*
X0169280Y0035872D01*
X0169260Y0035559D01*
X0169233Y0035246D01*
X0169199Y0034934D01*
X0169157Y0034623D01*
X0169107Y0034313D01*
X0169049Y0034004D01*
X0168984Y0033697D01*
X0168912Y0033391D01*
X0168832Y0033087D01*
X0168744Y0032786D01*
X0168649Y0032486D01*
X0168547Y0032189D01*
X0168438Y0031895D01*
X0168321Y0031604D01*
X0168197Y0031315D01*
X0168067Y0031029D01*
X0167929Y0030747D01*
X0167784Y0030468D01*
X0167633Y0030193D01*
X0167475Y0029922D01*
X0167310Y0029655D01*
X0167139Y0029391D01*
X0166961Y0029133D01*
X0166777Y0028878D01*
X0166587Y0028628D01*
X0166391Y0028383D01*
X0166188Y0028143D01*
X0165980Y0027907D01*
X0165767Y0027677D01*
X0165547Y0027453D01*
X0165323Y0027233D01*
X0165093Y0027020D01*
X0164857Y0026812D01*
X0164617Y0026609D01*
X0164372Y0026413D01*
X0164122Y0026223D01*
X0163867Y0026039D01*
X0163609Y0025861D01*
X0163345Y0025690D01*
X0163078Y0025525D01*
X0162807Y0025367D01*
X0162532Y0025216D01*
X0162253Y0025071D01*
X0161971Y0024933D01*
X0161685Y0024803D01*
X0161396Y0024679D01*
X0161105Y0024562D01*
X0160811Y0024453D01*
X0160514Y0024351D01*
X0160214Y0024256D01*
X0159913Y0024168D01*
X0159609Y0024088D01*
X0159303Y0024016D01*
X0158996Y0023951D01*
X0158687Y0023893D01*
X0158377Y0023843D01*
X0158066Y0023801D01*
X0157754Y0023767D01*
X0157441Y0023740D01*
X0157128Y0023720D01*
X0156814Y0023709D01*
X0156500Y0023705D01*
X0156186Y0023709D01*
X0155872Y0023720D01*
X0155559Y0023740D01*
X0155246Y0023767D01*
X0154934Y0023801D01*
X0154623Y0023843D01*
X0154313Y0023893D01*
X0154004Y0023951D01*
X0153697Y0024016D01*
X0153391Y0024088D01*
X0153087Y0024168D01*
X0152786Y0024256D01*
X0152486Y0024351D01*
X0152189Y0024453D01*
X0151895Y0024562D01*
X0151604Y0024679D01*
X0151315Y0024803D01*
X0151029Y0024933D01*
X0150747Y0025071D01*
X0150468Y0025216D01*
X0150193Y0025367D01*
X0149922Y0025525D01*
X0149655Y0025690D01*
X0149391Y0025861D01*
X0149133Y0026039D01*
X0148878Y0026223D01*
X0148628Y0026413D01*
X0148383Y0026609D01*
X0148143Y0026812D01*
X0147907Y0027020D01*
X0147677Y0027233D01*
X0147453Y0027453D01*
X0147233Y0027677D01*
X0147020Y0027907D01*
X0146812Y0028143D01*
X0146609Y0028383D01*
X0146413Y0028628D01*
X0146223Y0028878D01*
X0146039Y0029133D01*
X0145861Y0029391D01*
X0145690Y0029655D01*
X0145525Y0029922D01*
X0145367Y0030193D01*
X0145216Y0030468D01*
X0145071Y0030747D01*
X0144933Y0031029D01*
X0144803Y0031315D01*
X0144679Y0031604D01*
X0144562Y0031895D01*
X0144453Y0032189D01*
X0144351Y0032486D01*
X0144256Y0032786D01*
X0144168Y0033087D01*
X0144088Y0033391D01*
X0144016Y0033697D01*
X0143951Y0034004D01*
X0143893Y0034313D01*
X0143843Y0034623D01*
X0143801Y0034934D01*
X0143767Y0035246D01*
X0143740Y0035559D01*
X0143720Y0035872D01*
X0143709Y0036186D01*
X0143705Y0036500D01*
X0027051Y0045063D02*
X0018783Y0045063D01*
X0018783Y0047819D01*
X0018783Y0066323D02*
X0018783Y0087189D01*
D15*
X0086500Y0051500D03*
X0086500Y0039000D03*
X0121500Y0039000D03*
X0134000Y0039000D03*
X0121500Y0026500D03*
X0086500Y0026500D03*
X0244000Y0056500D03*
X0244000Y0064000D03*
X0244000Y0071500D03*
X0209000Y0071500D03*
X0184000Y0071500D03*
X0319000Y0031500D03*
D16*
X0171620Y0061500D02*
X0171380Y0061500D01*
X0171380Y0076500D02*
X0171620Y0076500D01*
X0104120Y0059000D02*
X0103880Y0059000D01*
X0074000Y0051620D02*
X0074000Y0051380D01*
X0074000Y0039120D02*
X0074000Y0038880D01*
X0134000Y0026620D02*
X0134000Y0026380D01*
D17*
X0256450Y0025750D02*
X0286550Y0025750D01*
X0286550Y0030750D02*
X0286550Y0062250D01*
X0256450Y0062250D01*
X0256450Y0025750D01*
D18*
X0296500Y0054000D03*
D19*
X0246500Y0051500D02*
X0246500Y0041500D01*
X0216500Y0041500D02*
X0216500Y0051500D01*
X0246500Y0051500D01*
X0206500Y0051500D02*
X0206500Y0041500D01*
X0176500Y0041500D02*
X0176500Y0051500D01*
X0206500Y0051500D01*
X0174000Y0031500D02*
X0174005Y0031929D01*
X0174021Y0032359D01*
X0174047Y0032787D01*
X0174084Y0033215D01*
X0174132Y0033642D01*
X0174189Y0034068D01*
X0174258Y0034492D01*
X0174336Y0034914D01*
X0174425Y0035334D01*
X0174524Y0035752D01*
X0174634Y0036167D01*
X0174754Y0036580D01*
X0174883Y0036989D01*
X0175023Y0037396D01*
X0175173Y0037798D01*
X0175332Y0038197D01*
X0175501Y0038592D01*
X0175680Y0038982D01*
X0175869Y0039368D01*
X0176066Y0039749D01*
X0176273Y0040126D01*
X0176490Y0040497D01*
X0176715Y0040862D01*
X0176949Y0041222D01*
X0177192Y0041577D01*
X0177444Y0041925D01*
X0177704Y0042267D01*
X0177972Y0042602D01*
X0178249Y0042931D01*
X0178533Y0043252D01*
X0178826Y0043567D01*
X0179126Y0043874D01*
X0179433Y0044174D01*
X0179748Y0044467D01*
X0180069Y0044751D01*
X0180398Y0045028D01*
X0180733Y0045296D01*
X0181075Y0045556D01*
X0181423Y0045808D01*
X0181778Y0046051D01*
X0182138Y0046285D01*
X0182503Y0046510D01*
X0182874Y0046727D01*
X0183251Y0046934D01*
X0183632Y0047131D01*
X0184018Y0047320D01*
X0184408Y0047499D01*
X0184803Y0047668D01*
X0185202Y0047827D01*
X0185604Y0047977D01*
X0186011Y0048117D01*
X0186420Y0048246D01*
X0186833Y0048366D01*
X0187248Y0048476D01*
X0187666Y0048575D01*
X0188086Y0048664D01*
X0188508Y0048742D01*
X0188932Y0048811D01*
X0189358Y0048868D01*
X0189785Y0048916D01*
X0190213Y0048953D01*
X0190641Y0048979D01*
X0191071Y0048995D01*
X0191500Y0049000D01*
X0191929Y0048995D01*
X0192359Y0048979D01*
X0192787Y0048953D01*
X0193215Y0048916D01*
X0193642Y0048868D01*
X0194068Y0048811D01*
X0194492Y0048742D01*
X0194914Y0048664D01*
X0195334Y0048575D01*
X0195752Y0048476D01*
X0196167Y0048366D01*
X0196580Y0048246D01*
X0196989Y0048117D01*
X0197396Y0047977D01*
X0197798Y0047827D01*
X0198197Y0047668D01*
X0198592Y0047499D01*
X0198982Y0047320D01*
X0199368Y0047131D01*
X0199749Y0046934D01*
X0200126Y0046727D01*
X0200497Y0046510D01*
X0200862Y0046285D01*
X0201222Y0046051D01*
X0201577Y0045808D01*
X0201925Y0045556D01*
X0202267Y0045296D01*
X0202602Y0045028D01*
X0202931Y0044751D01*
X0203252Y0044467D01*
X0203567Y0044174D01*
X0203874Y0043874D01*
X0204174Y0043567D01*
X0204467Y0043252D01*
X0204751Y0042931D01*
X0205028Y0042602D01*
X0205296Y0042267D01*
X0205556Y0041925D01*
X0205808Y0041577D01*
X0206051Y0041222D01*
X0206285Y0040862D01*
X0206510Y0040497D01*
X0206727Y0040126D01*
X0206934Y0039749D01*
X0207131Y0039368D01*
X0207320Y0038982D01*
X0207499Y0038592D01*
X0207668Y0038197D01*
X0207827Y0037798D01*
X0207977Y0037396D01*
X0208117Y0036989D01*
X0208246Y0036580D01*
X0208366Y0036167D01*
X0208476Y0035752D01*
X0208575Y0035334D01*
X0208664Y0034914D01*
X0208742Y0034492D01*
X0208811Y0034068D01*
X0208868Y0033642D01*
X0208916Y0033215D01*
X0208953Y0032787D01*
X0208979Y0032359D01*
X0208995Y0031929D01*
X0209000Y0031500D01*
X0208995Y0031071D01*
X0208979Y0030641D01*
X0208953Y0030213D01*
X0208916Y0029785D01*
X0208868Y0029358D01*
X0208811Y0028932D01*
X0208742Y0028508D01*
X0208664Y0028086D01*
X0208575Y0027666D01*
X0208476Y0027248D01*
X0208366Y0026833D01*
X0208246Y0026420D01*
X0208117Y0026011D01*
X0207977Y0025604D01*
X0207827Y0025202D01*
X0207668Y0024803D01*
X0207499Y0024408D01*
X0207320Y0024018D01*
X0207131Y0023632D01*
X0206934Y0023251D01*
X0206727Y0022874D01*
X0206510Y0022503D01*
X0206285Y0022138D01*
X0206051Y0021778D01*
X0205808Y0021423D01*
X0205556Y0021075D01*
X0205296Y0020733D01*
X0205028Y0020398D01*
X0204751Y0020069D01*
X0204467Y0019748D01*
X0204174Y0019433D01*
X0203874Y0019126D01*
X0203567Y0018826D01*
X0203252Y0018533D01*
X0202931Y0018249D01*
X0202602Y0017972D01*
X0202267Y0017704D01*
X0201925Y0017444D01*
X0201577Y0017192D01*
X0201222Y0016949D01*
X0200862Y0016715D01*
X0200497Y0016490D01*
X0200126Y0016273D01*
X0199749Y0016066D01*
X0199368Y0015869D01*
X0198982Y0015680D01*
X0198592Y0015501D01*
X0198197Y0015332D01*
X0197798Y0015173D01*
X0197396Y0015023D01*
X0196989Y0014883D01*
X0196580Y0014754D01*
X0196167Y0014634D01*
X0195752Y0014524D01*
X0195334Y0014425D01*
X0194914Y0014336D01*
X0194492Y0014258D01*
X0194068Y0014189D01*
X0193642Y0014132D01*
X0193215Y0014084D01*
X0192787Y0014047D01*
X0192359Y0014021D01*
X0191929Y0014005D01*
X0191500Y0014000D01*
X0191071Y0014005D01*
X0190641Y0014021D01*
X0190213Y0014047D01*
X0189785Y0014084D01*
X0189358Y0014132D01*
X0188932Y0014189D01*
X0188508Y0014258D01*
X0188086Y0014336D01*
X0187666Y0014425D01*
X0187248Y0014524D01*
X0186833Y0014634D01*
X0186420Y0014754D01*
X0186011Y0014883D01*
X0185604Y0015023D01*
X0185202Y0015173D01*
X0184803Y0015332D01*
X0184408Y0015501D01*
X0184018Y0015680D01*
X0183632Y0015869D01*
X0183251Y0016066D01*
X0182874Y0016273D01*
X0182503Y0016490D01*
X0182138Y0016715D01*
X0181778Y0016949D01*
X0181423Y0017192D01*
X0181075Y0017444D01*
X0180733Y0017704D01*
X0180398Y0017972D01*
X0180069Y0018249D01*
X0179748Y0018533D01*
X0179433Y0018826D01*
X0179126Y0019126D01*
X0178826Y0019433D01*
X0178533Y0019748D01*
X0178249Y0020069D01*
X0177972Y0020398D01*
X0177704Y0020733D01*
X0177444Y0021075D01*
X0177192Y0021423D01*
X0176949Y0021778D01*
X0176715Y0022138D01*
X0176490Y0022503D01*
X0176273Y0022874D01*
X0176066Y0023251D01*
X0175869Y0023632D01*
X0175680Y0024018D01*
X0175501Y0024408D01*
X0175332Y0024803D01*
X0175173Y0025202D01*
X0175023Y0025604D01*
X0174883Y0026011D01*
X0174754Y0026420D01*
X0174634Y0026833D01*
X0174524Y0027248D01*
X0174425Y0027666D01*
X0174336Y0028086D01*
X0174258Y0028508D01*
X0174189Y0028932D01*
X0174132Y0029358D01*
X0174084Y0029785D01*
X0174047Y0030213D01*
X0174021Y0030641D01*
X0174005Y0031071D01*
X0174000Y0031500D01*
X0214000Y0031500D02*
X0214005Y0031929D01*
X0214021Y0032359D01*
X0214047Y0032787D01*
X0214084Y0033215D01*
X0214132Y0033642D01*
X0214189Y0034068D01*
X0214258Y0034492D01*
X0214336Y0034914D01*
X0214425Y0035334D01*
X0214524Y0035752D01*
X0214634Y0036167D01*
X0214754Y0036580D01*
X0214883Y0036989D01*
X0215023Y0037396D01*
X0215173Y0037798D01*
X0215332Y0038197D01*
X0215501Y0038592D01*
X0215680Y0038982D01*
X0215869Y0039368D01*
X0216066Y0039749D01*
X0216273Y0040126D01*
X0216490Y0040497D01*
X0216715Y0040862D01*
X0216949Y0041222D01*
X0217192Y0041577D01*
X0217444Y0041925D01*
X0217704Y0042267D01*
X0217972Y0042602D01*
X0218249Y0042931D01*
X0218533Y0043252D01*
X0218826Y0043567D01*
X0219126Y0043874D01*
X0219433Y0044174D01*
X0219748Y0044467D01*
X0220069Y0044751D01*
X0220398Y0045028D01*
X0220733Y0045296D01*
X0221075Y0045556D01*
X0221423Y0045808D01*
X0221778Y0046051D01*
X0222138Y0046285D01*
X0222503Y0046510D01*
X0222874Y0046727D01*
X0223251Y0046934D01*
X0223632Y0047131D01*
X0224018Y0047320D01*
X0224408Y0047499D01*
X0224803Y0047668D01*
X0225202Y0047827D01*
X0225604Y0047977D01*
X0226011Y0048117D01*
X0226420Y0048246D01*
X0226833Y0048366D01*
X0227248Y0048476D01*
X0227666Y0048575D01*
X0228086Y0048664D01*
X0228508Y0048742D01*
X0228932Y0048811D01*
X0229358Y0048868D01*
X0229785Y0048916D01*
X0230213Y0048953D01*
X0230641Y0048979D01*
X0231071Y0048995D01*
X0231500Y0049000D01*
X0231929Y0048995D01*
X0232359Y0048979D01*
X0232787Y0048953D01*
X0233215Y0048916D01*
X0233642Y0048868D01*
X0234068Y0048811D01*
X0234492Y0048742D01*
X0234914Y0048664D01*
X0235334Y0048575D01*
X0235752Y0048476D01*
X0236167Y0048366D01*
X0236580Y0048246D01*
X0236989Y0048117D01*
X0237396Y0047977D01*
X0237798Y0047827D01*
X0238197Y0047668D01*
X0238592Y0047499D01*
X0238982Y0047320D01*
X0239368Y0047131D01*
X0239749Y0046934D01*
X0240126Y0046727D01*
X0240497Y0046510D01*
X0240862Y0046285D01*
X0241222Y0046051D01*
X0241577Y0045808D01*
X0241925Y0045556D01*
X0242267Y0045296D01*
X0242602Y0045028D01*
X0242931Y0044751D01*
X0243252Y0044467D01*
X0243567Y0044174D01*
X0243874Y0043874D01*
X0244174Y0043567D01*
X0244467Y0043252D01*
X0244751Y0042931D01*
X0245028Y0042602D01*
X0245296Y0042267D01*
X0245556Y0041925D01*
X0245808Y0041577D01*
X0246051Y0041222D01*
X0246285Y0040862D01*
X0246510Y0040497D01*
X0246727Y0040126D01*
X0246934Y0039749D01*
X0247131Y0039368D01*
X0247320Y0038982D01*
X0247499Y0038592D01*
X0247668Y0038197D01*
X0247827Y0037798D01*
X0247977Y0037396D01*
X0248117Y0036989D01*
X0248246Y0036580D01*
X0248366Y0036167D01*
X0248476Y0035752D01*
X0248575Y0035334D01*
X0248664Y0034914D01*
X0248742Y0034492D01*
X0248811Y0034068D01*
X0248868Y0033642D01*
X0248916Y0033215D01*
X0248953Y0032787D01*
X0248979Y0032359D01*
X0248995Y0031929D01*
X0249000Y0031500D01*
X0248995Y0031071D01*
X0248979Y0030641D01*
X0248953Y0030213D01*
X0248916Y0029785D01*
X0248868Y0029358D01*
X0248811Y0028932D01*
X0248742Y0028508D01*
X0248664Y0028086D01*
X0248575Y0027666D01*
X0248476Y0027248D01*
X0248366Y0026833D01*
X0248246Y0026420D01*
X0248117Y0026011D01*
X0247977Y0025604D01*
X0247827Y0025202D01*
X0247668Y0024803D01*
X0247499Y0024408D01*
X0247320Y0024018D01*
X0247131Y0023632D01*
X0246934Y0023251D01*
X0246727Y0022874D01*
X0246510Y0022503D01*
X0246285Y0022138D01*
X0246051Y0021778D01*
X0245808Y0021423D01*
X0245556Y0021075D01*
X0245296Y0020733D01*
X0245028Y0020398D01*
X0244751Y0020069D01*
X0244467Y0019748D01*
X0244174Y0019433D01*
X0243874Y0019126D01*
X0243567Y0018826D01*
X0243252Y0018533D01*
X0242931Y0018249D01*
X0242602Y0017972D01*
X0242267Y0017704D01*
X0241925Y0017444D01*
X0241577Y0017192D01*
X0241222Y0016949D01*
X0240862Y0016715D01*
X0240497Y0016490D01*
X0240126Y0016273D01*
X0239749Y0016066D01*
X0239368Y0015869D01*
X0238982Y0015680D01*
X0238592Y0015501D01*
X0238197Y0015332D01*
X0237798Y0015173D01*
X0237396Y0015023D01*
X0236989Y0014883D01*
X0236580Y0014754D01*
X0236167Y0014634D01*
X0235752Y0014524D01*
X0235334Y0014425D01*
X0234914Y0014336D01*
X0234492Y0014258D01*
X0234068Y0014189D01*
X0233642Y0014132D01*
X0233215Y0014084D01*
X0232787Y0014047D01*
X0232359Y0014021D01*
X0231929Y0014005D01*
X0231500Y0014000D01*
X0231071Y0014005D01*
X0230641Y0014021D01*
X0230213Y0014047D01*
X0229785Y0014084D01*
X0229358Y0014132D01*
X0228932Y0014189D01*
X0228508Y0014258D01*
X0228086Y0014336D01*
X0227666Y0014425D01*
X0227248Y0014524D01*
X0226833Y0014634D01*
X0226420Y0014754D01*
X0226011Y0014883D01*
X0225604Y0015023D01*
X0225202Y0015173D01*
X0224803Y0015332D01*
X0224408Y0015501D01*
X0224018Y0015680D01*
X0223632Y0015869D01*
X0223251Y0016066D01*
X0222874Y0016273D01*
X0222503Y0016490D01*
X0222138Y0016715D01*
X0221778Y0016949D01*
X0221423Y0017192D01*
X0221075Y0017444D01*
X0220733Y0017704D01*
X0220398Y0017972D01*
X0220069Y0018249D01*
X0219748Y0018533D01*
X0219433Y0018826D01*
X0219126Y0019126D01*
X0218826Y0019433D01*
X0218533Y0019748D01*
X0218249Y0020069D01*
X0217972Y0020398D01*
X0217704Y0020733D01*
X0217444Y0021075D01*
X0217192Y0021423D01*
X0216949Y0021778D01*
X0216715Y0022138D01*
X0216490Y0022503D01*
X0216273Y0022874D01*
X0216066Y0023251D01*
X0215869Y0023632D01*
X0215680Y0024018D01*
X0215501Y0024408D01*
X0215332Y0024803D01*
X0215173Y0025202D01*
X0215023Y0025604D01*
X0214883Y0026011D01*
X0214754Y0026420D01*
X0214634Y0026833D01*
X0214524Y0027248D01*
X0214425Y0027666D01*
X0214336Y0028086D01*
X0214258Y0028508D01*
X0214189Y0028932D01*
X0214132Y0029358D01*
X0214084Y0029785D01*
X0214047Y0030213D01*
X0214021Y0030641D01*
X0214005Y0031071D01*
X0214000Y0031500D01*
M02*
