%
M48
M72
T01C0.0197
T02C0.0276
T03C0.0320
T04C0.0400
T05C0.0512
T06C0.0910
T07C0.1772
%
T01
X7400Y2650
X12275Y3400
X6025Y5400
X2525Y5400
X17150Y5900
X22150Y5650
X24900Y7900
X29900Y3150
T02
X15650Y3150
X15650Y4150
T03
X13385Y6650
X11415Y6650
T04
X15650Y6900
X15650Y5900
X18150Y4280
X19150Y4280
X20150Y4280
X22150Y4280
X23150Y4280
X24150Y4280
X25650Y3900
X28650Y3900
X28650Y2900
X25650Y2900
X25650Y4900
X28650Y4900
X28650Y5900
X25650Y5900
X27650Y7650
X28650Y7650
X29650Y7650
X15650Y7900
T05
X7837Y7650
X5868Y7650
X3900Y7650
X1931Y7650
T06
X30815Y5969
X35985Y5969
T07
X2422Y2400
X35099Y2400
M30
