G75*
%MOIN*%
%OFA0B0*%
%FSLAX25Y25*%
%IPPOS*%
%LPD*%
%AMOC8*
5,1,8,0,0,1.08239X$1,22.5*
%
%ADD10C,0.07100*%
%ADD11R,0.07100X0.07100*%
%ADD12R,0.08000X0.08000*%
%ADD13C,0.08000*%
%ADD14C,0.13700*%
%ADD15C,0.07600*%
%ADD16R,0.08600X0.08600*%
%ADD17C,0.08600*%
%ADD18C,0.03969*%
%ADD19C,0.22316*%
D10*
X0156500Y0041500D03*
X0133850Y0066500D03*
X0114150Y0066500D03*
D11*
X0156500Y0031500D03*
D12*
X0256500Y0059000D03*
X0276500Y0076500D03*
D13*
X0286500Y0076500D03*
X0296500Y0076500D03*
X0286500Y0059000D03*
X0286500Y0049000D03*
X0256500Y0049000D03*
X0256500Y0039000D03*
X0286500Y0039000D03*
X0286500Y0029000D03*
X0256500Y0029000D03*
X0156500Y0059000D03*
X0156500Y0069000D03*
X0156500Y0079000D03*
D14*
X0308150Y0059689D03*
X0359850Y0059689D03*
D15*
X0241500Y0042800D03*
X0231500Y0042800D03*
X0221500Y0042800D03*
X0201500Y0042800D03*
X0191500Y0042800D03*
X0181500Y0042800D03*
D16*
X0078370Y0076500D03*
X0039000Y0076500D03*
D17*
X0058685Y0076500D03*
X0019315Y0076500D03*
D18*
X0025250Y0054000D03*
X0060250Y0054000D03*
X0122750Y0034000D03*
X0074000Y0026500D03*
X0171500Y0059000D03*
X0221500Y0056500D03*
X0249000Y0079000D03*
X0299000Y0031500D03*
D19*
X0024216Y0024000D03*
X0350988Y0024000D03*
M02*
