G75*
%MOIN*%
%OFA0B0*%
%FSLAX25Y25*%
%IPPOS*%
%LPD*%
%AMOC8*
5,1,8,0,0,1.08239X$1,22.5*
%
%ADD10C,0.01000*%
%ADD11R,0.07100X0.11801*%
%ADD12R,0.04100X0.02254*%
%ADD13R,0.06387X0.05600*%
%ADD14R,0.04931X0.04537*%
%ADD15R,0.04537X0.04931*%
%ADD16C,0.07100*%
%ADD17R,0.05600X0.06387*%
%ADD18R,0.07100X0.07100*%
%ADD19C,0.17600*%
%ADD20R,0.08000X0.08000*%
%ADD21C,0.08000*%
%ADD22C,0.01361*%
%ADD23C,0.06899*%
%ADD24C,0.13700*%
%ADD25R,0.04143X0.12411*%
%ADD26C,0.07600*%
%ADD27R,0.03100X0.05600*%
%ADD28R,0.03868X0.03080*%
%ADD29R,0.04143X0.03750*%
%ADD30C,0.03969*%
%ADD31C,0.22316*%
D10*
X0096500Y0029000D02*
X0096500Y0031500D01*
X0106500Y0031500D01*
X0106500Y0029000D01*
X0096500Y0029000D01*
X0096500Y0029466D02*
X0106500Y0029466D01*
X0106500Y0030464D02*
X0096500Y0030464D01*
X0096500Y0031463D02*
X0106500Y0031463D01*
X0106500Y0033250D02*
X0101500Y0033250D01*
X0101500Y0035250D01*
X0106500Y0035250D01*
X0106500Y0033250D01*
X0106500Y0033460D02*
X0101500Y0033460D01*
X0101500Y0034458D02*
X0106500Y0034458D01*
D11*
X0104000Y0044000D03*
D12*
X0095732Y0042720D03*
X0095732Y0045280D03*
X0095732Y0047839D03*
X0095732Y0050398D03*
X0112268Y0050398D03*
X0112268Y0047839D03*
X0112268Y0045280D03*
X0112268Y0042720D03*
X0112268Y0040161D03*
X0112268Y0037602D03*
X0095732Y0037602D03*
X0095732Y0040161D03*
D13*
X0061500Y0035535D03*
X0061500Y0052465D03*
D14*
X0070654Y0051500D03*
X0077346Y0051500D03*
X0083154Y0051500D03*
X0089846Y0051500D03*
X0089846Y0039000D03*
X0083154Y0039000D03*
X0077346Y0039000D03*
X0070654Y0039000D03*
X0083154Y0026500D03*
X0089846Y0026500D03*
X0118154Y0026500D03*
X0124846Y0026500D03*
X0130654Y0026500D03*
X0137346Y0026500D03*
X0137346Y0039000D03*
X0130654Y0039000D03*
X0124846Y0039000D03*
X0118154Y0039000D03*
X0180654Y0071500D03*
X0187346Y0071500D03*
X0205654Y0071500D03*
X0212346Y0071500D03*
X0240654Y0071500D03*
X0247346Y0071500D03*
X0247346Y0064000D03*
X0240654Y0064000D03*
X0240654Y0056500D03*
X0247346Y0056500D03*
X0315654Y0031500D03*
X0322346Y0031500D03*
D15*
X0296500Y0050654D03*
X0296500Y0057346D03*
X0171500Y0058154D03*
X0171500Y0064846D03*
X0171500Y0073154D03*
X0171500Y0079846D03*
X0104000Y0062346D03*
X0104000Y0055654D03*
D16*
X0131500Y0056650D03*
X0156500Y0041500D03*
X0131500Y0076350D03*
D17*
X0109965Y0076500D03*
X0093035Y0076500D03*
D18*
X0156500Y0031500D03*
D19*
X0036500Y0045063D03*
X0017996Y0056874D03*
X0036500Y0068685D03*
D20*
X0256500Y0059000D03*
X0279000Y0076500D03*
D21*
X0289000Y0076500D03*
X0299000Y0076500D03*
X0266500Y0076500D03*
X0256500Y0076500D03*
X0261500Y0069000D03*
X0231500Y0061500D03*
X0221500Y0061500D03*
X0226500Y0069000D03*
X0286500Y0059000D03*
X0286500Y0049000D03*
X0256500Y0049000D03*
X0256500Y0039000D03*
X0286500Y0039000D03*
X0299000Y0039000D03*
X0306500Y0034000D03*
X0299000Y0029000D03*
X0286500Y0029000D03*
X0256500Y0029000D03*
X0161500Y0059000D03*
X0161500Y0069000D03*
X0161500Y0079000D03*
D22*
X0194912Y0076541D02*
X0198088Y0076541D01*
X0198088Y0073365D01*
X0194912Y0073365D01*
X0194912Y0076541D01*
X0194912Y0074725D02*
X0198088Y0074725D01*
X0198088Y0076085D02*
X0194912Y0076085D01*
X0194912Y0069635D02*
X0198088Y0069635D01*
X0198088Y0066459D01*
X0194912Y0066459D01*
X0194912Y0069635D01*
X0194912Y0067819D02*
X0198088Y0067819D01*
X0198088Y0069179D02*
X0194912Y0069179D01*
X0189041Y0065588D02*
X0189041Y0062412D01*
X0185865Y0062412D01*
X0185865Y0065588D01*
X0189041Y0065588D01*
X0189041Y0063772D02*
X0185865Y0063772D01*
X0185865Y0065132D02*
X0189041Y0065132D01*
X0194912Y0060865D02*
X0198088Y0060865D01*
X0194912Y0060865D02*
X0194912Y0064041D01*
X0198088Y0064041D01*
X0198088Y0060865D01*
X0198088Y0062225D02*
X0194912Y0062225D01*
X0194912Y0063585D02*
X0198088Y0063585D01*
X0203959Y0062412D02*
X0203959Y0065588D01*
X0207135Y0065588D01*
X0207135Y0062412D01*
X0203959Y0062412D01*
X0203959Y0063772D02*
X0207135Y0063772D01*
X0207135Y0065132D02*
X0203959Y0065132D01*
X0210865Y0065588D02*
X0210865Y0062412D01*
X0210865Y0065588D02*
X0214041Y0065588D01*
X0214041Y0062412D01*
X0210865Y0062412D01*
X0210865Y0063772D02*
X0214041Y0063772D01*
X0214041Y0065132D02*
X0210865Y0065132D01*
X0214041Y0058088D02*
X0214041Y0054912D01*
X0210865Y0054912D01*
X0210865Y0058088D01*
X0214041Y0058088D01*
X0214041Y0056272D02*
X0210865Y0056272D01*
X0210865Y0057632D02*
X0214041Y0057632D01*
X0207135Y0058088D02*
X0207135Y0054912D01*
X0203959Y0054912D01*
X0203959Y0058088D01*
X0207135Y0058088D01*
X0207135Y0056272D02*
X0203959Y0056272D01*
X0203959Y0057632D02*
X0207135Y0057632D01*
X0198088Y0053959D02*
X0194912Y0053959D01*
X0194912Y0057135D01*
X0198088Y0057135D01*
X0198088Y0053959D01*
X0198088Y0055319D02*
X0194912Y0055319D01*
X0194912Y0056679D02*
X0198088Y0056679D01*
X0185865Y0058088D02*
X0185865Y0054912D01*
X0185865Y0058088D02*
X0189041Y0058088D01*
X0189041Y0054912D01*
X0185865Y0054912D01*
X0185865Y0056272D02*
X0189041Y0056272D01*
X0189041Y0057632D02*
X0185865Y0057632D01*
X0178959Y0058088D02*
X0178959Y0054912D01*
X0178959Y0058088D02*
X0182135Y0058088D01*
X0182135Y0054912D01*
X0178959Y0054912D01*
X0178959Y0056272D02*
X0182135Y0056272D01*
X0182135Y0057632D02*
X0178959Y0057632D01*
X0182135Y0062412D02*
X0182135Y0065588D01*
X0182135Y0062412D02*
X0178959Y0062412D01*
X0178959Y0065588D01*
X0182135Y0065588D01*
X0182135Y0063772D02*
X0178959Y0063772D01*
X0178959Y0065132D02*
X0182135Y0065132D01*
D23*
X0072937Y0064000D03*
X0065063Y0064000D03*
D24*
X0308150Y0059689D03*
X0359850Y0059689D03*
D25*
X0347780Y0043106D03*
X0337937Y0043106D03*
X0330063Y0043106D03*
X0320220Y0043106D03*
D26*
X0241500Y0042800D03*
X0231500Y0042800D03*
X0221500Y0042800D03*
X0201500Y0042800D03*
X0191500Y0042800D03*
X0181500Y0042800D03*
D27*
X0332228Y0031500D03*
X0335772Y0031500D03*
D28*
X0086500Y0069472D03*
X0086500Y0078528D03*
D29*
X0095437Y0065240D03*
X0087169Y0061500D03*
X0095437Y0057760D03*
D30*
X0061500Y0046500D03*
X0086500Y0044000D03*
X0130250Y0032750D03*
X0104000Y0030250D03*
X0099100Y0030250D03*
X0099000Y0076500D03*
D31*
X0024216Y0024000D03*
X0350988Y0024000D03*
M02*
