G75*
%MOIN*%
%OFA0B0*%
%FSLAX25Y25*%
%IPPOS*%
%LPD*%
%AMOC8*
5,1,8,0,0,1.08239X$1,22.5*
%
%ADD10R,0.06500X0.11201*%
%ADD11R,0.03500X0.01654*%
%ADD12R,0.05787X0.05000*%
%ADD13R,0.04331X0.03937*%
%ADD14R,0.03937X0.04331*%
%ADD15C,0.06500*%
%ADD16R,0.05000X0.05787*%
%ADD17R,0.06500X0.06500*%
%ADD18C,0.17000*%
%ADD19R,0.07400X0.07400*%
%ADD20C,0.07400*%
%ADD21C,0.01181*%
%ADD22C,0.06299*%
%ADD23C,0.13100*%
%ADD24R,0.03543X0.11811*%
%ADD25C,0.07000*%
%ADD26R,0.02500X0.05000*%
%ADD27R,0.03268X0.02480*%
%ADD28R,0.03543X0.03150*%
%ADD29C,0.01000*%
%ADD30C,0.03369*%
%ADD31C,0.21716*%
D10*
X0104000Y0044000D03*
D11*
X0095732Y0042720D03*
X0095732Y0045280D03*
X0095732Y0047839D03*
X0095732Y0050398D03*
X0112268Y0050398D03*
X0112268Y0047839D03*
X0112268Y0045280D03*
X0112268Y0042720D03*
X0112268Y0040161D03*
X0112268Y0037602D03*
X0095732Y0037602D03*
X0095732Y0040161D03*
D12*
X0061500Y0035535D03*
X0061500Y0052465D03*
D13*
X0070654Y0051500D03*
X0077346Y0051500D03*
X0083154Y0051500D03*
X0089846Y0051500D03*
X0089846Y0039000D03*
X0083154Y0039000D03*
X0077346Y0039000D03*
X0070654Y0039000D03*
X0083154Y0026500D03*
X0089846Y0026500D03*
X0118154Y0026500D03*
X0124846Y0026500D03*
X0130654Y0026500D03*
X0137346Y0026500D03*
X0137346Y0039000D03*
X0130654Y0039000D03*
X0124846Y0039000D03*
X0118154Y0039000D03*
X0180654Y0071500D03*
X0187346Y0071500D03*
X0205654Y0071500D03*
X0212346Y0071500D03*
X0240654Y0071500D03*
X0247346Y0071500D03*
X0247346Y0064000D03*
X0240654Y0064000D03*
X0240654Y0056500D03*
X0247346Y0056500D03*
X0315654Y0031500D03*
X0322346Y0031500D03*
D14*
X0296500Y0050654D03*
X0296500Y0057346D03*
X0171500Y0058154D03*
X0171500Y0064846D03*
X0171500Y0073154D03*
X0171500Y0079846D03*
X0104000Y0062346D03*
X0104000Y0055654D03*
D15*
X0131500Y0056650D03*
X0156500Y0041500D03*
X0131500Y0076350D03*
D16*
X0109965Y0076500D03*
X0093035Y0076500D03*
D17*
X0156500Y0031500D03*
D18*
X0036500Y0045063D03*
X0017996Y0056874D03*
X0036500Y0068685D03*
D19*
X0256500Y0059000D03*
X0279000Y0076500D03*
D20*
X0289000Y0076500D03*
X0299000Y0076500D03*
X0266500Y0076500D03*
X0256500Y0076500D03*
X0261500Y0069000D03*
X0231500Y0061500D03*
X0221500Y0061500D03*
X0226500Y0069000D03*
X0286500Y0059000D03*
X0286500Y0049000D03*
X0256500Y0049000D03*
X0256500Y0039000D03*
X0286500Y0039000D03*
X0299000Y0039000D03*
X0306500Y0034000D03*
X0299000Y0029000D03*
X0286500Y0029000D03*
X0256500Y0029000D03*
X0161500Y0059000D03*
X0161500Y0069000D03*
X0161500Y0079000D03*
D21*
X0195122Y0076331D02*
X0197878Y0076331D01*
X0197878Y0073575D01*
X0195122Y0073575D01*
X0195122Y0076331D01*
X0195122Y0074755D02*
X0197878Y0074755D01*
X0197878Y0075935D02*
X0195122Y0075935D01*
X0195122Y0069425D02*
X0197878Y0069425D01*
X0197878Y0066669D01*
X0195122Y0066669D01*
X0195122Y0069425D01*
X0195122Y0067849D02*
X0197878Y0067849D01*
X0197878Y0069029D02*
X0195122Y0069029D01*
X0188831Y0065378D02*
X0188831Y0062622D01*
X0186075Y0062622D01*
X0186075Y0065378D01*
X0188831Y0065378D01*
X0188831Y0063802D02*
X0186075Y0063802D01*
X0186075Y0064982D02*
X0188831Y0064982D01*
X0195122Y0061075D02*
X0197878Y0061075D01*
X0195122Y0061075D02*
X0195122Y0063831D01*
X0197878Y0063831D01*
X0197878Y0061075D01*
X0197878Y0062255D02*
X0195122Y0062255D01*
X0195122Y0063435D02*
X0197878Y0063435D01*
X0204169Y0062622D02*
X0204169Y0065378D01*
X0206925Y0065378D01*
X0206925Y0062622D01*
X0204169Y0062622D01*
X0204169Y0063802D02*
X0206925Y0063802D01*
X0206925Y0064982D02*
X0204169Y0064982D01*
X0211075Y0065378D02*
X0211075Y0062622D01*
X0211075Y0065378D02*
X0213831Y0065378D01*
X0213831Y0062622D01*
X0211075Y0062622D01*
X0211075Y0063802D02*
X0213831Y0063802D01*
X0213831Y0064982D02*
X0211075Y0064982D01*
X0213831Y0057878D02*
X0213831Y0055122D01*
X0211075Y0055122D01*
X0211075Y0057878D01*
X0213831Y0057878D01*
X0213831Y0056302D02*
X0211075Y0056302D01*
X0211075Y0057482D02*
X0213831Y0057482D01*
X0206925Y0057878D02*
X0206925Y0055122D01*
X0204169Y0055122D01*
X0204169Y0057878D01*
X0206925Y0057878D01*
X0206925Y0056302D02*
X0204169Y0056302D01*
X0204169Y0057482D02*
X0206925Y0057482D01*
X0197878Y0054169D02*
X0195122Y0054169D01*
X0195122Y0056925D01*
X0197878Y0056925D01*
X0197878Y0054169D01*
X0197878Y0055349D02*
X0195122Y0055349D01*
X0195122Y0056529D02*
X0197878Y0056529D01*
X0186075Y0057878D02*
X0186075Y0055122D01*
X0186075Y0057878D02*
X0188831Y0057878D01*
X0188831Y0055122D01*
X0186075Y0055122D01*
X0186075Y0056302D02*
X0188831Y0056302D01*
X0188831Y0057482D02*
X0186075Y0057482D01*
X0179169Y0057878D02*
X0179169Y0055122D01*
X0179169Y0057878D02*
X0181925Y0057878D01*
X0181925Y0055122D01*
X0179169Y0055122D01*
X0179169Y0056302D02*
X0181925Y0056302D01*
X0181925Y0057482D02*
X0179169Y0057482D01*
X0181925Y0062622D02*
X0181925Y0065378D01*
X0181925Y0062622D02*
X0179169Y0062622D01*
X0179169Y0065378D01*
X0181925Y0065378D01*
X0181925Y0063802D02*
X0179169Y0063802D01*
X0179169Y0064982D02*
X0181925Y0064982D01*
D22*
X0072937Y0064000D03*
X0065063Y0064000D03*
D23*
X0308150Y0059689D03*
X0359850Y0059689D03*
D24*
X0347780Y0043106D03*
X0337937Y0043106D03*
X0330063Y0043106D03*
X0320220Y0043106D03*
D25*
X0241500Y0042800D03*
X0231500Y0042800D03*
X0221500Y0042800D03*
X0201500Y0042800D03*
X0191500Y0042800D03*
X0181500Y0042800D03*
D26*
X0332228Y0031500D03*
X0335772Y0031500D03*
D27*
X0086500Y0069472D03*
X0086500Y0078528D03*
D28*
X0095437Y0065240D03*
X0087169Y0061500D03*
X0095437Y0057760D03*
D29*
X0021976Y0010944D02*
X0018058Y0012040D01*
X0014553Y0014106D01*
X0011695Y0017001D01*
X0009676Y0020534D01*
X0008632Y0024466D01*
X0008500Y0026500D01*
X0008500Y0051500D01*
X0009831Y0051500D01*
X0009858Y0051436D01*
X0012558Y0048736D01*
X0016086Y0047274D01*
X0019906Y0047274D01*
X0023434Y0048736D01*
X0026135Y0051436D01*
X0026161Y0051500D01*
X0028843Y0051500D01*
X0028332Y0050859D01*
X0027734Y0049908D01*
X0027247Y0048896D01*
X0026876Y0047836D01*
X0026626Y0046741D01*
X0026500Y0045625D01*
X0026500Y0045563D01*
X0036000Y0045563D01*
X0036000Y0044563D01*
X0026500Y0044563D01*
X0026500Y0044501D01*
X0026626Y0043385D01*
X0026876Y0042290D01*
X0027247Y0041230D01*
X0027734Y0040218D01*
X0028332Y0039267D01*
X0029032Y0038389D01*
X0029826Y0037595D01*
X0030704Y0036895D01*
X0031655Y0036297D01*
X0032667Y0035810D01*
X0033727Y0035439D01*
X0034822Y0035189D01*
X0035938Y0035063D01*
X0036000Y0035063D01*
X0036000Y0044563D01*
X0037000Y0044563D01*
X0037000Y0045563D01*
X0046500Y0045563D01*
X0046500Y0045625D01*
X0046374Y0046741D01*
X0046124Y0047836D01*
X0045753Y0048896D01*
X0045266Y0049908D01*
X0044668Y0050859D01*
X0044157Y0051500D01*
X0057506Y0051500D01*
X0057506Y0049509D01*
X0058151Y0048865D01*
X0059933Y0048865D01*
X0059923Y0048860D01*
X0059140Y0048077D01*
X0058716Y0047054D01*
X0058716Y0045946D01*
X0059140Y0044923D01*
X0059923Y0044140D01*
X0060946Y0043716D01*
X0062054Y0043716D01*
X0063077Y0044140D01*
X0063838Y0044900D01*
X0073009Y0044900D01*
X0073946Y0045837D01*
X0076541Y0048431D01*
X0079967Y0048431D01*
X0080067Y0048331D01*
X0080409Y0048134D01*
X0080791Y0048031D01*
X0082669Y0048031D01*
X0082669Y0051016D01*
X0083638Y0051016D01*
X0083638Y0048031D01*
X0085516Y0048031D01*
X0085898Y0048134D01*
X0086240Y0048331D01*
X0086519Y0048610D01*
X0086712Y0048945D01*
X0087225Y0048431D01*
X0088246Y0048431D01*
X0088246Y0046191D01*
X0088077Y0046360D01*
X0087054Y0046784D01*
X0085946Y0046784D01*
X0084923Y0046360D01*
X0084140Y0045577D01*
X0083716Y0044554D01*
X0083716Y0043478D01*
X0082491Y0042254D01*
X0082306Y0042068D01*
X0080533Y0042068D01*
X0080250Y0041786D01*
X0079967Y0042068D01*
X0074725Y0042068D01*
X0074081Y0041424D01*
X0074081Y0037835D01*
X0073919Y0037997D01*
X0073919Y0041424D01*
X0073275Y0042068D01*
X0068033Y0042068D01*
X0067388Y0041424D01*
X0067388Y0036576D01*
X0068033Y0035931D01*
X0071459Y0035931D01*
X0074054Y0033337D01*
X0074991Y0032400D01*
X0076500Y0032400D01*
X0076500Y0023500D01*
X0041501Y0023500D01*
X0040983Y0023652D01*
X0040703Y0023500D01*
X0040384Y0023500D01*
X0040002Y0023118D01*
X0039528Y0022859D01*
X0039438Y0022554D01*
X0039213Y0022328D01*
X0039213Y0021842D01*
X0038593Y0020150D01*
X0036482Y0016673D01*
X0033548Y0013854D01*
X0029989Y0011882D01*
X0026044Y0010890D01*
X0021976Y0010944D01*
X0022642Y0012042D02*
X0025791Y0012042D01*
X0028832Y0012857D01*
X0031559Y0014431D01*
X0033785Y0016657D01*
X0035360Y0019384D01*
X0036175Y0022426D01*
X0036175Y0025574D01*
X0035360Y0028616D01*
X0033785Y0031343D01*
X0031559Y0033569D01*
X0028832Y0035143D01*
X0025791Y0035958D01*
X0022642Y0035958D01*
X0019601Y0035143D01*
X0016874Y0033569D01*
X0014648Y0031343D01*
X0013073Y0028616D01*
X0012258Y0025574D01*
X0012258Y0022426D01*
X0013073Y0019384D01*
X0014648Y0016657D01*
X0016874Y0014431D01*
X0019601Y0012857D01*
X0022642Y0012042D01*
X0020965Y0012491D02*
X0017293Y0012491D01*
X0018505Y0013490D02*
X0015598Y0013490D01*
X0016817Y0014488D02*
X0014175Y0014488D01*
X0013190Y0015487D02*
X0015818Y0015487D01*
X0014820Y0016485D02*
X0012205Y0016485D01*
X0011420Y0017484D02*
X0014171Y0017484D01*
X0013594Y0018482D02*
X0010849Y0018482D01*
X0010278Y0019481D02*
X0013047Y0019481D01*
X0012780Y0020479D02*
X0009708Y0020479D01*
X0009426Y0021478D02*
X0012512Y0021478D01*
X0012258Y0022476D02*
X0009161Y0022476D01*
X0008895Y0023475D02*
X0012258Y0023475D01*
X0012258Y0024473D02*
X0008632Y0024473D01*
X0008567Y0025472D02*
X0012258Y0025472D01*
X0012498Y0026470D02*
X0008502Y0026470D01*
X0008500Y0027469D02*
X0012766Y0027469D01*
X0013033Y0028467D02*
X0008500Y0028467D01*
X0008500Y0029466D02*
X0013564Y0029466D01*
X0014140Y0030464D02*
X0008500Y0030464D01*
X0008500Y0031463D02*
X0014768Y0031463D01*
X0015766Y0032461D02*
X0008500Y0032461D01*
X0008500Y0033460D02*
X0016765Y0033460D01*
X0018414Y0034458D02*
X0008500Y0034458D01*
X0008500Y0035457D02*
X0020771Y0035457D01*
X0027662Y0035457D02*
X0033675Y0035457D01*
X0036000Y0035457D02*
X0037000Y0035457D01*
X0037000Y0035063D02*
X0037062Y0035063D01*
X0038178Y0035189D01*
X0039273Y0035439D01*
X0040333Y0035810D01*
X0041345Y0036297D01*
X0042296Y0036895D01*
X0043174Y0037595D01*
X0043968Y0038389D01*
X0044668Y0039267D01*
X0045266Y0040218D01*
X0045753Y0041230D01*
X0046124Y0042290D01*
X0046374Y0043385D01*
X0046500Y0044501D01*
X0046500Y0044563D01*
X0037000Y0044563D01*
X0037000Y0035063D01*
X0039325Y0035457D02*
X0061000Y0035457D01*
X0061000Y0035035D02*
X0061000Y0036035D01*
X0057106Y0036035D01*
X0057106Y0038233D01*
X0057209Y0038614D01*
X0057406Y0038956D01*
X0057685Y0039236D01*
X0058027Y0039433D01*
X0058409Y0039535D01*
X0061000Y0039535D01*
X0061000Y0036035D01*
X0062000Y0036035D01*
X0065894Y0036035D01*
X0065894Y0038233D01*
X0065791Y0038614D01*
X0065594Y0038956D01*
X0065315Y0039236D01*
X0064973Y0039433D01*
X0064591Y0039535D01*
X0062000Y0039535D01*
X0062000Y0036035D01*
X0062000Y0035035D01*
X0062000Y0031535D01*
X0064591Y0031535D01*
X0064973Y0031638D01*
X0065315Y0031835D01*
X0065594Y0032114D01*
X0065791Y0032456D01*
X0065894Y0032838D01*
X0065894Y0035035D01*
X0062000Y0035035D01*
X0061000Y0035035D01*
X0061000Y0031535D01*
X0058409Y0031535D01*
X0058027Y0031638D01*
X0057685Y0031835D01*
X0057406Y0032114D01*
X0057209Y0032456D01*
X0057106Y0032838D01*
X0057106Y0035035D01*
X0061000Y0035035D01*
X0061000Y0034458D02*
X0062000Y0034458D01*
X0062000Y0033460D02*
X0061000Y0033460D01*
X0061000Y0032461D02*
X0062000Y0032461D01*
X0065793Y0032461D02*
X0074930Y0032461D01*
X0073931Y0033460D02*
X0065894Y0033460D01*
X0065894Y0034458D02*
X0072932Y0034458D01*
X0071934Y0035457D02*
X0062000Y0035457D01*
X0062000Y0036455D02*
X0061000Y0036455D01*
X0061000Y0037454D02*
X0062000Y0037454D01*
X0062000Y0038452D02*
X0061000Y0038452D01*
X0061000Y0039451D02*
X0062000Y0039451D01*
X0064907Y0039451D02*
X0067388Y0039451D01*
X0067388Y0040449D02*
X0045377Y0040449D01*
X0045830Y0041448D02*
X0067412Y0041448D01*
X0070654Y0039000D02*
X0075654Y0034000D01*
X0092130Y0034000D01*
X0095732Y0037602D01*
X0101500Y0037454D02*
X0106500Y0037454D01*
X0106500Y0038452D02*
X0101500Y0038452D01*
X0101500Y0039451D02*
X0106500Y0039451D01*
X0106500Y0040449D02*
X0101500Y0040449D01*
X0101500Y0041448D02*
X0106500Y0041448D01*
X0106500Y0042446D02*
X0101500Y0042446D01*
X0101500Y0043445D02*
X0106500Y0043445D01*
X0106500Y0044443D02*
X0101500Y0044443D01*
X0101500Y0045442D02*
X0106500Y0045442D01*
X0106500Y0046440D02*
X0101500Y0046440D01*
X0101500Y0047439D02*
X0106500Y0047439D01*
X0106500Y0048437D02*
X0101500Y0048437D01*
X0101500Y0049000D02*
X0106500Y0049000D01*
X0106500Y0033250D01*
X0101500Y0033250D01*
X0101500Y0049000D01*
X0099000Y0049000D02*
X0099000Y0046500D01*
X0097780Y0045280D01*
X0095732Y0045280D01*
X0095732Y0047839D02*
X0093508Y0047839D01*
X0089846Y0051500D01*
X0089846Y0039000D01*
X0086500Y0044000D02*
X0083154Y0040654D01*
X0083154Y0039000D01*
X0077346Y0039000D01*
X0074081Y0039451D02*
X0073919Y0039451D01*
X0073919Y0040449D02*
X0074081Y0040449D01*
X0074105Y0041448D02*
X0073895Y0041448D01*
X0082684Y0042446D02*
X0046160Y0042446D01*
X0046381Y0043445D02*
X0083682Y0043445D01*
X0083716Y0044443D02*
X0063381Y0044443D01*
X0059619Y0044443D02*
X0046493Y0044443D01*
X0046408Y0046440D02*
X0058716Y0046440D01*
X0058875Y0047439D02*
X0046215Y0047439D01*
X0045914Y0048437D02*
X0059500Y0048437D01*
X0057579Y0049436D02*
X0045493Y0049436D01*
X0044935Y0050434D02*
X0057506Y0050434D01*
X0057506Y0051433D02*
X0044211Y0051433D01*
X0056500Y0054000D02*
X0056500Y0084500D01*
X0301500Y0084500D01*
X0301500Y0080660D01*
X0299955Y0081300D01*
X0298045Y0081300D01*
X0296281Y0080569D01*
X0294931Y0079219D01*
X0294200Y0077455D01*
X0294200Y0075545D01*
X0294931Y0073781D01*
X0296281Y0072431D01*
X0298045Y0071700D01*
X0299955Y0071700D01*
X0301500Y0072340D01*
X0301500Y0069000D01*
X0287109Y0069000D01*
X0286446Y0069663D01*
X0285509Y0070600D01*
X0266033Y0070600D01*
X0265577Y0071700D01*
X0267455Y0071700D01*
X0269219Y0072431D01*
X0270569Y0073781D01*
X0271033Y0074900D01*
X0274200Y0074900D01*
X0274200Y0072344D01*
X0274844Y0071700D01*
X0283156Y0071700D01*
X0283800Y0072344D01*
X0283800Y0080656D01*
X0283156Y0081300D01*
X0274844Y0081300D01*
X0274200Y0080656D01*
X0274200Y0078100D01*
X0271033Y0078100D01*
X0270569Y0079219D01*
X0269219Y0080569D01*
X0267455Y0081300D01*
X0265545Y0081300D01*
X0263781Y0080569D01*
X0262431Y0079219D01*
X0261700Y0077455D01*
X0261700Y0075545D01*
X0262423Y0073800D01*
X0260577Y0073800D01*
X0261300Y0075545D01*
X0261300Y0077455D01*
X0260569Y0079219D01*
X0259219Y0080569D01*
X0257455Y0081300D01*
X0255545Y0081300D01*
X0253781Y0080569D01*
X0252431Y0079219D01*
X0251700Y0077455D01*
X0251700Y0075545D01*
X0252431Y0073781D01*
X0253648Y0072564D01*
X0251012Y0069928D01*
X0251012Y0071016D01*
X0247831Y0071016D01*
X0247831Y0071984D01*
X0251012Y0071984D01*
X0251012Y0073666D01*
X0250910Y0074047D01*
X0250712Y0074390D01*
X0250433Y0074669D01*
X0250091Y0074866D01*
X0249709Y0074968D01*
X0247831Y0074968D01*
X0247831Y0071984D01*
X0246862Y0071984D01*
X0246862Y0074968D01*
X0244984Y0074968D01*
X0244602Y0074866D01*
X0244260Y0074669D01*
X0243981Y0074390D01*
X0243788Y0074055D01*
X0243275Y0074568D01*
X0238033Y0074568D01*
X0237388Y0073924D01*
X0237388Y0069076D01*
X0237464Y0069000D01*
X0231300Y0069000D01*
X0231300Y0069955D01*
X0230569Y0071719D01*
X0229219Y0073069D01*
X0227455Y0073800D01*
X0225545Y0073800D01*
X0223781Y0073069D01*
X0222431Y0071719D01*
X0221700Y0069955D01*
X0221700Y0069000D01*
X0215922Y0069000D01*
X0216012Y0069334D01*
X0216012Y0071016D01*
X0212831Y0071016D01*
X0212831Y0071984D01*
X0216012Y0071984D01*
X0216012Y0073666D01*
X0215910Y0074047D01*
X0215712Y0074390D01*
X0215433Y0074669D01*
X0215091Y0074866D01*
X0214709Y0074968D01*
X0212831Y0074968D01*
X0212831Y0071984D01*
X0211862Y0071984D01*
X0211862Y0074968D01*
X0209984Y0074968D01*
X0209602Y0074866D01*
X0209260Y0074669D01*
X0208981Y0074390D01*
X0208788Y0074055D01*
X0208275Y0074568D01*
X0203033Y0074568D01*
X0202388Y0073924D01*
X0202388Y0069076D01*
X0202464Y0069000D01*
X0199568Y0069000D01*
X0199568Y0070125D01*
X0198578Y0071116D01*
X0194926Y0071116D01*
X0195694Y0071884D01*
X0198578Y0071884D01*
X0199568Y0072875D01*
X0199568Y0077031D01*
X0198578Y0078021D01*
X0194422Y0078021D01*
X0193431Y0077031D01*
X0193431Y0074147D01*
X0190612Y0071327D01*
X0190612Y0073924D01*
X0189967Y0074568D01*
X0184725Y0074568D01*
X0184212Y0074055D01*
X0184019Y0074390D01*
X0183740Y0074669D01*
X0183398Y0074866D01*
X0183016Y0074968D01*
X0181138Y0074968D01*
X0181138Y0071984D01*
X0180169Y0071984D01*
X0180169Y0071016D01*
X0176988Y0071016D01*
X0176988Y0069334D01*
X0177078Y0069000D01*
X0169609Y0069000D01*
X0170497Y0069888D01*
X0173924Y0069888D01*
X0174568Y0070533D01*
X0174568Y0075775D01*
X0174055Y0076288D01*
X0174390Y0076481D01*
X0174669Y0076760D01*
X0174866Y0077102D01*
X0174968Y0077484D01*
X0174968Y0079362D01*
X0171984Y0079362D01*
X0171984Y0080331D01*
X0171016Y0080331D01*
X0171016Y0083512D01*
X0169334Y0083512D01*
X0168953Y0083410D01*
X0168610Y0083212D01*
X0168331Y0082933D01*
X0168134Y0082591D01*
X0168031Y0082209D01*
X0168031Y0080331D01*
X0171016Y0080331D01*
X0171016Y0079362D01*
X0168031Y0079362D01*
X0168031Y0077484D01*
X0168134Y0077102D01*
X0168331Y0076760D01*
X0168610Y0076481D01*
X0168945Y0076288D01*
X0168431Y0075775D01*
X0168431Y0072348D01*
X0166684Y0070600D01*
X0166033Y0070600D01*
X0165569Y0071719D01*
X0164219Y0073069D01*
X0162455Y0073800D01*
X0160545Y0073800D01*
X0158781Y0073069D01*
X0157431Y0071719D01*
X0156700Y0069955D01*
X0156700Y0069000D01*
X0149000Y0069000D01*
X0149000Y0049000D01*
X0164000Y0049000D01*
X0164000Y0023500D01*
X0140602Y0023500D01*
X0140712Y0023610D01*
X0140910Y0023953D01*
X0141012Y0024334D01*
X0141012Y0026016D01*
X0137831Y0026016D01*
X0137831Y0026984D01*
X0141012Y0026984D01*
X0141012Y0028666D01*
X0140910Y0029047D01*
X0140712Y0029390D01*
X0140433Y0029669D01*
X0140091Y0029866D01*
X0139709Y0029968D01*
X0137831Y0029968D01*
X0137831Y0026984D01*
X0136862Y0026984D01*
X0136862Y0029968D01*
X0134984Y0029968D01*
X0134602Y0029866D01*
X0134260Y0029669D01*
X0133981Y0029390D01*
X0133788Y0029055D01*
X0133275Y0029568D01*
X0131850Y0029568D01*
X0131850Y0030412D01*
X0132610Y0031173D01*
X0133034Y0032196D01*
X0133034Y0033304D01*
X0132610Y0034327D01*
X0131827Y0035110D01*
X0130804Y0035534D01*
X0130169Y0035534D01*
X0130169Y0038516D01*
X0131138Y0038516D01*
X0131138Y0035531D01*
X0133016Y0035531D01*
X0133398Y0035634D01*
X0133740Y0035831D01*
X0134019Y0036110D01*
X0134212Y0036445D01*
X0134725Y0035931D01*
X0139967Y0035931D01*
X0140612Y0036576D01*
X0140612Y0041424D01*
X0139967Y0042068D01*
X0136541Y0042068D01*
X0132667Y0045942D01*
X0131730Y0046880D01*
X0123992Y0046880D01*
X0129771Y0052658D01*
X0130635Y0052300D01*
X0132365Y0052300D01*
X0133964Y0052962D01*
X0135188Y0054186D01*
X0135850Y0055785D01*
X0135850Y0057515D01*
X0135188Y0059114D01*
X0133964Y0060338D01*
X0132365Y0061000D01*
X0130635Y0061000D01*
X0129036Y0060338D01*
X0127812Y0059114D01*
X0127150Y0057515D01*
X0127150Y0055785D01*
X0127508Y0054921D01*
X0119467Y0046880D01*
X0115118Y0046880D01*
X0115118Y0051680D01*
X0114473Y0052324D01*
X0113868Y0052324D01*
X0113868Y0053416D01*
X0132163Y0071711D01*
X0132513Y0072061D01*
X0133964Y0072662D01*
X0135188Y0073886D01*
X0135850Y0075485D01*
X0135850Y0077215D01*
X0135188Y0078814D01*
X0133964Y0080038D01*
X0132365Y0080700D01*
X0130635Y0080700D01*
X0129036Y0080038D01*
X0127812Y0078814D01*
X0127150Y0077215D01*
X0127150Y0075485D01*
X0127812Y0073886D01*
X0128812Y0072886D01*
X0112268Y0056341D01*
X0107068Y0061541D01*
X0107068Y0063152D01*
X0110627Y0066711D01*
X0111565Y0067648D01*
X0111565Y0072506D01*
X0112920Y0072506D01*
X0113565Y0073151D01*
X0113565Y0079849D01*
X0112920Y0080494D01*
X0107009Y0080494D01*
X0106365Y0079849D01*
X0106365Y0073151D01*
X0107009Y0072506D01*
X0108365Y0072506D01*
X0108365Y0068974D01*
X0105003Y0065612D01*
X0101576Y0065612D01*
X0100931Y0064967D01*
X0100931Y0060985D01*
X0100600Y0061316D01*
X0100600Y0069663D01*
X0098100Y0072163D01*
X0097163Y0073100D01*
X0096585Y0073100D01*
X0096635Y0073151D01*
X0096635Y0074900D01*
X0096662Y0074900D01*
X0097423Y0074140D01*
X0098446Y0073716D01*
X0099554Y0073716D01*
X0100577Y0074140D01*
X0101360Y0074923D01*
X0101784Y0075946D01*
X0101784Y0077054D01*
X0101360Y0078077D01*
X0100577Y0078860D01*
X0099554Y0079284D01*
X0098446Y0079284D01*
X0097423Y0078860D01*
X0096662Y0078100D01*
X0096635Y0078100D01*
X0096635Y0079849D01*
X0095991Y0080494D01*
X0090080Y0080494D01*
X0089435Y0079849D01*
X0089435Y0073151D01*
X0089486Y0073100D01*
X0087865Y0073100D01*
X0086928Y0072163D01*
X0086577Y0071813D01*
X0084410Y0071813D01*
X0083766Y0071168D01*
X0083766Y0068997D01*
X0083100Y0069663D01*
X0083100Y0072865D01*
X0086423Y0076187D01*
X0088589Y0076187D01*
X0089234Y0076832D01*
X0089234Y0080223D01*
X0088589Y0080868D01*
X0084410Y0080868D01*
X0083766Y0080223D01*
X0083766Y0078056D01*
X0080837Y0075128D01*
X0079900Y0074190D01*
X0079900Y0068337D01*
X0080837Y0067400D01*
X0083337Y0064900D01*
X0088337Y0064900D01*
X0088662Y0064575D01*
X0087457Y0064575D01*
X0087457Y0061787D01*
X0086882Y0061787D01*
X0086882Y0061213D01*
X0083898Y0061213D01*
X0083898Y0059728D01*
X0084000Y0059346D01*
X0084197Y0059004D01*
X0084477Y0058725D01*
X0084819Y0058527D01*
X0085200Y0058425D01*
X0086882Y0058425D01*
X0086882Y0061213D01*
X0087457Y0061213D01*
X0087457Y0058425D01*
X0089138Y0058425D01*
X0089520Y0058527D01*
X0089862Y0058725D01*
X0090141Y0059004D01*
X0090339Y0059346D01*
X0090441Y0059728D01*
X0090441Y0060493D01*
X0090837Y0060097D01*
X0092565Y0058369D01*
X0092565Y0057697D01*
X0092163Y0058100D01*
X0074991Y0058100D01*
X0071459Y0054568D01*
X0068033Y0054568D01*
X0067464Y0054000D01*
X0065494Y0054000D01*
X0065494Y0055420D01*
X0064849Y0056065D01*
X0058151Y0056065D01*
X0057506Y0055420D01*
X0057506Y0054000D01*
X0056500Y0054000D01*
X0056500Y0054429D02*
X0057506Y0054429D01*
X0057513Y0055427D02*
X0056500Y0055427D01*
X0056500Y0056426D02*
X0073316Y0056426D01*
X0074315Y0057424D02*
X0056500Y0057424D01*
X0056500Y0058423D02*
X0092512Y0058423D01*
X0091513Y0059421D02*
X0090359Y0059421D01*
X0090441Y0060420D02*
X0090514Y0060420D01*
X0091500Y0061697D02*
X0091500Y0064000D01*
X0089000Y0066500D01*
X0084000Y0066500D01*
X0081500Y0069000D01*
X0081500Y0073528D01*
X0086500Y0078528D01*
X0089234Y0078393D02*
X0089435Y0078393D01*
X0089435Y0079391D02*
X0089234Y0079391D01*
X0089067Y0080390D02*
X0089976Y0080390D01*
X0083933Y0080390D02*
X0056500Y0080390D01*
X0056500Y0081388D02*
X0156881Y0081388D01*
X0157053Y0081725D02*
X0156681Y0080996D01*
X0156428Y0080218D01*
X0156314Y0079500D01*
X0161000Y0079500D01*
X0161000Y0084186D01*
X0160282Y0084072D01*
X0159504Y0083819D01*
X0158775Y0083447D01*
X0158112Y0082966D01*
X0157534Y0082388D01*
X0157053Y0081725D01*
X0157533Y0082387D02*
X0056500Y0082387D01*
X0056500Y0083385D02*
X0158689Y0083385D01*
X0161000Y0083385D02*
X0162000Y0083385D01*
X0162000Y0084186D02*
X0162718Y0084072D01*
X0163496Y0083819D01*
X0164225Y0083447D01*
X0164888Y0082966D01*
X0165466Y0082388D01*
X0165947Y0081725D01*
X0166319Y0080996D01*
X0166572Y0080218D01*
X0166686Y0079500D01*
X0162000Y0079500D01*
X0162000Y0078500D01*
X0166686Y0078500D01*
X0166572Y0077782D01*
X0166319Y0077004D01*
X0165947Y0076275D01*
X0165466Y0075612D01*
X0164888Y0075034D01*
X0164225Y0074553D01*
X0163496Y0074181D01*
X0162718Y0073928D01*
X0162000Y0073814D01*
X0162000Y0078500D01*
X0161000Y0078500D01*
X0161000Y0073814D01*
X0160282Y0073928D01*
X0159504Y0074181D01*
X0158775Y0074553D01*
X0158112Y0075034D01*
X0157534Y0075612D01*
X0157053Y0076275D01*
X0156681Y0077004D01*
X0156428Y0077782D01*
X0156314Y0078500D01*
X0161000Y0078500D01*
X0161000Y0079500D01*
X0162000Y0079500D01*
X0162000Y0084186D01*
X0162000Y0082387D02*
X0161000Y0082387D01*
X0161000Y0081388D02*
X0162000Y0081388D01*
X0162000Y0080390D02*
X0161000Y0080390D01*
X0161000Y0079391D02*
X0134610Y0079391D01*
X0135362Y0078393D02*
X0156331Y0078393D01*
X0156554Y0077394D02*
X0135776Y0077394D01*
X0135850Y0076396D02*
X0156991Y0076396D01*
X0157749Y0075397D02*
X0135814Y0075397D01*
X0135400Y0074399D02*
X0159076Y0074399D01*
X0159580Y0073400D02*
X0134702Y0073400D01*
X0133335Y0072402D02*
X0158114Y0072402D01*
X0157300Y0071403D02*
X0131855Y0071403D01*
X0130856Y0070405D02*
X0156886Y0070405D01*
X0156700Y0069406D02*
X0129858Y0069406D01*
X0128859Y0068408D02*
X0149000Y0068408D01*
X0149000Y0067409D02*
X0127861Y0067409D01*
X0126862Y0066411D02*
X0149000Y0066411D01*
X0149000Y0065412D02*
X0125864Y0065412D01*
X0124865Y0064414D02*
X0149000Y0064414D01*
X0149000Y0063415D02*
X0123867Y0063415D01*
X0122868Y0062417D02*
X0149000Y0062417D01*
X0149000Y0061418D02*
X0121870Y0061418D01*
X0120871Y0060420D02*
X0129234Y0060420D01*
X0128119Y0059421D02*
X0119873Y0059421D01*
X0118874Y0058423D02*
X0127526Y0058423D01*
X0127150Y0057424D02*
X0117876Y0057424D01*
X0116877Y0056426D02*
X0127150Y0056426D01*
X0127298Y0055427D02*
X0115879Y0055427D01*
X0114880Y0054429D02*
X0127016Y0054429D01*
X0126017Y0053430D02*
X0113882Y0053430D01*
X0113868Y0052432D02*
X0125019Y0052432D01*
X0124020Y0051433D02*
X0115118Y0051433D01*
X0115118Y0050434D02*
X0123022Y0050434D01*
X0122023Y0049436D02*
X0115118Y0049436D01*
X0115118Y0048437D02*
X0121025Y0048437D01*
X0120026Y0047439D02*
X0115118Y0047439D01*
X0112268Y0047839D02*
X0110161Y0047839D01*
X0109000Y0049000D01*
X0109000Y0051500D01*
X0104846Y0055654D01*
X0104000Y0055654D01*
X0099000Y0060654D01*
X0099000Y0069000D01*
X0096500Y0071500D01*
X0088528Y0071500D01*
X0086500Y0069472D01*
X0083766Y0069406D02*
X0083357Y0069406D01*
X0083100Y0070405D02*
X0083766Y0070405D01*
X0084001Y0071403D02*
X0083100Y0071403D01*
X0083100Y0072402D02*
X0087167Y0072402D01*
X0089435Y0073400D02*
X0083635Y0073400D01*
X0084634Y0074399D02*
X0089435Y0074399D01*
X0089435Y0075397D02*
X0085632Y0075397D01*
X0088798Y0076396D02*
X0089435Y0076396D01*
X0089435Y0077394D02*
X0089234Y0077394D01*
X0093035Y0076500D02*
X0099000Y0076500D01*
X0101557Y0075397D02*
X0106365Y0075397D01*
X0106365Y0074399D02*
X0100836Y0074399D01*
X0097164Y0074399D02*
X0096635Y0074399D01*
X0096635Y0073400D02*
X0106365Y0073400D01*
X0108365Y0072402D02*
X0097861Y0072402D01*
X0098859Y0071403D02*
X0108365Y0071403D01*
X0108365Y0070405D02*
X0099858Y0070405D01*
X0100600Y0069406D02*
X0108365Y0069406D01*
X0107799Y0068408D02*
X0100600Y0068408D01*
X0100600Y0067409D02*
X0106800Y0067409D01*
X0105801Y0066411D02*
X0100600Y0066411D01*
X0100600Y0065412D02*
X0101376Y0065412D01*
X0100931Y0064414D02*
X0100600Y0064414D01*
X0100600Y0063415D02*
X0100931Y0063415D01*
X0100931Y0062417D02*
X0100600Y0062417D01*
X0100600Y0061418D02*
X0100931Y0061418D01*
X0104000Y0062346D02*
X0109965Y0068311D01*
X0109965Y0076500D01*
X0113565Y0076396D02*
X0127150Y0076396D01*
X0127186Y0075397D02*
X0113565Y0075397D01*
X0113565Y0074399D02*
X0127600Y0074399D01*
X0128298Y0073400D02*
X0113565Y0073400D01*
X0111565Y0072402D02*
X0128328Y0072402D01*
X0127329Y0071403D02*
X0111565Y0071403D01*
X0111565Y0070405D02*
X0126331Y0070405D01*
X0125332Y0069406D02*
X0111565Y0069406D01*
X0111565Y0068408D02*
X0124334Y0068408D01*
X0123335Y0067409D02*
X0111325Y0067409D01*
X0110327Y0066411D02*
X0122337Y0066411D01*
X0121338Y0065412D02*
X0109328Y0065412D01*
X0108330Y0064414D02*
X0120340Y0064414D01*
X0119341Y0063415D02*
X0107331Y0063415D01*
X0107068Y0062417D02*
X0118343Y0062417D01*
X0117344Y0061418D02*
X0107191Y0061418D01*
X0108190Y0060420D02*
X0116346Y0060420D01*
X0115347Y0059421D02*
X0109188Y0059421D01*
X0110187Y0058423D02*
X0114349Y0058423D01*
X0113350Y0057424D02*
X0111185Y0057424D01*
X0112184Y0056426D02*
X0112352Y0056426D01*
X0112268Y0054079D02*
X0131500Y0073311D01*
X0131500Y0076350D01*
X0127224Y0077394D02*
X0113565Y0077394D01*
X0113565Y0078393D02*
X0127638Y0078393D01*
X0128389Y0079391D02*
X0113565Y0079391D01*
X0113024Y0080390D02*
X0129886Y0080390D01*
X0133114Y0080390D02*
X0156484Y0080390D01*
X0162000Y0079391D02*
X0171016Y0079391D01*
X0171984Y0079391D02*
X0252603Y0079391D01*
X0252089Y0078393D02*
X0174968Y0078393D01*
X0174945Y0077394D02*
X0193795Y0077394D01*
X0193431Y0076396D02*
X0174242Y0076396D01*
X0174568Y0075397D02*
X0193431Y0075397D01*
X0193431Y0074399D02*
X0190137Y0074399D01*
X0190612Y0073400D02*
X0192685Y0073400D01*
X0191686Y0072402D02*
X0190612Y0072402D01*
X0190612Y0071403D02*
X0190688Y0071403D01*
X0191500Y0069953D02*
X0196500Y0074953D01*
X0199568Y0075397D02*
X0251761Y0075397D01*
X0251700Y0076396D02*
X0199568Y0076396D01*
X0199205Y0077394D02*
X0251700Y0077394D01*
X0256500Y0076500D02*
X0256500Y0073154D01*
X0247346Y0064000D01*
X0250612Y0064414D02*
X0260029Y0064414D01*
X0260545Y0064200D02*
X0262455Y0064200D01*
X0264219Y0064931D01*
X0265569Y0066281D01*
X0265660Y0066500D01*
X0285084Y0066500D01*
X0287473Y0064111D01*
X0287000Y0064186D01*
X0287000Y0059500D01*
X0291686Y0059500D01*
X0291611Y0059973D01*
X0293431Y0058152D01*
X0293431Y0054725D01*
X0294076Y0054081D01*
X0298924Y0054081D01*
X0299568Y0054725D01*
X0299568Y0059967D01*
X0298924Y0060612D01*
X0295497Y0060612D01*
X0289609Y0066500D01*
X0304603Y0066500D01*
X0303817Y0066174D01*
X0301665Y0064022D01*
X0300500Y0061211D01*
X0300500Y0058167D01*
X0301665Y0055356D01*
X0303817Y0053204D01*
X0306628Y0052039D01*
X0309672Y0052039D01*
X0312483Y0053204D01*
X0314635Y0055356D01*
X0315800Y0058167D01*
X0315800Y0061211D01*
X0314635Y0064022D01*
X0312483Y0066174D01*
X0311697Y0066500D01*
X0356303Y0066500D01*
X0355517Y0066174D01*
X0353365Y0064022D01*
X0352200Y0061211D01*
X0352200Y0058167D01*
X0353365Y0055356D01*
X0355517Y0053204D01*
X0358328Y0052039D01*
X0361372Y0052039D01*
X0364183Y0053204D01*
X0366335Y0055356D01*
X0366705Y0056248D01*
X0366705Y0026500D01*
X0366573Y0024466D01*
X0365529Y0020534D01*
X0363510Y0017001D01*
X0360652Y0014106D01*
X0357147Y0012040D01*
X0353229Y0010944D01*
X0349161Y0010890D01*
X0345216Y0011882D01*
X0341657Y0013854D01*
X0338723Y0016673D01*
X0336612Y0020150D01*
X0335992Y0021842D01*
X0335992Y0022328D01*
X0335767Y0022554D01*
X0335677Y0022859D01*
X0335203Y0023118D01*
X0334821Y0023500D01*
X0334502Y0023500D01*
X0334222Y0023652D01*
X0333704Y0023500D01*
X0166500Y0023500D01*
X0166500Y0051500D01*
X0151500Y0051500D01*
X0151500Y0066500D01*
X0157340Y0066500D01*
X0157431Y0066281D01*
X0158781Y0064931D01*
X0160545Y0064200D01*
X0162455Y0064200D01*
X0164219Y0064931D01*
X0165569Y0066281D01*
X0165660Y0066500D01*
X0167584Y0066500D01*
X0168431Y0065652D01*
X0168431Y0062225D01*
X0168945Y0061712D01*
X0168610Y0061519D01*
X0168331Y0061240D01*
X0168134Y0060898D01*
X0168031Y0060516D01*
X0168031Y0058638D01*
X0171016Y0058638D01*
X0171016Y0057669D01*
X0171984Y0057669D01*
X0171984Y0054488D01*
X0173666Y0054488D01*
X0174047Y0054590D01*
X0174390Y0054788D01*
X0174669Y0055067D01*
X0174866Y0055409D01*
X0174968Y0055791D01*
X0174968Y0057669D01*
X0171984Y0057669D01*
X0171984Y0058638D01*
X0174968Y0058638D01*
X0174968Y0060516D01*
X0174866Y0060898D01*
X0174669Y0061240D01*
X0174390Y0061519D01*
X0174055Y0061712D01*
X0174568Y0062225D01*
X0174568Y0066500D01*
X0177901Y0066500D01*
X0177479Y0066078D01*
X0177479Y0061922D01*
X0178469Y0060931D01*
X0178947Y0060931D01*
X0178947Y0059568D01*
X0178469Y0059568D01*
X0177479Y0058578D01*
X0177479Y0054422D01*
X0178469Y0053431D01*
X0182625Y0053431D01*
X0183616Y0054422D01*
X0183616Y0058578D01*
X0182625Y0059568D01*
X0182147Y0059568D01*
X0182147Y0060931D01*
X0182625Y0060931D01*
X0183616Y0061922D01*
X0183616Y0066078D01*
X0183194Y0066500D01*
X0184806Y0066500D01*
X0184384Y0066078D01*
X0184384Y0061922D01*
X0185375Y0060931D01*
X0189531Y0060931D01*
X0189900Y0061301D01*
X0189900Y0061210D01*
X0188259Y0059568D01*
X0185375Y0059568D01*
X0184384Y0058578D01*
X0184384Y0054422D01*
X0185375Y0053431D01*
X0189531Y0053431D01*
X0189900Y0053801D01*
X0189900Y0053337D01*
X0190837Y0052400D01*
X0193337Y0049900D01*
X0214663Y0049900D01*
X0215600Y0050837D01*
X0221463Y0056700D01*
X0222455Y0056700D01*
X0224219Y0057431D01*
X0225569Y0058781D01*
X0226300Y0060545D01*
X0226300Y0062455D01*
X0225577Y0064200D01*
X0227423Y0064200D01*
X0226700Y0062455D01*
X0226700Y0060545D01*
X0227431Y0058781D01*
X0228781Y0057431D01*
X0230545Y0056700D01*
X0232455Y0056700D01*
X0234219Y0057431D01*
X0235569Y0058781D01*
X0235728Y0059163D01*
X0235837Y0059054D01*
X0237388Y0057503D01*
X0237388Y0054076D01*
X0238033Y0053431D01*
X0243275Y0053431D01*
X0243919Y0054076D01*
X0243919Y0058900D01*
X0244081Y0058900D01*
X0244081Y0054076D01*
X0244725Y0053431D01*
X0249806Y0053431D01*
X0249900Y0053337D01*
X0250837Y0052400D01*
X0253112Y0052400D01*
X0252431Y0051719D01*
X0251967Y0050600D01*
X0237037Y0050600D01*
X0236100Y0049663D01*
X0233421Y0046983D01*
X0232415Y0047400D01*
X0230585Y0047400D01*
X0228894Y0046700D01*
X0227600Y0045406D01*
X0226900Y0043715D01*
X0226900Y0041885D01*
X0227600Y0040194D01*
X0228894Y0038900D01*
X0230585Y0038200D01*
X0232415Y0038200D01*
X0234106Y0038900D01*
X0235400Y0040194D01*
X0236100Y0041885D01*
X0236100Y0043715D01*
X0235683Y0044721D01*
X0238363Y0047400D01*
X0239515Y0047400D01*
X0238879Y0047076D01*
X0238243Y0046614D01*
X0237686Y0046057D01*
X0237224Y0045421D01*
X0236866Y0044719D01*
X0236623Y0043971D01*
X0236517Y0043300D01*
X0241000Y0043300D01*
X0241000Y0042300D01*
X0242000Y0042300D01*
X0242000Y0043300D01*
X0246483Y0043300D01*
X0246377Y0043971D01*
X0246134Y0044719D01*
X0245776Y0045421D01*
X0245314Y0046057D01*
X0244757Y0046614D01*
X0244121Y0047076D01*
X0243485Y0047400D01*
X0251967Y0047400D01*
X0252431Y0046281D01*
X0253781Y0044931D01*
X0255545Y0044200D01*
X0257455Y0044200D01*
X0259219Y0044931D01*
X0260569Y0046281D01*
X0261300Y0048045D01*
X0261300Y0049955D01*
X0260569Y0051719D01*
X0259888Y0052400D01*
X0270837Y0052400D01*
X0282164Y0041074D01*
X0281700Y0039955D01*
X0281700Y0038045D01*
X0282431Y0036281D01*
X0283781Y0034931D01*
X0285545Y0034200D01*
X0287455Y0034200D01*
X0289219Y0034931D01*
X0290569Y0036281D01*
X0291300Y0038045D01*
X0291300Y0039955D01*
X0290569Y0041719D01*
X0289219Y0043069D01*
X0287455Y0043800D01*
X0285545Y0043800D01*
X0284426Y0043336D01*
X0273100Y0054663D01*
X0272163Y0055600D01*
X0261300Y0055600D01*
X0261300Y0063156D01*
X0260656Y0063800D01*
X0252344Y0063800D01*
X0251700Y0063156D01*
X0251700Y0062100D01*
X0250612Y0062100D01*
X0250612Y0065003D01*
X0252109Y0066500D01*
X0257340Y0066500D01*
X0257431Y0066281D01*
X0258781Y0064931D01*
X0260545Y0064200D01*
X0261040Y0063415D02*
X0283730Y0063415D01*
X0283775Y0063447D02*
X0283112Y0062966D01*
X0282534Y0062388D01*
X0282053Y0061725D01*
X0281681Y0060996D01*
X0281428Y0060218D01*
X0281314Y0059500D01*
X0286000Y0059500D01*
X0286000Y0064186D01*
X0285282Y0064072D01*
X0284504Y0063819D01*
X0283775Y0063447D01*
X0282563Y0062417D02*
X0261300Y0062417D01*
X0261300Y0061418D02*
X0281896Y0061418D01*
X0281494Y0060420D02*
X0261300Y0060420D01*
X0261300Y0059421D02*
X0286000Y0059421D01*
X0286000Y0059500D02*
X0286000Y0058500D01*
X0287000Y0058500D01*
X0287000Y0059500D01*
X0286000Y0059500D01*
X0286000Y0060420D02*
X0287000Y0060420D01*
X0287000Y0061418D02*
X0286000Y0061418D01*
X0286000Y0062417D02*
X0287000Y0062417D01*
X0287000Y0063415D02*
X0286000Y0063415D01*
X0287170Y0064414D02*
X0262971Y0064414D01*
X0264700Y0065412D02*
X0286172Y0065412D01*
X0285173Y0066411D02*
X0265623Y0066411D01*
X0258300Y0065412D02*
X0251021Y0065412D01*
X0252020Y0066411D02*
X0257377Y0066411D01*
X0261500Y0069000D02*
X0284846Y0069000D01*
X0296500Y0057346D01*
X0299568Y0057424D02*
X0300808Y0057424D01*
X0300500Y0058423D02*
X0299568Y0058423D01*
X0299568Y0059421D02*
X0300500Y0059421D01*
X0300500Y0060420D02*
X0299116Y0060420D01*
X0300586Y0061418D02*
X0294691Y0061418D01*
X0293693Y0062417D02*
X0301000Y0062417D01*
X0301413Y0063415D02*
X0292694Y0063415D01*
X0291696Y0064414D02*
X0302056Y0064414D01*
X0303054Y0065412D02*
X0290697Y0065412D01*
X0289698Y0066411D02*
X0304387Y0066411D01*
X0311913Y0066411D02*
X0356087Y0066411D01*
X0354754Y0065412D02*
X0313246Y0065412D01*
X0314244Y0064414D02*
X0353756Y0064414D01*
X0353113Y0063415D02*
X0314887Y0063415D01*
X0315300Y0062417D02*
X0352700Y0062417D01*
X0352286Y0061418D02*
X0315714Y0061418D01*
X0315800Y0060420D02*
X0352200Y0060420D01*
X0352200Y0059421D02*
X0315800Y0059421D01*
X0315800Y0058423D02*
X0352200Y0058423D01*
X0352508Y0057424D02*
X0315492Y0057424D01*
X0315079Y0056426D02*
X0352921Y0056426D01*
X0353335Y0055427D02*
X0314665Y0055427D01*
X0313708Y0054429D02*
X0354292Y0054429D01*
X0355290Y0053430D02*
X0312710Y0053430D01*
X0310619Y0052432D02*
X0315169Y0052432D01*
X0314900Y0052163D02*
X0308337Y0045600D01*
X0295837Y0045600D01*
X0294900Y0044663D01*
X0292400Y0042163D01*
X0292400Y0037163D01*
X0288574Y0033336D01*
X0287455Y0033800D01*
X0285545Y0033800D01*
X0283781Y0033069D01*
X0282431Y0031719D01*
X0281700Y0029955D01*
X0281700Y0028045D01*
X0282431Y0026281D01*
X0283781Y0024931D01*
X0285545Y0024200D01*
X0287455Y0024200D01*
X0289219Y0024931D01*
X0290569Y0026281D01*
X0291300Y0028045D01*
X0291300Y0029955D01*
X0290836Y0031074D01*
X0294663Y0034900D01*
X0295487Y0035725D01*
X0296281Y0034931D01*
X0298045Y0034200D01*
X0299955Y0034200D01*
X0301700Y0034923D01*
X0301700Y0033077D01*
X0299955Y0033800D01*
X0298045Y0033800D01*
X0296281Y0033069D01*
X0294931Y0031719D01*
X0294200Y0029955D01*
X0294200Y0028045D01*
X0294931Y0026281D01*
X0296281Y0024931D01*
X0298045Y0024200D01*
X0299955Y0024200D01*
X0301719Y0024931D01*
X0303069Y0026281D01*
X0303800Y0028045D01*
X0303800Y0029923D01*
X0305545Y0029200D01*
X0307455Y0029200D01*
X0309145Y0029900D01*
X0312388Y0029900D01*
X0312388Y0029076D01*
X0313033Y0028431D01*
X0318275Y0028431D01*
X0318919Y0029076D01*
X0318919Y0033924D01*
X0318275Y0034568D01*
X0313033Y0034568D01*
X0312388Y0033924D01*
X0312388Y0033100D01*
X0311300Y0033100D01*
X0311300Y0034955D01*
X0310569Y0036719D01*
X0309888Y0037400D01*
X0316777Y0037400D01*
X0317349Y0037972D01*
X0317349Y0036745D01*
X0317993Y0036101D01*
X0322448Y0036101D01*
X0323092Y0036745D01*
X0323092Y0049467D01*
X0322660Y0049900D01*
X0323337Y0049900D01*
X0324900Y0048337D01*
X0324900Y0036316D01*
X0323152Y0034568D01*
X0319725Y0034568D01*
X0319081Y0033924D01*
X0319081Y0029076D01*
X0319725Y0028431D01*
X0324967Y0028431D01*
X0325612Y0029076D01*
X0325612Y0032503D01*
X0328100Y0034991D01*
X0328100Y0036101D01*
X0328463Y0036101D01*
X0328463Y0033003D01*
X0329400Y0032065D01*
X0329878Y0031587D01*
X0329878Y0028544D01*
X0330523Y0027900D01*
X0333934Y0027900D01*
X0334000Y0027966D01*
X0334066Y0027900D01*
X0337477Y0027900D01*
X0338122Y0028544D01*
X0338122Y0031587D01*
X0338600Y0032065D01*
X0339537Y0033003D01*
X0339537Y0036101D01*
X0340164Y0036101D01*
X0340809Y0036745D01*
X0340809Y0049467D01*
X0340164Y0050112D01*
X0335710Y0050112D01*
X0335065Y0049467D01*
X0335065Y0036745D01*
X0335710Y0036101D01*
X0336337Y0036101D01*
X0336337Y0035100D01*
X0334066Y0035100D01*
X0334000Y0035034D01*
X0333934Y0035100D01*
X0331663Y0035100D01*
X0331663Y0036101D01*
X0332290Y0036101D01*
X0332935Y0036745D01*
X0332935Y0049467D01*
X0332290Y0050112D01*
X0327836Y0050112D01*
X0327743Y0050019D01*
X0324663Y0053100D01*
X0315837Y0053100D01*
X0314900Y0052163D01*
X0314170Y0051433D02*
X0299568Y0051433D01*
X0299568Y0050434D02*
X0313172Y0050434D01*
X0312173Y0049436D02*
X0299568Y0049436D01*
X0299568Y0048437D02*
X0311175Y0048437D01*
X0310176Y0047439D02*
X0298975Y0047439D01*
X0298924Y0047388D02*
X0299568Y0048033D01*
X0299568Y0053275D01*
X0298924Y0053919D01*
X0294076Y0053919D01*
X0293431Y0053275D01*
X0293431Y0052254D01*
X0290035Y0052254D01*
X0289219Y0053069D01*
X0287455Y0053800D01*
X0285545Y0053800D01*
X0283781Y0053069D01*
X0282431Y0051719D01*
X0281700Y0049955D01*
X0281700Y0048045D01*
X0282431Y0046281D01*
X0283781Y0044931D01*
X0285545Y0044200D01*
X0287455Y0044200D01*
X0289219Y0044931D01*
X0290569Y0046281D01*
X0291300Y0048045D01*
X0291300Y0049054D01*
X0293431Y0049054D01*
X0293431Y0048033D01*
X0294076Y0047388D01*
X0298924Y0047388D01*
X0294025Y0047439D02*
X0291049Y0047439D01*
X0291300Y0048437D02*
X0293431Y0048437D01*
X0290635Y0046440D02*
X0309178Y0046440D01*
X0309000Y0044000D02*
X0316500Y0051500D01*
X0324000Y0051500D01*
X0326500Y0049000D01*
X0326500Y0035654D01*
X0322346Y0031500D01*
X0319081Y0031463D02*
X0318919Y0031463D01*
X0318919Y0032461D02*
X0319081Y0032461D01*
X0319081Y0033460D02*
X0318919Y0033460D01*
X0318385Y0034458D02*
X0319615Y0034458D01*
X0312922Y0034458D02*
X0311300Y0034458D01*
X0311300Y0033460D02*
X0312388Y0033460D01*
X0311092Y0035457D02*
X0324041Y0035457D01*
X0324900Y0036455D02*
X0322802Y0036455D01*
X0323092Y0037454D02*
X0324900Y0037454D01*
X0324900Y0038452D02*
X0323092Y0038452D01*
X0323092Y0039451D02*
X0324900Y0039451D01*
X0324900Y0040449D02*
X0323092Y0040449D01*
X0323092Y0041448D02*
X0324900Y0041448D01*
X0324900Y0042446D02*
X0323092Y0042446D01*
X0323092Y0043445D02*
X0324900Y0043445D01*
X0324900Y0044443D02*
X0323092Y0044443D01*
X0323092Y0045442D02*
X0324900Y0045442D01*
X0324900Y0046440D02*
X0323092Y0046440D01*
X0323092Y0047439D02*
X0324900Y0047439D01*
X0324800Y0048437D02*
X0323092Y0048437D01*
X0323092Y0049436D02*
X0323801Y0049436D01*
X0327328Y0050434D02*
X0345522Y0050434D01*
X0345429Y0050410D02*
X0345087Y0050212D01*
X0344808Y0049933D01*
X0344610Y0049591D01*
X0344508Y0049209D01*
X0344508Y0043492D01*
X0347394Y0043492D01*
X0347394Y0050512D01*
X0345810Y0050512D01*
X0345429Y0050410D01*
X0344569Y0049436D02*
X0340809Y0049436D01*
X0340809Y0048437D02*
X0344508Y0048437D01*
X0344508Y0047439D02*
X0340809Y0047439D01*
X0340809Y0046440D02*
X0344508Y0046440D01*
X0344508Y0045442D02*
X0340809Y0045442D01*
X0340809Y0044443D02*
X0344508Y0044443D01*
X0344508Y0042720D02*
X0344508Y0037003D01*
X0344610Y0036622D01*
X0344808Y0036280D01*
X0345087Y0036000D01*
X0345429Y0035803D01*
X0345810Y0035701D01*
X0347394Y0035701D01*
X0347394Y0042720D01*
X0348165Y0042720D01*
X0348165Y0035701D01*
X0348453Y0035701D01*
X0346373Y0035143D01*
X0343646Y0033569D01*
X0341420Y0031343D01*
X0339845Y0028616D01*
X0339030Y0025574D01*
X0339030Y0022426D01*
X0339845Y0019384D01*
X0341420Y0016657D01*
X0343646Y0014431D01*
X0346373Y0012857D01*
X0349414Y0012042D01*
X0352563Y0012042D01*
X0355604Y0012857D01*
X0358331Y0014431D01*
X0360557Y0016657D01*
X0362132Y0019384D01*
X0362947Y0022426D01*
X0362947Y0025574D01*
X0362132Y0028616D01*
X0360557Y0031343D01*
X0358331Y0033569D01*
X0355604Y0035143D01*
X0352563Y0035958D01*
X0350399Y0035958D01*
X0350472Y0036000D01*
X0350751Y0036280D01*
X0350949Y0036622D01*
X0351051Y0037003D01*
X0351051Y0042720D01*
X0348165Y0042720D01*
X0348165Y0043492D01*
X0347394Y0043492D01*
X0347394Y0042720D01*
X0344508Y0042720D01*
X0344508Y0042446D02*
X0340809Y0042446D01*
X0340809Y0041448D02*
X0344508Y0041448D01*
X0344508Y0040449D02*
X0340809Y0040449D01*
X0340809Y0039451D02*
X0344508Y0039451D01*
X0344508Y0038452D02*
X0340809Y0038452D01*
X0340809Y0037454D02*
X0344508Y0037454D01*
X0344706Y0036455D02*
X0340519Y0036455D01*
X0339537Y0035457D02*
X0347543Y0035457D01*
X0347394Y0036455D02*
X0348165Y0036455D01*
X0348165Y0037454D02*
X0347394Y0037454D01*
X0347394Y0038452D02*
X0348165Y0038452D01*
X0348165Y0039451D02*
X0347394Y0039451D01*
X0347394Y0040449D02*
X0348165Y0040449D01*
X0348165Y0041448D02*
X0347394Y0041448D01*
X0347394Y0042446D02*
X0348165Y0042446D01*
X0348165Y0043445D02*
X0366705Y0043445D01*
X0366705Y0044443D02*
X0351051Y0044443D01*
X0351051Y0043492D02*
X0348165Y0043492D01*
X0348165Y0050512D01*
X0349749Y0050512D01*
X0350130Y0050410D01*
X0350472Y0050212D01*
X0350751Y0049933D01*
X0350949Y0049591D01*
X0351051Y0049209D01*
X0351051Y0043492D01*
X0351051Y0042446D02*
X0366705Y0042446D01*
X0366705Y0041448D02*
X0351051Y0041448D01*
X0351051Y0040449D02*
X0366705Y0040449D01*
X0366705Y0039451D02*
X0351051Y0039451D01*
X0351051Y0038452D02*
X0366705Y0038452D01*
X0366705Y0037454D02*
X0351051Y0037454D01*
X0350853Y0036455D02*
X0366705Y0036455D01*
X0366705Y0035457D02*
X0354434Y0035457D01*
X0356791Y0034458D02*
X0366705Y0034458D01*
X0366705Y0033460D02*
X0358440Y0033460D01*
X0359439Y0032461D02*
X0366705Y0032461D01*
X0366705Y0031463D02*
X0360437Y0031463D01*
X0361065Y0030464D02*
X0366705Y0030464D01*
X0366705Y0029466D02*
X0361641Y0029466D01*
X0362172Y0028467D02*
X0366705Y0028467D01*
X0366705Y0027469D02*
X0362439Y0027469D01*
X0362707Y0026470D02*
X0366703Y0026470D01*
X0366638Y0025472D02*
X0362947Y0025472D01*
X0362947Y0024473D02*
X0366573Y0024473D01*
X0366310Y0023475D02*
X0362947Y0023475D01*
X0362947Y0022476D02*
X0366044Y0022476D01*
X0365779Y0021478D02*
X0362693Y0021478D01*
X0362425Y0020479D02*
X0365497Y0020479D01*
X0364927Y0019481D02*
X0362158Y0019481D01*
X0361611Y0018482D02*
X0364356Y0018482D01*
X0363785Y0017484D02*
X0361034Y0017484D01*
X0360385Y0016485D02*
X0363000Y0016485D01*
X0362015Y0015487D02*
X0359387Y0015487D01*
X0358388Y0014488D02*
X0361030Y0014488D01*
X0359607Y0013490D02*
X0356700Y0013490D01*
X0357912Y0012491D02*
X0354240Y0012491D01*
X0355189Y0011493D02*
X0346765Y0011493D01*
X0347737Y0012491D02*
X0344116Y0012491D01*
X0345216Y0011882D02*
X0345216Y0011882D01*
X0345277Y0013490D02*
X0342314Y0013490D01*
X0343589Y0014488D02*
X0340997Y0014488D01*
X0339958Y0015487D02*
X0342590Y0015487D01*
X0341592Y0016485D02*
X0338919Y0016485D01*
X0338231Y0017484D02*
X0340943Y0017484D01*
X0340366Y0018482D02*
X0337625Y0018482D01*
X0337018Y0019481D02*
X0339819Y0019481D01*
X0339552Y0020479D02*
X0336491Y0020479D01*
X0336126Y0021478D02*
X0339284Y0021478D01*
X0339030Y0022476D02*
X0335844Y0022476D01*
X0334846Y0023475D02*
X0339030Y0023475D01*
X0339030Y0024473D02*
X0300614Y0024473D01*
X0302260Y0025472D02*
X0339030Y0025472D01*
X0339270Y0026470D02*
X0303148Y0026470D01*
X0303561Y0027469D02*
X0339538Y0027469D01*
X0339805Y0028467D02*
X0338045Y0028467D01*
X0338122Y0029466D02*
X0340336Y0029466D01*
X0340912Y0030464D02*
X0338122Y0030464D01*
X0338122Y0031463D02*
X0341540Y0031463D01*
X0342538Y0032461D02*
X0338996Y0032461D01*
X0339537Y0033460D02*
X0343537Y0033460D01*
X0345186Y0034458D02*
X0339537Y0034458D01*
X0337937Y0033665D02*
X0337937Y0043106D01*
X0335065Y0043445D02*
X0332935Y0043445D01*
X0332935Y0044443D02*
X0335065Y0044443D01*
X0335065Y0045442D02*
X0332935Y0045442D01*
X0332935Y0046440D02*
X0335065Y0046440D01*
X0335065Y0047439D02*
X0332935Y0047439D01*
X0332935Y0048437D02*
X0335065Y0048437D01*
X0335065Y0049436D02*
X0332935Y0049436D01*
X0326330Y0051433D02*
X0366705Y0051433D01*
X0366705Y0050434D02*
X0350037Y0050434D01*
X0350990Y0049436D02*
X0366705Y0049436D01*
X0366705Y0048437D02*
X0351051Y0048437D01*
X0351051Y0047439D02*
X0366705Y0047439D01*
X0366705Y0046440D02*
X0351051Y0046440D01*
X0351051Y0045442D02*
X0366705Y0045442D01*
X0348165Y0045442D02*
X0347394Y0045442D01*
X0347394Y0046440D02*
X0348165Y0046440D01*
X0348165Y0047439D02*
X0347394Y0047439D01*
X0347394Y0048437D02*
X0348165Y0048437D01*
X0348165Y0049436D02*
X0347394Y0049436D01*
X0347394Y0050434D02*
X0348165Y0050434D01*
X0357381Y0052432D02*
X0325331Y0052432D01*
X0305681Y0052432D02*
X0299568Y0052432D01*
X0299413Y0053430D02*
X0303590Y0053430D01*
X0302592Y0054429D02*
X0299272Y0054429D01*
X0299568Y0055427D02*
X0301635Y0055427D01*
X0301221Y0056426D02*
X0299568Y0056426D01*
X0293431Y0056426D02*
X0291024Y0056426D01*
X0290947Y0056275D02*
X0291319Y0057004D01*
X0291572Y0057782D01*
X0291686Y0058500D01*
X0287000Y0058500D01*
X0287000Y0053814D01*
X0287718Y0053928D01*
X0288496Y0054181D01*
X0289225Y0054553D01*
X0289888Y0055034D01*
X0290466Y0055612D01*
X0290947Y0056275D01*
X0290281Y0055427D02*
X0293431Y0055427D01*
X0293728Y0054429D02*
X0288982Y0054429D01*
X0288348Y0053430D02*
X0293587Y0053430D01*
X0293431Y0052432D02*
X0289857Y0052432D01*
X0286000Y0053814D02*
X0286000Y0058500D01*
X0281314Y0058500D01*
X0281428Y0057782D01*
X0281681Y0057004D01*
X0282053Y0056275D01*
X0282534Y0055612D01*
X0283112Y0055034D01*
X0283775Y0054553D01*
X0284504Y0054181D01*
X0285282Y0053928D01*
X0286000Y0053814D01*
X0286000Y0054429D02*
X0287000Y0054429D01*
X0287000Y0055427D02*
X0286000Y0055427D01*
X0286000Y0056426D02*
X0287000Y0056426D01*
X0287000Y0057424D02*
X0286000Y0057424D01*
X0286000Y0058423D02*
X0287000Y0058423D01*
X0287000Y0059421D02*
X0292163Y0059421D01*
X0291673Y0058423D02*
X0293161Y0058423D01*
X0293431Y0057424D02*
X0291456Y0057424D01*
X0282719Y0055427D02*
X0272336Y0055427D01*
X0273334Y0054429D02*
X0284018Y0054429D01*
X0284652Y0053430D02*
X0274333Y0053430D01*
X0275331Y0052432D02*
X0283143Y0052432D01*
X0282312Y0051433D02*
X0276330Y0051433D01*
X0277328Y0050434D02*
X0281899Y0050434D01*
X0281700Y0049436D02*
X0278327Y0049436D01*
X0279325Y0048437D02*
X0281700Y0048437D01*
X0281951Y0047439D02*
X0280324Y0047439D01*
X0281322Y0046440D02*
X0282365Y0046440D01*
X0282321Y0045442D02*
X0283270Y0045442D01*
X0283319Y0044443D02*
X0284958Y0044443D01*
X0284688Y0043445D02*
X0284318Y0043445D01*
X0280791Y0042446D02*
X0259842Y0042446D01*
X0259219Y0043069D02*
X0260569Y0041719D01*
X0261300Y0039955D01*
X0261300Y0038045D01*
X0260569Y0036281D01*
X0259219Y0034931D01*
X0257455Y0034200D01*
X0255545Y0034200D01*
X0254426Y0034664D01*
X0253100Y0033337D01*
X0252163Y0032400D01*
X0199637Y0032400D01*
X0193421Y0038617D01*
X0192415Y0038200D01*
X0190585Y0038200D01*
X0188894Y0038900D01*
X0187600Y0040194D01*
X0186900Y0041885D01*
X0186900Y0043715D01*
X0187600Y0045406D01*
X0188894Y0046700D01*
X0190585Y0047400D01*
X0192415Y0047400D01*
X0194106Y0046700D01*
X0195400Y0045406D01*
X0196100Y0043715D01*
X0196100Y0041885D01*
X0195683Y0040879D01*
X0200963Y0035600D01*
X0250837Y0035600D01*
X0252164Y0036926D01*
X0251700Y0038045D01*
X0251700Y0039955D01*
X0252431Y0041719D01*
X0253781Y0043069D01*
X0255545Y0043800D01*
X0257455Y0043800D01*
X0259219Y0043069D01*
X0258312Y0043445D02*
X0279792Y0043445D01*
X0278794Y0044443D02*
X0258042Y0044443D01*
X0259730Y0045442D02*
X0277795Y0045442D01*
X0276797Y0046440D02*
X0260635Y0046440D01*
X0261049Y0047439D02*
X0275798Y0047439D01*
X0274800Y0048437D02*
X0261300Y0048437D01*
X0261300Y0049436D02*
X0273801Y0049436D01*
X0272803Y0050434D02*
X0261101Y0050434D01*
X0260688Y0051433D02*
X0271804Y0051433D01*
X0271500Y0054000D02*
X0251500Y0054000D01*
X0249000Y0056500D01*
X0247346Y0056500D01*
X0244081Y0056426D02*
X0243919Y0056426D01*
X0243919Y0057424D02*
X0244081Y0057424D01*
X0244081Y0058423D02*
X0243919Y0058423D01*
X0244154Y0060500D02*
X0240654Y0064000D01*
X0240654Y0071500D01*
X0237388Y0071403D02*
X0230700Y0071403D01*
X0231114Y0070405D02*
X0237388Y0070405D01*
X0237388Y0069406D02*
X0231300Y0069406D01*
X0229000Y0066500D02*
X0226500Y0069000D01*
X0221700Y0069406D02*
X0216012Y0069406D01*
X0216012Y0070405D02*
X0221886Y0070405D01*
X0222300Y0071403D02*
X0212831Y0071403D01*
X0212831Y0072402D02*
X0211862Y0072402D01*
X0211862Y0073400D02*
X0212831Y0073400D01*
X0212831Y0074399D02*
X0211862Y0074399D01*
X0208990Y0074399D02*
X0208444Y0074399D01*
X0202863Y0074399D02*
X0199568Y0074399D01*
X0199568Y0073400D02*
X0202388Y0073400D01*
X0202388Y0072402D02*
X0199096Y0072402D01*
X0202388Y0071403D02*
X0195213Y0071403D01*
X0191500Y0069953D02*
X0191500Y0060547D01*
X0187453Y0056500D01*
X0184384Y0056426D02*
X0183616Y0056426D01*
X0183616Y0057424D02*
X0184384Y0057424D01*
X0184384Y0058423D02*
X0183616Y0058423D01*
X0182773Y0059421D02*
X0185227Y0059421D01*
X0182147Y0060420D02*
X0189110Y0060420D01*
X0184888Y0061418D02*
X0183112Y0061418D01*
X0183616Y0062417D02*
X0184384Y0062417D01*
X0184384Y0063415D02*
X0183616Y0063415D01*
X0183616Y0064414D02*
X0184384Y0064414D01*
X0184384Y0065412D02*
X0183616Y0065412D01*
X0183283Y0066411D02*
X0184717Y0066411D01*
X0187346Y0064106D02*
X0187346Y0071500D01*
X0181138Y0072402D02*
X0180169Y0072402D01*
X0180169Y0071984D02*
X0180169Y0074968D01*
X0178291Y0074968D01*
X0177909Y0074866D01*
X0177567Y0074669D01*
X0177288Y0074390D01*
X0177090Y0074047D01*
X0176988Y0073666D01*
X0176988Y0071984D01*
X0180169Y0071984D01*
X0180169Y0071403D02*
X0174568Y0071403D01*
X0174568Y0072402D02*
X0176988Y0072402D01*
X0176988Y0073400D02*
X0174568Y0073400D01*
X0174568Y0074399D02*
X0177297Y0074399D01*
X0180169Y0074399D02*
X0181138Y0074399D01*
X0181138Y0073400D02*
X0180169Y0073400D01*
X0184010Y0074399D02*
X0184556Y0074399D01*
X0171500Y0073154D02*
X0167346Y0069000D01*
X0161500Y0069000D01*
X0167346Y0069000D02*
X0171500Y0064846D01*
X0174568Y0064414D02*
X0177479Y0064414D01*
X0177479Y0065412D02*
X0174568Y0065412D01*
X0174568Y0066411D02*
X0177811Y0066411D01*
X0180547Y0064000D02*
X0180547Y0056500D01*
X0177479Y0056426D02*
X0174968Y0056426D01*
X0174968Y0057424D02*
X0177479Y0057424D01*
X0177479Y0058423D02*
X0171984Y0058423D01*
X0171016Y0058423D02*
X0166673Y0058423D01*
X0166686Y0058500D02*
X0162000Y0058500D01*
X0162000Y0059500D01*
X0166686Y0059500D01*
X0166572Y0060218D01*
X0166319Y0060996D01*
X0165947Y0061725D01*
X0165466Y0062388D01*
X0164888Y0062966D01*
X0164225Y0063447D01*
X0163496Y0063819D01*
X0162718Y0064072D01*
X0162000Y0064186D01*
X0162000Y0059500D01*
X0161000Y0059500D01*
X0161000Y0064186D01*
X0160282Y0064072D01*
X0159504Y0063819D01*
X0158775Y0063447D01*
X0158112Y0062966D01*
X0157534Y0062388D01*
X0157053Y0061725D01*
X0156681Y0060996D01*
X0156428Y0060218D01*
X0156314Y0059500D01*
X0161000Y0059500D01*
X0161000Y0058500D01*
X0162000Y0058500D01*
X0162000Y0053814D01*
X0162718Y0053928D01*
X0163496Y0054181D01*
X0164225Y0054553D01*
X0164888Y0055034D01*
X0165466Y0055612D01*
X0165947Y0056275D01*
X0166319Y0057004D01*
X0166572Y0057782D01*
X0166686Y0058500D01*
X0166456Y0057424D02*
X0168031Y0057424D01*
X0168031Y0057669D02*
X0168031Y0055791D01*
X0168134Y0055409D01*
X0168331Y0055067D01*
X0168610Y0054788D01*
X0168953Y0054590D01*
X0169334Y0054488D01*
X0171016Y0054488D01*
X0171016Y0057669D01*
X0168031Y0057669D01*
X0168031Y0056426D02*
X0166024Y0056426D01*
X0165281Y0055427D02*
X0168129Y0055427D01*
X0171016Y0055427D02*
X0171984Y0055427D01*
X0171984Y0056426D02*
X0171016Y0056426D01*
X0171016Y0057424D02*
X0171984Y0057424D01*
X0174871Y0055427D02*
X0177479Y0055427D01*
X0177479Y0054429D02*
X0163982Y0054429D01*
X0162000Y0054429D02*
X0161000Y0054429D01*
X0161000Y0053814D02*
X0161000Y0058500D01*
X0156314Y0058500D01*
X0156428Y0057782D01*
X0156681Y0057004D01*
X0157053Y0056275D01*
X0157534Y0055612D01*
X0158112Y0055034D01*
X0158775Y0054553D01*
X0159504Y0054181D01*
X0160282Y0053928D01*
X0161000Y0053814D01*
X0159018Y0054429D02*
X0151500Y0054429D01*
X0151500Y0055427D02*
X0157719Y0055427D01*
X0156976Y0056426D02*
X0151500Y0056426D01*
X0151500Y0057424D02*
X0156544Y0057424D01*
X0156327Y0058423D02*
X0151500Y0058423D01*
X0151500Y0059421D02*
X0161000Y0059421D01*
X0161000Y0058423D02*
X0162000Y0058423D01*
X0162000Y0059421D02*
X0168031Y0059421D01*
X0168031Y0060420D02*
X0166506Y0060420D01*
X0166104Y0061418D02*
X0168509Y0061418D01*
X0168431Y0062417D02*
X0165437Y0062417D01*
X0164270Y0063415D02*
X0168431Y0063415D01*
X0168431Y0064414D02*
X0162971Y0064414D01*
X0162000Y0063415D02*
X0161000Y0063415D01*
X0161000Y0062417D02*
X0162000Y0062417D01*
X0162000Y0061418D02*
X0161000Y0061418D01*
X0161000Y0060420D02*
X0162000Y0060420D01*
X0156896Y0061418D02*
X0151500Y0061418D01*
X0151500Y0060420D02*
X0156494Y0060420D01*
X0157563Y0062417D02*
X0151500Y0062417D01*
X0151500Y0063415D02*
X0158730Y0063415D01*
X0160029Y0064414D02*
X0151500Y0064414D01*
X0151500Y0065412D02*
X0158300Y0065412D01*
X0157377Y0066411D02*
X0151500Y0066411D01*
X0164700Y0065412D02*
X0168431Y0065412D01*
X0167673Y0066411D02*
X0165623Y0066411D01*
X0170015Y0069406D02*
X0176988Y0069406D01*
X0176988Y0070405D02*
X0174441Y0070405D01*
X0167487Y0071403D02*
X0165700Y0071403D01*
X0164886Y0072402D02*
X0168431Y0072402D01*
X0168431Y0073400D02*
X0163420Y0073400D01*
X0163924Y0074399D02*
X0168431Y0074399D01*
X0168431Y0075397D02*
X0165251Y0075397D01*
X0166009Y0076396D02*
X0168758Y0076396D01*
X0168055Y0077394D02*
X0166446Y0077394D01*
X0166669Y0078393D02*
X0168031Y0078393D01*
X0168031Y0080390D02*
X0166516Y0080390D01*
X0166119Y0081388D02*
X0168031Y0081388D01*
X0168079Y0082387D02*
X0165467Y0082387D01*
X0164311Y0083385D02*
X0168911Y0083385D01*
X0171016Y0083385D02*
X0171984Y0083385D01*
X0171984Y0083512D02*
X0171984Y0080331D01*
X0174968Y0080331D01*
X0174968Y0082209D01*
X0174866Y0082591D01*
X0174669Y0082933D01*
X0174390Y0083212D01*
X0174047Y0083410D01*
X0173666Y0083512D01*
X0171984Y0083512D01*
X0171984Y0082387D02*
X0171016Y0082387D01*
X0171016Y0081388D02*
X0171984Y0081388D01*
X0171984Y0080390D02*
X0171016Y0080390D01*
X0174968Y0080390D02*
X0253602Y0080390D01*
X0259398Y0080390D02*
X0263602Y0080390D01*
X0262603Y0079391D02*
X0260397Y0079391D01*
X0260911Y0078393D02*
X0262089Y0078393D01*
X0261700Y0077394D02*
X0261300Y0077394D01*
X0261300Y0076396D02*
X0261700Y0076396D01*
X0261761Y0075397D02*
X0261239Y0075397D01*
X0260825Y0074399D02*
X0262175Y0074399D01*
X0266500Y0076500D02*
X0279000Y0076500D01*
X0283800Y0076396D02*
X0288500Y0076396D01*
X0288500Y0076000D02*
X0283814Y0076000D01*
X0283928Y0075282D01*
X0284181Y0074504D01*
X0284553Y0073775D01*
X0285034Y0073112D01*
X0285612Y0072534D01*
X0286275Y0072053D01*
X0287004Y0071681D01*
X0287782Y0071428D01*
X0288500Y0071314D01*
X0288500Y0076000D01*
X0289500Y0076000D01*
X0289500Y0077000D01*
X0294186Y0077000D01*
X0294072Y0077718D01*
X0293819Y0078496D01*
X0293447Y0079225D01*
X0292966Y0079888D01*
X0292388Y0080466D01*
X0291725Y0080947D01*
X0290996Y0081319D01*
X0290218Y0081572D01*
X0289500Y0081686D01*
X0289500Y0077000D01*
X0288500Y0077000D01*
X0288500Y0081686D01*
X0287782Y0081572D01*
X0287004Y0081319D01*
X0286275Y0080947D01*
X0285612Y0080466D01*
X0285034Y0079888D01*
X0284553Y0079225D01*
X0284181Y0078496D01*
X0283928Y0077718D01*
X0283814Y0077000D01*
X0288500Y0077000D01*
X0288500Y0076000D01*
X0288500Y0075397D02*
X0289500Y0075397D01*
X0289500Y0076000D02*
X0289500Y0071314D01*
X0290218Y0071428D01*
X0290996Y0071681D01*
X0291725Y0072053D01*
X0292388Y0072534D01*
X0292966Y0073112D01*
X0293447Y0073775D01*
X0293819Y0074504D01*
X0294072Y0075282D01*
X0294186Y0076000D01*
X0289500Y0076000D01*
X0289500Y0076396D02*
X0294200Y0076396D01*
X0294200Y0077394D02*
X0294123Y0077394D01*
X0293853Y0078393D02*
X0294589Y0078393D01*
X0295103Y0079391D02*
X0293327Y0079391D01*
X0292464Y0080390D02*
X0296102Y0080390D01*
X0290783Y0081388D02*
X0301500Y0081388D01*
X0301500Y0082387D02*
X0174921Y0082387D01*
X0174968Y0081388D02*
X0287217Y0081388D01*
X0288500Y0081388D02*
X0289500Y0081388D01*
X0289500Y0080390D02*
X0288500Y0080390D01*
X0288500Y0079391D02*
X0289500Y0079391D01*
X0289500Y0078393D02*
X0288500Y0078393D01*
X0288500Y0077394D02*
X0289500Y0077394D01*
X0294090Y0075397D02*
X0294261Y0075397D01*
X0294675Y0074399D02*
X0293765Y0074399D01*
X0293175Y0073400D02*
X0295312Y0073400D01*
X0296351Y0072402D02*
X0292206Y0072402D01*
X0290061Y0071403D02*
X0301500Y0071403D01*
X0301500Y0070405D02*
X0285704Y0070405D01*
X0286703Y0069406D02*
X0301500Y0069406D01*
X0289500Y0071403D02*
X0288500Y0071403D01*
X0287939Y0071403D02*
X0265700Y0071403D01*
X0269149Y0072402D02*
X0274200Y0072402D01*
X0274200Y0073400D02*
X0270188Y0073400D01*
X0270825Y0074399D02*
X0274200Y0074399D01*
X0283800Y0074399D02*
X0284235Y0074399D01*
X0283910Y0075397D02*
X0283800Y0075397D01*
X0288500Y0074399D02*
X0289500Y0074399D01*
X0289500Y0073400D02*
X0288500Y0073400D01*
X0288500Y0072402D02*
X0289500Y0072402D01*
X0285794Y0072402D02*
X0283800Y0072402D01*
X0283800Y0073400D02*
X0284825Y0073400D01*
X0283877Y0077394D02*
X0283800Y0077394D01*
X0283800Y0078393D02*
X0284147Y0078393D01*
X0283800Y0079391D02*
X0284673Y0079391D01*
X0285536Y0080390D02*
X0283800Y0080390D01*
X0274200Y0080390D02*
X0269398Y0080390D01*
X0270397Y0079391D02*
X0274200Y0079391D01*
X0274200Y0078393D02*
X0270911Y0078393D01*
X0252812Y0073400D02*
X0251012Y0073400D01*
X0251012Y0072402D02*
X0253485Y0072402D01*
X0252487Y0071403D02*
X0247831Y0071403D01*
X0247831Y0072402D02*
X0246862Y0072402D01*
X0246862Y0073400D02*
X0247831Y0073400D01*
X0247831Y0074399D02*
X0246862Y0074399D01*
X0243990Y0074399D02*
X0243444Y0074399D01*
X0237863Y0074399D02*
X0215703Y0074399D01*
X0216012Y0073400D02*
X0224580Y0073400D01*
X0223114Y0072402D02*
X0216012Y0072402D01*
X0205654Y0071500D02*
X0205547Y0071394D01*
X0205547Y0064000D01*
X0204846Y0064000D01*
X0212453Y0064000D02*
X0212453Y0056500D01*
X0205547Y0056500D02*
X0197453Y0056500D01*
X0196500Y0055547D01*
X0194000Y0051500D02*
X0191500Y0054000D01*
X0191500Y0057453D01*
X0196500Y0062453D01*
X0196500Y0068047D01*
X0199568Y0069406D02*
X0202388Y0069406D01*
X0202388Y0070405D02*
X0199289Y0070405D01*
X0187453Y0064000D02*
X0187346Y0064106D01*
X0178947Y0060420D02*
X0174968Y0060420D01*
X0174968Y0059421D02*
X0178322Y0059421D01*
X0177982Y0061418D02*
X0174491Y0061418D01*
X0174568Y0062417D02*
X0177479Y0062417D01*
X0177479Y0063415D02*
X0174568Y0063415D01*
X0162000Y0057424D02*
X0161000Y0057424D01*
X0161000Y0056426D02*
X0162000Y0056426D01*
X0162000Y0055427D02*
X0161000Y0055427D01*
X0151500Y0053430D02*
X0189900Y0053430D01*
X0190806Y0052432D02*
X0151500Y0052432D01*
X0149000Y0052432D02*
X0132683Y0052432D01*
X0134432Y0053430D02*
X0149000Y0053430D01*
X0149000Y0054429D02*
X0135288Y0054429D01*
X0135702Y0055427D02*
X0149000Y0055427D01*
X0149000Y0056426D02*
X0135850Y0056426D01*
X0135850Y0057424D02*
X0149000Y0057424D01*
X0149000Y0058423D02*
X0135474Y0058423D01*
X0134881Y0059421D02*
X0149000Y0059421D01*
X0149000Y0060420D02*
X0133766Y0060420D01*
X0131500Y0056650D02*
X0120130Y0045280D01*
X0116500Y0045280D01*
X0112268Y0045280D01*
X0109418Y0045442D02*
X0109000Y0045442D01*
X0109418Y0044569D02*
X0109317Y0044468D01*
X0109120Y0044126D01*
X0109018Y0043745D01*
X0109018Y0042721D01*
X0112268Y0042721D01*
X0115518Y0042721D01*
X0115518Y0043680D01*
X0120792Y0043680D01*
X0130404Y0043680D01*
X0131615Y0042468D01*
X0131138Y0042468D01*
X0131138Y0039484D01*
X0130169Y0039484D01*
X0130169Y0042468D01*
X0128291Y0042468D01*
X0127909Y0042366D01*
X0127567Y0042169D01*
X0127467Y0042068D01*
X0122225Y0042068D01*
X0121581Y0041424D01*
X0121581Y0036576D01*
X0122225Y0035931D01*
X0123246Y0035931D01*
X0123246Y0033856D01*
X0118959Y0029568D01*
X0115533Y0029568D01*
X0114888Y0028924D01*
X0114888Y0025600D01*
X0093112Y0025600D01*
X0093112Y0028924D01*
X0092467Y0029568D01*
X0087225Y0029568D01*
X0086712Y0029055D01*
X0086519Y0029390D01*
X0086240Y0029669D01*
X0085898Y0029866D01*
X0085516Y0029968D01*
X0083638Y0029968D01*
X0083638Y0026984D01*
X0082669Y0026984D01*
X0082669Y0026016D01*
X0079488Y0026016D01*
X0079488Y0024334D01*
X0079590Y0023953D01*
X0079788Y0023610D01*
X0079898Y0023500D01*
X0079000Y0023500D01*
X0079000Y0031500D01*
X0094000Y0031500D01*
X0094000Y0026500D01*
X0109000Y0026500D01*
X0109000Y0046737D01*
X0109418Y0046320D01*
X0109418Y0044569D01*
X0109303Y0044443D02*
X0109000Y0044443D01*
X0109000Y0043445D02*
X0109018Y0043445D01*
X0109018Y0042720D02*
X0109018Y0041696D01*
X0109120Y0041315D01*
X0109317Y0040973D01*
X0109418Y0040872D01*
X0109418Y0036320D01*
X0110062Y0035676D01*
X0114473Y0035676D01*
X0114800Y0036002D01*
X0115462Y0036002D01*
X0115533Y0035931D01*
X0120775Y0035931D01*
X0121419Y0036576D01*
X0121419Y0041424D01*
X0120775Y0042068D01*
X0115533Y0042068D01*
X0115518Y0042054D01*
X0115518Y0042720D01*
X0112268Y0042720D01*
X0112268Y0042721D01*
X0112268Y0042720D01*
X0109018Y0042720D01*
X0109000Y0042446D02*
X0109018Y0042446D01*
X0109000Y0041448D02*
X0109084Y0041448D01*
X0109000Y0040449D02*
X0109418Y0040449D01*
X0109418Y0039451D02*
X0109000Y0039451D01*
X0109000Y0038452D02*
X0109418Y0038452D01*
X0109418Y0037454D02*
X0109000Y0037454D01*
X0109000Y0036455D02*
X0109418Y0036455D01*
X0109000Y0035457D02*
X0123246Y0035457D01*
X0123246Y0034458D02*
X0109000Y0034458D01*
X0109000Y0033460D02*
X0122851Y0033460D01*
X0121852Y0032461D02*
X0109000Y0032461D01*
X0109000Y0031463D02*
X0120854Y0031463D01*
X0119855Y0030464D02*
X0109000Y0030464D01*
X0109000Y0029466D02*
X0115430Y0029466D01*
X0114888Y0028467D02*
X0109000Y0028467D01*
X0109000Y0027469D02*
X0114888Y0027469D01*
X0114888Y0026470D02*
X0093112Y0026470D01*
X0093112Y0027469D02*
X0094000Y0027469D01*
X0094000Y0028467D02*
X0093112Y0028467D01*
X0092570Y0029466D02*
X0094000Y0029466D01*
X0094000Y0030464D02*
X0079000Y0030464D01*
X0079000Y0029466D02*
X0079864Y0029466D01*
X0079788Y0029390D02*
X0079590Y0029047D01*
X0079488Y0028666D01*
X0079488Y0026984D01*
X0082669Y0026984D01*
X0082669Y0029968D01*
X0080791Y0029968D01*
X0080409Y0029866D01*
X0080067Y0029669D01*
X0079788Y0029390D01*
X0079488Y0028467D02*
X0079000Y0028467D01*
X0079000Y0027469D02*
X0079488Y0027469D01*
X0079000Y0026470D02*
X0082669Y0026470D01*
X0082669Y0027469D02*
X0083638Y0027469D01*
X0083638Y0028467D02*
X0082669Y0028467D01*
X0082669Y0029466D02*
X0083638Y0029466D01*
X0086443Y0029466D02*
X0087123Y0029466D01*
X0094000Y0031463D02*
X0079000Y0031463D01*
X0076500Y0031463D02*
X0033665Y0031463D01*
X0034293Y0030464D02*
X0076500Y0030464D01*
X0076500Y0029466D02*
X0034869Y0029466D01*
X0035400Y0028467D02*
X0076500Y0028467D01*
X0076500Y0027469D02*
X0035667Y0027469D01*
X0035935Y0026470D02*
X0076500Y0026470D01*
X0076500Y0025472D02*
X0036175Y0025472D01*
X0036175Y0024473D02*
X0076500Y0024473D01*
X0079000Y0024473D02*
X0079488Y0024473D01*
X0079488Y0025472D02*
X0079000Y0025472D01*
X0089846Y0026500D02*
X0092346Y0024000D01*
X0115654Y0024000D01*
X0118154Y0026500D01*
X0124846Y0033193D01*
X0124846Y0039000D01*
X0124846Y0038193D01*
X0124846Y0039000D02*
X0124000Y0039000D01*
X0121581Y0039451D02*
X0121419Y0039451D01*
X0121419Y0040449D02*
X0121581Y0040449D01*
X0121605Y0041448D02*
X0121395Y0041448D01*
X0115518Y0042446D02*
X0128208Y0042446D01*
X0130169Y0042446D02*
X0131138Y0042446D01*
X0131138Y0041448D02*
X0130169Y0041448D01*
X0130169Y0040449D02*
X0131138Y0040449D01*
X0131138Y0038452D02*
X0130169Y0038452D01*
X0130169Y0037454D02*
X0131138Y0037454D01*
X0131138Y0036455D02*
X0130169Y0036455D01*
X0130991Y0035457D02*
X0151926Y0035457D01*
X0151852Y0035329D02*
X0152050Y0035671D01*
X0152329Y0035950D01*
X0152671Y0036148D01*
X0153053Y0036250D01*
X0156311Y0036250D01*
X0156311Y0031689D01*
X0156689Y0031689D01*
X0156689Y0036250D01*
X0159947Y0036250D01*
X0160329Y0036148D01*
X0160671Y0035950D01*
X0160950Y0035671D01*
X0161148Y0035329D01*
X0161250Y0034947D01*
X0161250Y0031689D01*
X0156689Y0031689D01*
X0156689Y0031311D01*
X0161250Y0031311D01*
X0161250Y0028053D01*
X0161148Y0027671D01*
X0160950Y0027329D01*
X0160671Y0027050D01*
X0160329Y0026852D01*
X0159947Y0026750D01*
X0156689Y0026750D01*
X0156689Y0031311D01*
X0156311Y0031311D01*
X0156311Y0026750D01*
X0153053Y0026750D01*
X0152671Y0026852D01*
X0152329Y0027050D01*
X0152050Y0027329D01*
X0151852Y0027671D01*
X0151750Y0028053D01*
X0151750Y0031311D01*
X0156311Y0031311D01*
X0156311Y0031689D01*
X0151750Y0031689D01*
X0151750Y0034947D01*
X0151852Y0035329D01*
X0151750Y0034458D02*
X0132479Y0034458D01*
X0132970Y0033460D02*
X0151750Y0033460D01*
X0151750Y0032461D02*
X0133034Y0032461D01*
X0132730Y0031463D02*
X0156311Y0031463D01*
X0156689Y0031463D02*
X0164000Y0031463D01*
X0164000Y0032461D02*
X0161250Y0032461D01*
X0161250Y0033460D02*
X0164000Y0033460D01*
X0164000Y0034458D02*
X0161250Y0034458D01*
X0161074Y0035457D02*
X0164000Y0035457D01*
X0164000Y0036455D02*
X0140491Y0036455D01*
X0140612Y0037454D02*
X0154901Y0037454D01*
X0155635Y0037150D02*
X0154036Y0037812D01*
X0152812Y0039036D01*
X0152150Y0040635D01*
X0152150Y0042365D01*
X0152812Y0043964D01*
X0154036Y0045188D01*
X0155635Y0045850D01*
X0157365Y0045850D01*
X0158964Y0045188D01*
X0160188Y0043964D01*
X0160850Y0042365D01*
X0160850Y0040635D01*
X0160188Y0039036D01*
X0158964Y0037812D01*
X0157365Y0037150D01*
X0155635Y0037150D01*
X0156311Y0035457D02*
X0156689Y0035457D01*
X0156689Y0034458D02*
X0156311Y0034458D01*
X0156311Y0033460D02*
X0156689Y0033460D01*
X0156689Y0032461D02*
X0156311Y0032461D01*
X0156311Y0030464D02*
X0156689Y0030464D01*
X0156689Y0029466D02*
X0156311Y0029466D01*
X0156311Y0028467D02*
X0156689Y0028467D01*
X0156689Y0027469D02*
X0156311Y0027469D01*
X0161031Y0027469D02*
X0164000Y0027469D01*
X0164000Y0028467D02*
X0161250Y0028467D01*
X0161250Y0029466D02*
X0164000Y0029466D01*
X0164000Y0030464D02*
X0161250Y0030464D01*
X0166500Y0030464D02*
X0251911Y0030464D01*
X0251700Y0029955D02*
X0251700Y0028045D01*
X0252431Y0026281D01*
X0253781Y0024931D01*
X0255545Y0024200D01*
X0257455Y0024200D01*
X0259219Y0024931D01*
X0260569Y0026281D01*
X0261300Y0028045D01*
X0261300Y0029955D01*
X0260569Y0031719D01*
X0259219Y0033069D01*
X0257455Y0033800D01*
X0255545Y0033800D01*
X0253781Y0033069D01*
X0252431Y0031719D01*
X0251700Y0029955D01*
X0251700Y0029466D02*
X0166500Y0029466D01*
X0166500Y0028467D02*
X0251700Y0028467D01*
X0251939Y0027469D02*
X0166500Y0027469D01*
X0166500Y0026470D02*
X0252352Y0026470D01*
X0253240Y0025472D02*
X0166500Y0025472D01*
X0166500Y0024473D02*
X0254886Y0024473D01*
X0258114Y0024473D02*
X0284886Y0024473D01*
X0283240Y0025472D02*
X0259760Y0025472D01*
X0260648Y0026470D02*
X0282352Y0026470D01*
X0281939Y0027469D02*
X0261061Y0027469D01*
X0261300Y0028467D02*
X0281700Y0028467D01*
X0281700Y0029466D02*
X0261300Y0029466D01*
X0261089Y0030464D02*
X0281911Y0030464D01*
X0282325Y0031463D02*
X0260675Y0031463D01*
X0259827Y0032461D02*
X0283173Y0032461D01*
X0284724Y0033460D02*
X0258276Y0033460D01*
X0258078Y0034458D02*
X0284922Y0034458D01*
X0283255Y0035457D02*
X0259745Y0035457D01*
X0260641Y0036455D02*
X0282359Y0036455D01*
X0281945Y0037454D02*
X0261055Y0037454D01*
X0261300Y0038452D02*
X0281700Y0038452D01*
X0281700Y0039451D02*
X0261300Y0039451D01*
X0261095Y0040449D02*
X0281905Y0040449D01*
X0281789Y0041448D02*
X0260682Y0041448D01*
X0256500Y0039000D02*
X0251500Y0034000D01*
X0200300Y0034000D01*
X0191500Y0042800D01*
X0187202Y0044443D02*
X0185798Y0044443D01*
X0186100Y0043715D02*
X0185400Y0045406D01*
X0184106Y0046700D01*
X0182415Y0047400D01*
X0180585Y0047400D01*
X0178894Y0046700D01*
X0177600Y0045406D01*
X0176900Y0043715D01*
X0176900Y0041885D01*
X0177600Y0040194D01*
X0178894Y0038900D01*
X0180585Y0038200D01*
X0182415Y0038200D01*
X0184106Y0038900D01*
X0185400Y0040194D01*
X0186100Y0041885D01*
X0186100Y0043715D01*
X0186100Y0043445D02*
X0186900Y0043445D01*
X0186900Y0042446D02*
X0186100Y0042446D01*
X0185919Y0041448D02*
X0187081Y0041448D01*
X0187495Y0040449D02*
X0185505Y0040449D01*
X0184656Y0039451D02*
X0188344Y0039451D01*
X0189976Y0038452D02*
X0183024Y0038452D01*
X0179976Y0038452D02*
X0166500Y0038452D01*
X0166500Y0037454D02*
X0194583Y0037454D01*
X0193585Y0038452D02*
X0193024Y0038452D01*
X0195582Y0036455D02*
X0166500Y0036455D01*
X0166500Y0035457D02*
X0196580Y0035457D01*
X0197579Y0034458D02*
X0166500Y0034458D01*
X0166500Y0033460D02*
X0198577Y0033460D01*
X0199576Y0032461D02*
X0166500Y0032461D01*
X0166500Y0031463D02*
X0252325Y0031463D01*
X0252224Y0032461D02*
X0253173Y0032461D01*
X0253223Y0033460D02*
X0254724Y0033460D01*
X0254922Y0034458D02*
X0254221Y0034458D01*
X0251693Y0036455D02*
X0200107Y0036455D01*
X0199109Y0037454D02*
X0251945Y0037454D01*
X0251700Y0038452D02*
X0243981Y0038452D01*
X0244121Y0038524D02*
X0244757Y0038986D01*
X0245314Y0039543D01*
X0245776Y0040179D01*
X0246134Y0040881D01*
X0246377Y0041629D01*
X0246483Y0042300D01*
X0242000Y0042300D01*
X0242000Y0037817D01*
X0242671Y0037923D01*
X0243419Y0038166D01*
X0244121Y0038524D01*
X0245222Y0039451D02*
X0251700Y0039451D01*
X0251905Y0040449D02*
X0245914Y0040449D01*
X0246318Y0041448D02*
X0252318Y0041448D01*
X0253158Y0042446D02*
X0242000Y0042446D01*
X0242000Y0041448D02*
X0241000Y0041448D01*
X0241000Y0042300D02*
X0241000Y0037817D01*
X0240329Y0037923D01*
X0239581Y0038166D01*
X0238879Y0038524D01*
X0238243Y0038986D01*
X0237686Y0039543D01*
X0237224Y0040179D01*
X0236866Y0040881D01*
X0236623Y0041629D01*
X0236517Y0042300D01*
X0241000Y0042300D01*
X0241000Y0042446D02*
X0236100Y0042446D01*
X0236100Y0043445D02*
X0236540Y0043445D01*
X0236777Y0044443D02*
X0235798Y0044443D01*
X0236405Y0045442D02*
X0237239Y0045442D01*
X0237403Y0046440D02*
X0238069Y0046440D01*
X0233876Y0047439D02*
X0203403Y0047439D01*
X0203419Y0047434D02*
X0202671Y0047677D01*
X0202000Y0047783D01*
X0202000Y0043300D01*
X0206483Y0043300D01*
X0206377Y0043971D01*
X0206134Y0044719D01*
X0205776Y0045421D01*
X0205314Y0046057D01*
X0204757Y0046614D01*
X0204121Y0047076D01*
X0203419Y0047434D01*
X0202000Y0047439D02*
X0201000Y0047439D01*
X0201000Y0047783D02*
X0200329Y0047677D01*
X0199581Y0047434D01*
X0198879Y0047076D01*
X0198243Y0046614D01*
X0197686Y0046057D01*
X0197224Y0045421D01*
X0196866Y0044719D01*
X0196623Y0043971D01*
X0196517Y0043300D01*
X0201000Y0043300D01*
X0201000Y0047783D01*
X0201000Y0046440D02*
X0202000Y0046440D01*
X0202000Y0045442D02*
X0201000Y0045442D01*
X0201000Y0044443D02*
X0202000Y0044443D01*
X0202000Y0043445D02*
X0201000Y0043445D01*
X0201000Y0043300D02*
X0202000Y0043300D01*
X0202000Y0042300D01*
X0206483Y0042300D01*
X0206377Y0041629D01*
X0206134Y0040881D01*
X0205776Y0040179D01*
X0205314Y0039543D01*
X0204757Y0038986D01*
X0204121Y0038524D01*
X0203419Y0038166D01*
X0202671Y0037923D01*
X0202000Y0037817D01*
X0202000Y0042300D01*
X0201000Y0042300D01*
X0201000Y0037817D01*
X0200329Y0037923D01*
X0199581Y0038166D01*
X0198879Y0038524D01*
X0198243Y0038986D01*
X0197686Y0039543D01*
X0197224Y0040179D01*
X0196866Y0040881D01*
X0196623Y0041629D01*
X0196517Y0042300D01*
X0201000Y0042300D01*
X0201000Y0043300D01*
X0201000Y0042446D02*
X0196100Y0042446D01*
X0196100Y0043445D02*
X0196540Y0043445D01*
X0196777Y0044443D02*
X0195798Y0044443D01*
X0195363Y0045442D02*
X0197239Y0045442D01*
X0198069Y0046440D02*
X0194365Y0046440D01*
X0199597Y0047439D02*
X0166500Y0047439D01*
X0166500Y0048437D02*
X0234875Y0048437D01*
X0235873Y0049436D02*
X0166500Y0049436D01*
X0166500Y0050434D02*
X0192803Y0050434D01*
X0191804Y0051433D02*
X0166500Y0051433D01*
X0164000Y0048437D02*
X0125550Y0048437D01*
X0124552Y0047439D02*
X0164000Y0047439D01*
X0164000Y0046440D02*
X0132169Y0046440D01*
X0133167Y0045442D02*
X0154650Y0045442D01*
X0153292Y0044443D02*
X0134166Y0044443D01*
X0135164Y0043445D02*
X0152597Y0043445D01*
X0152184Y0042446D02*
X0136163Y0042446D01*
X0140588Y0041448D02*
X0152150Y0041448D01*
X0152227Y0040449D02*
X0140612Y0040449D01*
X0140612Y0039451D02*
X0152640Y0039451D01*
X0153396Y0038452D02*
X0140612Y0038452D01*
X0137346Y0039000D02*
X0131067Y0045280D01*
X0120130Y0045280D01*
X0115518Y0043445D02*
X0130639Y0043445D01*
X0118154Y0039000D02*
X0116756Y0037602D01*
X0112268Y0037602D01*
X0106500Y0036455D02*
X0101500Y0036455D01*
X0101500Y0035457D02*
X0106500Y0035457D01*
X0106500Y0034458D02*
X0101500Y0034458D01*
X0101500Y0033460D02*
X0106500Y0033460D01*
X0106500Y0031500D02*
X0096500Y0031500D01*
X0096500Y0029000D01*
X0106500Y0029000D01*
X0106500Y0031500D01*
X0106500Y0031463D02*
X0096500Y0031463D01*
X0096500Y0030464D02*
X0106500Y0030464D01*
X0106500Y0029466D02*
X0096500Y0029466D01*
X0121298Y0036455D02*
X0121702Y0036455D01*
X0121581Y0037454D02*
X0121419Y0037454D01*
X0121419Y0038452D02*
X0121581Y0038452D01*
X0130250Y0032750D02*
X0130250Y0026904D01*
X0130654Y0026500D01*
X0124846Y0026500D01*
X0133377Y0029466D02*
X0134057Y0029466D01*
X0131902Y0030464D02*
X0151750Y0030464D01*
X0151750Y0029466D02*
X0140636Y0029466D01*
X0141012Y0028467D02*
X0151750Y0028467D01*
X0151969Y0027469D02*
X0141012Y0027469D01*
X0137831Y0027469D02*
X0136862Y0027469D01*
X0136862Y0028467D02*
X0137831Y0028467D01*
X0137831Y0029466D02*
X0136862Y0029466D01*
X0130250Y0031096D02*
X0130250Y0032750D01*
X0137831Y0026470D02*
X0164000Y0026470D01*
X0164000Y0025472D02*
X0141012Y0025472D01*
X0141012Y0024473D02*
X0164000Y0024473D01*
X0164000Y0037454D02*
X0158099Y0037454D01*
X0159604Y0038452D02*
X0164000Y0038452D01*
X0164000Y0039451D02*
X0160360Y0039451D01*
X0160773Y0040449D02*
X0164000Y0040449D01*
X0164000Y0041448D02*
X0160850Y0041448D01*
X0160816Y0042446D02*
X0164000Y0042446D01*
X0164000Y0043445D02*
X0160403Y0043445D01*
X0159708Y0044443D02*
X0164000Y0044443D01*
X0164000Y0045442D02*
X0158350Y0045442D01*
X0166500Y0045442D02*
X0177637Y0045442D01*
X0177202Y0044443D02*
X0166500Y0044443D01*
X0166500Y0043445D02*
X0176900Y0043445D01*
X0176900Y0042446D02*
X0166500Y0042446D01*
X0166500Y0041448D02*
X0177081Y0041448D01*
X0177495Y0040449D02*
X0166500Y0040449D01*
X0166500Y0039451D02*
X0178344Y0039451D01*
X0195919Y0041448D02*
X0196682Y0041448D01*
X0197086Y0040449D02*
X0196113Y0040449D01*
X0197112Y0039451D02*
X0197778Y0039451D01*
X0198110Y0038452D02*
X0199019Y0038452D01*
X0201000Y0038452D02*
X0202000Y0038452D01*
X0202000Y0039451D02*
X0201000Y0039451D01*
X0201000Y0040449D02*
X0202000Y0040449D01*
X0202000Y0041448D02*
X0201000Y0041448D01*
X0202000Y0042446D02*
X0216900Y0042446D01*
X0216900Y0041885D02*
X0217600Y0040194D01*
X0218894Y0038900D01*
X0220585Y0038200D01*
X0222415Y0038200D01*
X0224106Y0038900D01*
X0225400Y0040194D01*
X0226100Y0041885D01*
X0226100Y0043715D01*
X0225400Y0045406D01*
X0224106Y0046700D01*
X0222415Y0047400D01*
X0220585Y0047400D01*
X0218894Y0046700D01*
X0217600Y0045406D01*
X0216900Y0043715D01*
X0216900Y0041885D01*
X0217081Y0041448D02*
X0206318Y0041448D01*
X0205914Y0040449D02*
X0217495Y0040449D01*
X0218344Y0039451D02*
X0205222Y0039451D01*
X0203981Y0038452D02*
X0219976Y0038452D01*
X0223024Y0038452D02*
X0229976Y0038452D01*
X0228344Y0039451D02*
X0224656Y0039451D01*
X0225505Y0040449D02*
X0227495Y0040449D01*
X0227081Y0041448D02*
X0225919Y0041448D01*
X0226100Y0042446D02*
X0226900Y0042446D01*
X0226900Y0043445D02*
X0226100Y0043445D01*
X0225798Y0044443D02*
X0227202Y0044443D01*
X0227637Y0045442D02*
X0225363Y0045442D01*
X0224365Y0046440D02*
X0228635Y0046440D01*
X0231500Y0042800D02*
X0237700Y0049000D01*
X0256500Y0049000D01*
X0252312Y0051433D02*
X0216196Y0051433D01*
X0217194Y0052432D02*
X0250806Y0052432D01*
X0249900Y0053337D02*
X0249900Y0053337D01*
X0249807Y0053430D02*
X0218193Y0053430D01*
X0219191Y0054429D02*
X0237388Y0054429D01*
X0237388Y0055427D02*
X0220190Y0055427D01*
X0221188Y0056426D02*
X0237388Y0056426D01*
X0237388Y0057424D02*
X0234203Y0057424D01*
X0235211Y0058423D02*
X0236468Y0058423D01*
X0236500Y0060654D02*
X0236500Y0064000D01*
X0234000Y0066500D01*
X0229000Y0066500D01*
X0227098Y0063415D02*
X0225902Y0063415D01*
X0226300Y0062417D02*
X0226700Y0062417D01*
X0226700Y0061418D02*
X0226300Y0061418D01*
X0226248Y0060420D02*
X0226752Y0060420D01*
X0227166Y0059421D02*
X0225834Y0059421D01*
X0225211Y0058423D02*
X0227789Y0058423D01*
X0228797Y0057424D02*
X0224203Y0057424D01*
X0221500Y0059000D02*
X0221500Y0061500D01*
X0221500Y0059000D02*
X0214000Y0051500D01*
X0194000Y0051500D01*
X0184384Y0054429D02*
X0183616Y0054429D01*
X0183616Y0055427D02*
X0184384Y0055427D01*
X0204594Y0055547D02*
X0205547Y0056500D01*
X0215197Y0050434D02*
X0236872Y0050434D01*
X0243919Y0054429D02*
X0244081Y0054429D01*
X0244081Y0055427D02*
X0243919Y0055427D01*
X0240654Y0056500D02*
X0236500Y0060654D01*
X0244154Y0060500D02*
X0254000Y0060500D01*
X0256500Y0059000D01*
X0261300Y0058423D02*
X0281327Y0058423D01*
X0281544Y0057424D02*
X0261300Y0057424D01*
X0261300Y0056426D02*
X0281976Y0056426D01*
X0271500Y0054000D02*
X0286500Y0039000D01*
X0291055Y0037454D02*
X0292400Y0037454D01*
X0292400Y0038452D02*
X0291300Y0038452D01*
X0291300Y0039451D02*
X0292400Y0039451D01*
X0292400Y0040449D02*
X0291095Y0040449D01*
X0290682Y0041448D02*
X0292400Y0041448D01*
X0292684Y0042446D02*
X0289842Y0042446D01*
X0288312Y0043445D02*
X0293682Y0043445D01*
X0294681Y0044443D02*
X0288042Y0044443D01*
X0289730Y0045442D02*
X0295679Y0045442D01*
X0296500Y0044000D02*
X0309000Y0044000D01*
X0316114Y0039000D02*
X0320220Y0043106D01*
X0330063Y0043106D02*
X0330063Y0033665D01*
X0332228Y0031500D01*
X0329878Y0031463D02*
X0325612Y0031463D01*
X0325612Y0032461D02*
X0329004Y0032461D01*
X0328463Y0033460D02*
X0326569Y0033460D01*
X0327567Y0034458D02*
X0328463Y0034458D01*
X0328463Y0035457D02*
X0328100Y0035457D01*
X0331663Y0035457D02*
X0336337Y0035457D01*
X0335355Y0036455D02*
X0332645Y0036455D01*
X0332935Y0037454D02*
X0335065Y0037454D01*
X0335065Y0038452D02*
X0332935Y0038452D01*
X0332935Y0039451D02*
X0335065Y0039451D01*
X0335065Y0040449D02*
X0332935Y0040449D01*
X0332935Y0041448D02*
X0335065Y0041448D01*
X0335065Y0042446D02*
X0332935Y0042446D01*
X0340809Y0043445D02*
X0347394Y0043445D01*
X0347394Y0044443D02*
X0348165Y0044443D01*
X0362319Y0052432D02*
X0366705Y0052432D01*
X0366705Y0053430D02*
X0364410Y0053430D01*
X0365408Y0054429D02*
X0366705Y0054429D01*
X0366705Y0055427D02*
X0366365Y0055427D01*
X0316114Y0039000D02*
X0299000Y0039000D01*
X0294000Y0036500D02*
X0294000Y0041500D01*
X0296500Y0044000D01*
X0288154Y0050654D02*
X0286500Y0049000D01*
X0288154Y0050654D02*
X0296500Y0050654D01*
X0254958Y0044443D02*
X0246223Y0044443D01*
X0246460Y0043445D02*
X0254688Y0043445D01*
X0253270Y0045442D02*
X0245761Y0045442D01*
X0244931Y0046440D02*
X0252365Y0046440D01*
X0236682Y0041448D02*
X0235919Y0041448D01*
X0235505Y0040449D02*
X0237086Y0040449D01*
X0237778Y0039451D02*
X0234656Y0039451D01*
X0233024Y0038452D02*
X0239019Y0038452D01*
X0241000Y0038452D02*
X0242000Y0038452D01*
X0242000Y0039451D02*
X0241000Y0039451D01*
X0241000Y0040449D02*
X0242000Y0040449D01*
X0218635Y0046440D02*
X0204931Y0046440D01*
X0205761Y0045442D02*
X0217637Y0045442D01*
X0217202Y0044443D02*
X0206223Y0044443D01*
X0206460Y0043445D02*
X0216900Y0043445D01*
X0188635Y0046440D02*
X0184365Y0046440D01*
X0185363Y0045442D02*
X0187637Y0045442D01*
X0178635Y0046440D02*
X0166500Y0046440D01*
X0149000Y0049436D02*
X0126549Y0049436D01*
X0127547Y0050434D02*
X0149000Y0050434D01*
X0149000Y0051433D02*
X0128546Y0051433D01*
X0129544Y0052432D02*
X0130317Y0052432D01*
X0112268Y0054079D02*
X0112268Y0050398D01*
X0112268Y0054079D02*
X0104000Y0062346D01*
X0095437Y0057760D02*
X0091500Y0061697D01*
X0087457Y0062417D02*
X0086882Y0062417D01*
X0086882Y0061787D02*
X0086882Y0064575D01*
X0085200Y0064575D01*
X0084819Y0064473D01*
X0084477Y0064275D01*
X0084197Y0063996D01*
X0084000Y0063654D01*
X0083898Y0063272D01*
X0083898Y0061787D01*
X0086882Y0061787D01*
X0086882Y0061418D02*
X0076808Y0061418D01*
X0076914Y0061563D02*
X0077246Y0062215D01*
X0077472Y0062911D01*
X0077587Y0063634D01*
X0077587Y0063811D01*
X0073126Y0063811D01*
X0073126Y0064189D01*
X0072748Y0064189D01*
X0072748Y0068650D01*
X0072571Y0068650D01*
X0071848Y0068535D01*
X0071152Y0068309D01*
X0070500Y0067977D01*
X0069908Y0067547D01*
X0069390Y0067029D01*
X0068960Y0066437D01*
X0068791Y0066105D01*
X0068666Y0066407D01*
X0067470Y0067603D01*
X0065908Y0068250D01*
X0064218Y0068250D01*
X0062656Y0067603D01*
X0061460Y0066407D01*
X0060813Y0064845D01*
X0060813Y0063155D01*
X0061460Y0061593D01*
X0062656Y0060397D01*
X0064218Y0059750D01*
X0065908Y0059750D01*
X0067470Y0060397D01*
X0068666Y0061593D01*
X0068791Y0061895D01*
X0068960Y0061563D01*
X0069390Y0060971D01*
X0069908Y0060453D01*
X0070500Y0060023D01*
X0071152Y0059691D01*
X0071848Y0059465D01*
X0072571Y0059350D01*
X0072748Y0059350D01*
X0072748Y0063811D01*
X0073126Y0063811D01*
X0073126Y0059350D01*
X0073303Y0059350D01*
X0074026Y0059465D01*
X0074722Y0059691D01*
X0075374Y0060023D01*
X0075966Y0060453D01*
X0076484Y0060971D01*
X0076914Y0061563D01*
X0077311Y0062417D02*
X0083898Y0062417D01*
X0083936Y0063415D02*
X0077552Y0063415D01*
X0077587Y0064189D02*
X0073126Y0064189D01*
X0073126Y0068650D01*
X0073303Y0068650D01*
X0074026Y0068535D01*
X0074722Y0068309D01*
X0075374Y0067977D01*
X0075966Y0067547D01*
X0076484Y0067029D01*
X0076914Y0066437D01*
X0077246Y0065785D01*
X0077472Y0065089D01*
X0077587Y0064366D01*
X0077587Y0064189D01*
X0077579Y0064414D02*
X0084717Y0064414D01*
X0082825Y0065412D02*
X0077367Y0065412D01*
X0076927Y0066411D02*
X0081827Y0066411D01*
X0080828Y0067409D02*
X0076103Y0067409D01*
X0074418Y0068408D02*
X0079900Y0068408D01*
X0079900Y0069406D02*
X0056500Y0069406D01*
X0056500Y0068408D02*
X0071456Y0068408D01*
X0072748Y0068408D02*
X0073126Y0068408D01*
X0073126Y0067409D02*
X0072748Y0067409D01*
X0072748Y0066411D02*
X0073126Y0066411D01*
X0073126Y0065412D02*
X0072748Y0065412D01*
X0072748Y0064414D02*
X0073126Y0064414D01*
X0073126Y0063415D02*
X0072748Y0063415D01*
X0072748Y0062417D02*
X0073126Y0062417D01*
X0073126Y0061418D02*
X0072748Y0061418D01*
X0072748Y0060420D02*
X0073126Y0060420D01*
X0073126Y0059421D02*
X0072748Y0059421D01*
X0072125Y0059421D02*
X0056500Y0059421D01*
X0056500Y0060420D02*
X0062634Y0060420D01*
X0061635Y0061418D02*
X0056500Y0061418D01*
X0056500Y0062417D02*
X0061119Y0062417D01*
X0060813Y0063415D02*
X0056500Y0063415D01*
X0056500Y0064414D02*
X0060813Y0064414D01*
X0061048Y0065412D02*
X0056500Y0065412D01*
X0056500Y0066411D02*
X0061464Y0066411D01*
X0062462Y0067409D02*
X0056500Y0067409D01*
X0056500Y0070405D02*
X0079900Y0070405D01*
X0079900Y0071403D02*
X0056500Y0071403D01*
X0056500Y0072402D02*
X0079900Y0072402D01*
X0079900Y0073400D02*
X0056500Y0073400D01*
X0056500Y0074399D02*
X0080108Y0074399D01*
X0081107Y0075397D02*
X0056500Y0075397D01*
X0056500Y0076396D02*
X0082105Y0076396D01*
X0083104Y0077394D02*
X0056500Y0077394D01*
X0056500Y0078393D02*
X0083766Y0078393D01*
X0083766Y0079391D02*
X0056500Y0079391D01*
X0056500Y0084384D02*
X0301500Y0084384D01*
X0301500Y0083385D02*
X0174089Y0083385D01*
X0162000Y0078393D02*
X0161000Y0078393D01*
X0161000Y0077394D02*
X0162000Y0077394D01*
X0162000Y0076396D02*
X0161000Y0076396D01*
X0161000Y0075397D02*
X0162000Y0075397D01*
X0162000Y0074399D02*
X0161000Y0074399D01*
X0106905Y0080390D02*
X0096095Y0080390D01*
X0096635Y0079391D02*
X0106365Y0079391D01*
X0106365Y0078393D02*
X0101045Y0078393D01*
X0101643Y0077394D02*
X0106365Y0077394D01*
X0106365Y0076396D02*
X0101784Y0076396D01*
X0096955Y0078393D02*
X0096635Y0078393D01*
X0069771Y0067409D02*
X0067664Y0067409D01*
X0068662Y0066411D02*
X0068947Y0066411D01*
X0069066Y0061418D02*
X0068491Y0061418D01*
X0067492Y0060420D02*
X0069955Y0060420D01*
X0073749Y0059421D02*
X0083980Y0059421D01*
X0083898Y0060420D02*
X0075919Y0060420D01*
X0086882Y0060420D02*
X0087457Y0060420D01*
X0087457Y0059421D02*
X0086882Y0059421D01*
X0086882Y0063415D02*
X0087457Y0063415D01*
X0087457Y0064414D02*
X0086882Y0064414D01*
X0091500Y0056500D02*
X0075654Y0056500D01*
X0070654Y0051500D01*
X0062465Y0051500D01*
X0061500Y0052465D01*
X0065494Y0054429D02*
X0067893Y0054429D01*
X0065487Y0055427D02*
X0072318Y0055427D01*
X0077346Y0051500D02*
X0072346Y0046500D01*
X0061500Y0046500D01*
X0058925Y0045442D02*
X0037000Y0045442D01*
X0037000Y0044443D02*
X0036000Y0044443D01*
X0036000Y0043445D02*
X0037000Y0043445D01*
X0037000Y0042446D02*
X0036000Y0042446D01*
X0036000Y0041448D02*
X0037000Y0041448D01*
X0037000Y0040449D02*
X0036000Y0040449D01*
X0036000Y0039451D02*
X0037000Y0039451D01*
X0037000Y0038452D02*
X0036000Y0038452D01*
X0036000Y0037454D02*
X0037000Y0037454D01*
X0037000Y0036455D02*
X0036000Y0036455D01*
X0031403Y0036455D02*
X0008500Y0036455D01*
X0008500Y0037454D02*
X0030003Y0037454D01*
X0028981Y0038452D02*
X0008500Y0038452D01*
X0008500Y0039451D02*
X0028216Y0039451D01*
X0027623Y0040449D02*
X0008500Y0040449D01*
X0008500Y0041448D02*
X0027170Y0041448D01*
X0026840Y0042446D02*
X0008500Y0042446D01*
X0008500Y0043445D02*
X0026619Y0043445D01*
X0026507Y0044443D02*
X0008500Y0044443D01*
X0008500Y0045442D02*
X0036000Y0045442D01*
X0026785Y0047439D02*
X0020304Y0047439D01*
X0022714Y0048437D02*
X0027086Y0048437D01*
X0027507Y0049436D02*
X0024134Y0049436D01*
X0025133Y0050434D02*
X0028065Y0050434D01*
X0028789Y0051433D02*
X0026131Y0051433D01*
X0013278Y0048437D02*
X0008500Y0048437D01*
X0008500Y0047439D02*
X0015688Y0047439D01*
X0011858Y0049436D02*
X0008500Y0049436D01*
X0008500Y0050434D02*
X0010859Y0050434D01*
X0009861Y0051433D02*
X0008500Y0051433D01*
X0008500Y0046440D02*
X0026592Y0046440D01*
X0044784Y0039451D02*
X0058093Y0039451D01*
X0057165Y0038452D02*
X0044019Y0038452D01*
X0042997Y0037454D02*
X0057106Y0037454D01*
X0057106Y0036455D02*
X0041597Y0036455D01*
X0031668Y0033460D02*
X0057106Y0033460D01*
X0057106Y0034458D02*
X0030019Y0034458D01*
X0032667Y0032461D02*
X0057207Y0032461D01*
X0065894Y0036455D02*
X0067509Y0036455D01*
X0067388Y0037454D02*
X0065894Y0037454D01*
X0065835Y0038452D02*
X0067388Y0038452D01*
X0073919Y0038452D02*
X0074081Y0038452D01*
X0073551Y0045442D02*
X0084084Y0045442D01*
X0085116Y0046440D02*
X0074550Y0046440D01*
X0075548Y0047439D02*
X0088246Y0047439D01*
X0088246Y0046440D02*
X0087884Y0046440D01*
X0087219Y0048437D02*
X0086346Y0048437D01*
X0083638Y0048437D02*
X0082669Y0048437D01*
X0082669Y0049436D02*
X0083638Y0049436D01*
X0083638Y0050434D02*
X0082669Y0050434D01*
X0091500Y0056500D02*
X0095732Y0052268D01*
X0095732Y0050398D01*
X0097602Y0050398D01*
X0099000Y0049000D01*
X0109000Y0046440D02*
X0109297Y0046440D01*
X0040359Y0023475D02*
X0036175Y0023475D01*
X0036175Y0022476D02*
X0039361Y0022476D01*
X0039079Y0021478D02*
X0035921Y0021478D01*
X0035653Y0020479D02*
X0038714Y0020479D01*
X0038187Y0019481D02*
X0035386Y0019481D01*
X0034839Y0018482D02*
X0037580Y0018482D01*
X0036974Y0017484D02*
X0034262Y0017484D01*
X0033613Y0016485D02*
X0036286Y0016485D01*
X0035247Y0015487D02*
X0032615Y0015487D01*
X0031616Y0014488D02*
X0034208Y0014488D01*
X0032891Y0013490D02*
X0029928Y0013490D01*
X0031089Y0012491D02*
X0027468Y0012491D01*
X0028440Y0011493D02*
X0020016Y0011493D01*
X0229886Y0072402D02*
X0237388Y0072402D01*
X0237388Y0073400D02*
X0228420Y0073400D01*
X0250703Y0074399D02*
X0252175Y0074399D01*
X0251488Y0070405D02*
X0251012Y0070405D01*
X0250612Y0063415D02*
X0251960Y0063415D01*
X0251700Y0062417D02*
X0250612Y0062417D01*
X0316831Y0037454D02*
X0317349Y0037454D01*
X0317639Y0036455D02*
X0310678Y0036455D01*
X0301700Y0034458D02*
X0300578Y0034458D01*
X0300776Y0033460D02*
X0301700Y0033460D01*
X0297422Y0034458D02*
X0294221Y0034458D01*
X0293223Y0033460D02*
X0297224Y0033460D01*
X0295673Y0032461D02*
X0292224Y0032461D01*
X0291226Y0031463D02*
X0294825Y0031463D01*
X0294411Y0030464D02*
X0291089Y0030464D01*
X0291300Y0029466D02*
X0294200Y0029466D01*
X0294200Y0028467D02*
X0291300Y0028467D01*
X0291061Y0027469D02*
X0294439Y0027469D01*
X0294852Y0026470D02*
X0290648Y0026470D01*
X0289760Y0025472D02*
X0295740Y0025472D01*
X0297386Y0024473D02*
X0288114Y0024473D01*
X0286500Y0029000D02*
X0294000Y0036500D01*
X0295220Y0035457D02*
X0295755Y0035457D01*
X0291693Y0036455D02*
X0290641Y0036455D01*
X0290694Y0035457D02*
X0289745Y0035457D01*
X0289696Y0034458D02*
X0288078Y0034458D01*
X0288276Y0033460D02*
X0288697Y0033460D01*
X0303800Y0029466D02*
X0304904Y0029466D01*
X0303800Y0028467D02*
X0312997Y0028467D01*
X0312388Y0029466D02*
X0308096Y0029466D01*
X0309000Y0031500D02*
X0315654Y0031500D01*
X0318919Y0030464D02*
X0319081Y0030464D01*
X0319081Y0029466D02*
X0318919Y0029466D01*
X0318310Y0028467D02*
X0319690Y0028467D01*
X0325003Y0028467D02*
X0329955Y0028467D01*
X0329878Y0029466D02*
X0325612Y0029466D01*
X0325612Y0030464D02*
X0329878Y0030464D01*
X0335772Y0031500D02*
X0337937Y0033665D01*
X0309000Y0031500D02*
X0306500Y0034000D01*
D30*
X0130250Y0032750D03*
X0104000Y0030250D03*
X0099100Y0030250D03*
X0086500Y0044000D03*
X0061500Y0046500D03*
X0099000Y0076500D03*
D31*
X0024216Y0024000D03*
X0350988Y0024000D03*
M02*
