G75*
%MOIN*%
%OFA0B0*%
%FSLAX25Y25*%
%IPPOS*%
%LPD*%
%AMOC8*
5,1,8,0,0,1.08239X$1,22.5*
%
%ADD10C,0.00000*%
D10*
X0041213Y0021500D02*
X0333992Y0021500D01*
X0333991Y0021500D02*
X0334118Y0021087D01*
X0334255Y0020677D01*
X0334403Y0020270D01*
X0334559Y0019867D01*
X0334726Y0019468D01*
X0334903Y0019073D01*
X0335089Y0018683D01*
X0335284Y0018297D01*
X0335489Y0017917D01*
X0335703Y0017541D01*
X0335926Y0017171D01*
X0336158Y0016806D01*
X0336399Y0016447D01*
X0336649Y0016094D01*
X0336907Y0015747D01*
X0337174Y0015407D01*
X0337449Y0015073D01*
X0337732Y0014746D01*
X0338023Y0014426D01*
X0338321Y0014113D01*
X0338627Y0013807D01*
X0338941Y0013510D01*
X0339261Y0013219D01*
X0339589Y0012937D01*
X0339923Y0012663D01*
X0340264Y0012397D01*
X0340611Y0012140D01*
X0340965Y0011891D01*
X0341324Y0011651D01*
X0341690Y0011419D01*
X0342060Y0011197D01*
X0342437Y0010983D01*
X0342818Y0010779D01*
X0343204Y0010585D01*
X0343595Y0010399D01*
X0343990Y0010224D01*
X0344389Y0010058D01*
X0344792Y0009902D01*
X0345199Y0009755D01*
X0345609Y0009619D01*
X0346023Y0009493D01*
X0346439Y0009377D01*
X0346859Y0009271D01*
X0347280Y0009175D01*
X0347704Y0009090D01*
X0348130Y0009015D01*
X0348558Y0008950D01*
X0348987Y0008896D01*
X0349417Y0008853D01*
X0349848Y0008820D01*
X0350280Y0008797D01*
X0350712Y0008785D01*
X0351144Y0008784D01*
X0351577Y0008793D01*
X0352009Y0008812D01*
X0352440Y0008843D01*
X0352870Y0008883D01*
X0353300Y0008934D01*
X0353728Y0008996D01*
X0354154Y0009068D01*
X0354578Y0009151D01*
X0355001Y0009243D01*
X0355421Y0009346D01*
X0355838Y0009460D01*
X0356252Y0009583D01*
X0356664Y0009717D01*
X0357072Y0009860D01*
X0357476Y0010014D01*
X0357876Y0010177D01*
X0358272Y0010350D01*
X0358664Y0010532D01*
X0359052Y0010724D01*
X0359434Y0010926D01*
X0359812Y0011137D01*
X0360184Y0011357D01*
X0360551Y0011586D01*
X0360912Y0011823D01*
X0361267Y0012070D01*
X0361616Y0012325D01*
X0361959Y0012589D01*
X0362295Y0012861D01*
X0362625Y0013141D01*
X0362947Y0013428D01*
X0363263Y0013724D01*
X0363571Y0014028D01*
X0363872Y0014338D01*
X0364165Y0014656D01*
X0364450Y0014981D01*
X0364727Y0015313D01*
X0364996Y0015652D01*
X0365256Y0015997D01*
X0365508Y0016348D01*
X0365752Y0016706D01*
X0365986Y0017069D01*
X0366212Y0017438D01*
X0366429Y0017812D01*
X0366636Y0018191D01*
X0366834Y0018576D01*
X0367023Y0018965D01*
X0367202Y0019358D01*
X0367371Y0019756D01*
X0367531Y0020158D01*
X0367681Y0020564D01*
X0367821Y0020973D01*
X0367951Y0021385D01*
X0368070Y0021801D01*
X0368180Y0022219D01*
X0368279Y0022640D01*
X0368368Y0023063D01*
X0368447Y0023488D01*
X0368515Y0023915D01*
X0368573Y0024343D01*
X0368621Y0024773D01*
X0368658Y0025204D01*
X0368684Y0025636D01*
X0368700Y0026068D01*
X0368705Y0026500D01*
X0368705Y0081500D01*
X0368703Y0081640D01*
X0368697Y0081780D01*
X0368687Y0081920D01*
X0368674Y0082060D01*
X0368656Y0082199D01*
X0368634Y0082338D01*
X0368609Y0082475D01*
X0368580Y0082613D01*
X0368547Y0082749D01*
X0368510Y0082884D01*
X0368469Y0083018D01*
X0368424Y0083151D01*
X0368376Y0083283D01*
X0368324Y0083413D01*
X0368269Y0083542D01*
X0368210Y0083669D01*
X0368147Y0083795D01*
X0368081Y0083919D01*
X0368012Y0084040D01*
X0367939Y0084160D01*
X0367862Y0084278D01*
X0367783Y0084393D01*
X0367700Y0084507D01*
X0367614Y0084617D01*
X0367525Y0084726D01*
X0367433Y0084832D01*
X0367338Y0084935D01*
X0367241Y0085036D01*
X0367140Y0085133D01*
X0367037Y0085228D01*
X0366931Y0085320D01*
X0366822Y0085409D01*
X0366712Y0085495D01*
X0366598Y0085578D01*
X0366483Y0085657D01*
X0366365Y0085734D01*
X0366245Y0085807D01*
X0366124Y0085876D01*
X0366000Y0085942D01*
X0365874Y0086005D01*
X0365747Y0086064D01*
X0365618Y0086119D01*
X0365488Y0086171D01*
X0365356Y0086219D01*
X0365223Y0086264D01*
X0365089Y0086305D01*
X0364954Y0086342D01*
X0364818Y0086375D01*
X0364680Y0086404D01*
X0364543Y0086429D01*
X0364404Y0086451D01*
X0364265Y0086469D01*
X0364125Y0086482D01*
X0363985Y0086492D01*
X0363845Y0086498D01*
X0363705Y0086500D01*
X0011500Y0086500D01*
X0011360Y0086498D01*
X0011220Y0086492D01*
X0011080Y0086482D01*
X0010940Y0086469D01*
X0010801Y0086451D01*
X0010662Y0086429D01*
X0010525Y0086404D01*
X0010387Y0086375D01*
X0010251Y0086342D01*
X0010116Y0086305D01*
X0009982Y0086264D01*
X0009849Y0086219D01*
X0009717Y0086171D01*
X0009587Y0086119D01*
X0009458Y0086064D01*
X0009331Y0086005D01*
X0009205Y0085942D01*
X0009081Y0085876D01*
X0008960Y0085807D01*
X0008840Y0085734D01*
X0008722Y0085657D01*
X0008607Y0085578D01*
X0008493Y0085495D01*
X0008383Y0085409D01*
X0008274Y0085320D01*
X0008168Y0085228D01*
X0008065Y0085133D01*
X0007964Y0085036D01*
X0007867Y0084935D01*
X0007772Y0084832D01*
X0007680Y0084726D01*
X0007591Y0084617D01*
X0007505Y0084507D01*
X0007422Y0084393D01*
X0007343Y0084278D01*
X0007266Y0084160D01*
X0007193Y0084040D01*
X0007124Y0083919D01*
X0007058Y0083795D01*
X0006995Y0083669D01*
X0006936Y0083542D01*
X0006881Y0083413D01*
X0006829Y0083283D01*
X0006781Y0083151D01*
X0006736Y0083018D01*
X0006695Y0082884D01*
X0006658Y0082749D01*
X0006625Y0082613D01*
X0006596Y0082475D01*
X0006571Y0082338D01*
X0006549Y0082199D01*
X0006531Y0082060D01*
X0006518Y0081920D01*
X0006508Y0081780D01*
X0006502Y0081640D01*
X0006500Y0081500D01*
X0006500Y0026500D01*
X0006505Y0026068D01*
X0006521Y0025636D01*
X0006547Y0025204D01*
X0006584Y0024773D01*
X0006632Y0024343D01*
X0006690Y0023915D01*
X0006758Y0023488D01*
X0006837Y0023063D01*
X0006926Y0022640D01*
X0007025Y0022219D01*
X0007135Y0021801D01*
X0007254Y0021385D01*
X0007384Y0020973D01*
X0007524Y0020564D01*
X0007674Y0020158D01*
X0007834Y0019756D01*
X0008003Y0019358D01*
X0008182Y0018965D01*
X0008371Y0018576D01*
X0008569Y0018191D01*
X0008776Y0017812D01*
X0008993Y0017438D01*
X0009219Y0017069D01*
X0009453Y0016706D01*
X0009697Y0016348D01*
X0009949Y0015997D01*
X0010209Y0015652D01*
X0010478Y0015313D01*
X0010755Y0014981D01*
X0011040Y0014656D01*
X0011333Y0014338D01*
X0011634Y0014028D01*
X0011942Y0013724D01*
X0012258Y0013428D01*
X0012580Y0013141D01*
X0012910Y0012861D01*
X0013246Y0012589D01*
X0013589Y0012325D01*
X0013938Y0012070D01*
X0014293Y0011823D01*
X0014654Y0011586D01*
X0015021Y0011357D01*
X0015393Y0011137D01*
X0015771Y0010926D01*
X0016153Y0010724D01*
X0016541Y0010532D01*
X0016933Y0010350D01*
X0017329Y0010177D01*
X0017729Y0010014D01*
X0018133Y0009860D01*
X0018541Y0009717D01*
X0018953Y0009583D01*
X0019367Y0009460D01*
X0019784Y0009346D01*
X0020204Y0009243D01*
X0020627Y0009151D01*
X0021051Y0009068D01*
X0021477Y0008996D01*
X0021905Y0008934D01*
X0022335Y0008883D01*
X0022765Y0008843D01*
X0023196Y0008812D01*
X0023628Y0008793D01*
X0024061Y0008784D01*
X0024493Y0008785D01*
X0024925Y0008797D01*
X0025357Y0008820D01*
X0025788Y0008853D01*
X0026218Y0008896D01*
X0026647Y0008950D01*
X0027075Y0009015D01*
X0027501Y0009090D01*
X0027925Y0009175D01*
X0028346Y0009271D01*
X0028766Y0009377D01*
X0029182Y0009493D01*
X0029596Y0009619D01*
X0030006Y0009755D01*
X0030413Y0009902D01*
X0030816Y0010058D01*
X0031215Y0010224D01*
X0031610Y0010399D01*
X0032001Y0010585D01*
X0032387Y0010779D01*
X0032768Y0010983D01*
X0033145Y0011197D01*
X0033515Y0011419D01*
X0033881Y0011651D01*
X0034240Y0011891D01*
X0034594Y0012140D01*
X0034941Y0012397D01*
X0035282Y0012663D01*
X0035616Y0012937D01*
X0035944Y0013219D01*
X0036264Y0013510D01*
X0036578Y0013807D01*
X0036884Y0014113D01*
X0037182Y0014426D01*
X0037473Y0014746D01*
X0037756Y0015073D01*
X0038031Y0015407D01*
X0038298Y0015747D01*
X0038556Y0016094D01*
X0038806Y0016447D01*
X0039047Y0016806D01*
X0039279Y0017171D01*
X0039502Y0017541D01*
X0039716Y0017917D01*
X0039921Y0018297D01*
X0040116Y0018683D01*
X0040302Y0019073D01*
X0040479Y0019468D01*
X0040646Y0019867D01*
X0040802Y0020270D01*
X0040950Y0020677D01*
X0041087Y0021087D01*
X0041214Y0021500D01*
M02*
