G75*
%MOIN*%
%OFA0B0*%
%FSLAX25Y25*%
%IPPOS*%
%LPD*%
%AMOC8*
5,1,8,0,0,1.08239X$1,22.5*
%
%ADD10R,0.03500X0.01654*%
%ADD11R,0.02362X0.04331*%
%ADD12R,0.05787X0.05000*%
%ADD13R,0.04331X0.03937*%
%ADD14R,0.03937X0.04331*%
%ADD15C,0.01181*%
%ADD16R,0.03150X0.03543*%
%ADD17R,0.03543X0.03150*%
%ADD18R,0.03543X0.11811*%
%ADD19R,0.02480X0.03268*%
D10*
X0065732Y0035102D03*
X0065732Y0037661D03*
X0065732Y0040220D03*
X0065732Y0042780D03*
X0065732Y0045339D03*
X0065732Y0047898D03*
X0082268Y0047898D03*
X0082268Y0045339D03*
X0082268Y0042780D03*
X0082268Y0040220D03*
X0082268Y0037661D03*
X0082268Y0035102D03*
D11*
X0075575Y0038547D03*
X0072425Y0038547D03*
X0072425Y0044453D03*
X0075575Y0044453D03*
D12*
X0016500Y0038035D03*
X0016500Y0054965D03*
X0097750Y0063035D03*
X0097750Y0079965D03*
D13*
X0178154Y0071500D03*
X0184846Y0071500D03*
X0184846Y0064000D03*
X0178154Y0064000D03*
X0178154Y0056500D03*
X0184846Y0056500D03*
X0134846Y0044000D03*
X0128154Y0044000D03*
X0117346Y0044000D03*
X0110654Y0044000D03*
X0101096Y0054000D03*
X0094404Y0054000D03*
X0077346Y0054000D03*
X0070654Y0054000D03*
X0054846Y0054000D03*
X0048154Y0054000D03*
X0037346Y0054000D03*
X0030654Y0054000D03*
X0030654Y0046500D03*
X0037346Y0046500D03*
X0037346Y0039000D03*
X0030654Y0039000D03*
X0084404Y0026500D03*
X0091096Y0026500D03*
X0110654Y0034000D03*
X0117346Y0034000D03*
X0128154Y0034000D03*
X0134846Y0034000D03*
X0238154Y0056500D03*
X0244846Y0056500D03*
X0244846Y0064000D03*
X0238154Y0064000D03*
X0238154Y0071500D03*
X0244846Y0071500D03*
X0229846Y0071500D03*
X0223154Y0071500D03*
D14*
X0045250Y0025654D03*
X0056500Y0025654D03*
X0056500Y0032346D03*
X0045250Y0032346D03*
X0296500Y0038154D03*
X0296500Y0044846D03*
X0296500Y0053154D03*
X0296500Y0059846D03*
D15*
X0216331Y0057878D02*
X0216331Y0055122D01*
X0213575Y0055122D01*
X0213575Y0057878D01*
X0216331Y0057878D01*
X0216331Y0056302D02*
X0213575Y0056302D01*
X0213575Y0057482D02*
X0216331Y0057482D01*
X0209425Y0057878D02*
X0209425Y0055122D01*
X0206669Y0055122D01*
X0206669Y0057878D01*
X0209425Y0057878D01*
X0209425Y0056302D02*
X0206669Y0056302D01*
X0206669Y0057482D02*
X0209425Y0057482D01*
X0198575Y0057878D02*
X0198575Y0055122D01*
X0198575Y0057878D02*
X0201331Y0057878D01*
X0201331Y0055122D01*
X0198575Y0055122D01*
X0198575Y0056302D02*
X0201331Y0056302D01*
X0201331Y0057482D02*
X0198575Y0057482D01*
X0191669Y0057878D02*
X0191669Y0055122D01*
X0191669Y0057878D02*
X0194425Y0057878D01*
X0194425Y0055122D01*
X0191669Y0055122D01*
X0191669Y0056302D02*
X0194425Y0056302D01*
X0194425Y0057482D02*
X0191669Y0057482D01*
X0191669Y0062622D02*
X0191669Y0065378D01*
X0194425Y0065378D01*
X0194425Y0062622D01*
X0191669Y0062622D01*
X0191669Y0063802D02*
X0194425Y0063802D01*
X0194425Y0064982D02*
X0191669Y0064982D01*
X0198575Y0065378D02*
X0198575Y0062622D01*
X0198575Y0065378D02*
X0201331Y0065378D01*
X0201331Y0062622D01*
X0198575Y0062622D01*
X0198575Y0063802D02*
X0201331Y0063802D01*
X0201331Y0064982D02*
X0198575Y0064982D01*
X0209425Y0065378D02*
X0209425Y0062622D01*
X0206669Y0062622D01*
X0206669Y0065378D01*
X0209425Y0065378D01*
X0209425Y0063802D02*
X0206669Y0063802D01*
X0206669Y0064982D02*
X0209425Y0064982D01*
X0216331Y0065378D02*
X0216331Y0062622D01*
X0213575Y0062622D01*
X0213575Y0065378D01*
X0216331Y0065378D01*
X0216331Y0063802D02*
X0213575Y0063802D01*
X0213575Y0064982D02*
X0216331Y0064982D01*
X0216331Y0070122D02*
X0216331Y0072878D01*
X0216331Y0070122D02*
X0213575Y0070122D01*
X0213575Y0072878D01*
X0216331Y0072878D01*
X0216331Y0071302D02*
X0213575Y0071302D01*
X0213575Y0072482D02*
X0216331Y0072482D01*
X0209425Y0072878D02*
X0209425Y0070122D01*
X0206669Y0070122D01*
X0206669Y0072878D01*
X0209425Y0072878D01*
X0209425Y0071302D02*
X0206669Y0071302D01*
X0206669Y0072482D02*
X0209425Y0072482D01*
X0198575Y0072878D02*
X0198575Y0070122D01*
X0198575Y0072878D02*
X0201331Y0072878D01*
X0201331Y0070122D01*
X0198575Y0070122D01*
X0198575Y0071302D02*
X0201331Y0071302D01*
X0201331Y0072482D02*
X0198575Y0072482D01*
X0191669Y0072878D02*
X0191669Y0070122D01*
X0191669Y0072878D02*
X0194425Y0072878D01*
X0194425Y0070122D01*
X0191669Y0070122D01*
X0191669Y0071302D02*
X0194425Y0071302D01*
X0194425Y0072482D02*
X0191669Y0072482D01*
X0053575Y0047878D02*
X0053575Y0045122D01*
X0053575Y0047878D02*
X0056331Y0047878D01*
X0056331Y0045122D01*
X0053575Y0045122D01*
X0053575Y0046302D02*
X0056331Y0046302D01*
X0056331Y0047482D02*
X0053575Y0047482D01*
X0046669Y0047878D02*
X0046669Y0045122D01*
X0046669Y0047878D02*
X0049425Y0047878D01*
X0049425Y0045122D01*
X0046669Y0045122D01*
X0046669Y0046302D02*
X0049425Y0046302D01*
X0049425Y0047482D02*
X0046669Y0047482D01*
X0046669Y0040378D02*
X0046669Y0037622D01*
X0046669Y0040378D02*
X0049425Y0040378D01*
X0049425Y0037622D01*
X0046669Y0037622D01*
X0046669Y0038802D02*
X0049425Y0038802D01*
X0049425Y0039982D02*
X0046669Y0039982D01*
X0053575Y0040378D02*
X0053575Y0037622D01*
X0053575Y0040378D02*
X0056331Y0040378D01*
X0056331Y0037622D01*
X0053575Y0037622D01*
X0053575Y0038802D02*
X0056331Y0038802D01*
X0056331Y0039982D02*
X0053575Y0039982D01*
D16*
X0094010Y0037937D03*
X0101490Y0037937D03*
X0097750Y0029669D03*
X0222760Y0062937D03*
X0230240Y0062937D03*
X0226500Y0054669D03*
X0259000Y0072169D03*
X0255260Y0080437D03*
X0262740Y0080437D03*
D17*
X0305063Y0037740D03*
X0313331Y0034000D03*
X0305063Y0030260D03*
D18*
X0320220Y0043106D03*
X0330063Y0043106D03*
X0337937Y0043106D03*
X0347780Y0043106D03*
D19*
X0102278Y0046500D03*
X0093222Y0046500D03*
M02*
