%
M48
M72
T01C0.0197
T02C0.0276
T03C0.0320
T04C0.0400
T05C0.0910
T06C0.1180
T07C0.1772
%
T01
X9650Y3150
X7650Y3650
X6900Y4650
X13400Y2900
X9650Y7650
T02
X7294Y6400
X6506Y6400
X15650Y4400
X15650Y3400
T03
X22150Y6150
X23150Y6150
X22650Y6900
X25650Y7650
X26650Y7650
X26150Y6900
X29900Y3900
X30650Y3400
X29900Y2900
X13885Y6400
X11915Y6400
T04
X15650Y5900
X15650Y6900
X15650Y7900
X25650Y5900
X28650Y5900
X28650Y4900
X25650Y4900
X24150Y4280
X23150Y4280
X22150Y4280
X20150Y4280
X19150Y4280
X18150Y4280
X25650Y3900
X28650Y3900
X28650Y2900
X25650Y2900
X27900Y7650
X28900Y7650
X29900Y7650
T05
X30815Y5969
X35985Y5969
T06
X3650Y6869
X1800Y5687
X3650Y4506
T07
X2422Y2400
X35099Y2400
M30
