G75*
%MOIN*%
%OFA0B0*%
%FSLAX25Y25*%
%IPPOS*%
%LPD*%
%AMOC8*
5,1,8,0,0,1.08239X$1,22.5*
%
%ADD10C,0.06500*%
%ADD11R,0.06500X0.06500*%
%ADD12R,0.07400X0.07400*%
%ADD13C,0.07400*%
%ADD14C,0.13100*%
%ADD15C,0.07000*%
%ADD16R,0.08000X0.08000*%
%ADD17C,0.08000*%
%ADD18C,0.01000*%
%ADD19C,0.03369*%
%ADD20C,0.21716*%
D10*
X0156500Y0041500D03*
X0133850Y0066500D03*
X0114150Y0066500D03*
D11*
X0156500Y0031500D03*
D12*
X0256500Y0059000D03*
X0276500Y0076500D03*
D13*
X0286500Y0076500D03*
X0296500Y0076500D03*
X0286500Y0059000D03*
X0286500Y0049000D03*
X0256500Y0049000D03*
X0256500Y0039000D03*
X0286500Y0039000D03*
X0286500Y0029000D03*
X0256500Y0029000D03*
X0156500Y0059000D03*
X0156500Y0069000D03*
X0156500Y0079000D03*
D14*
X0308150Y0059689D03*
X0359850Y0059689D03*
D15*
X0241500Y0042800D03*
X0231500Y0042800D03*
X0221500Y0042800D03*
X0201500Y0042800D03*
X0191500Y0042800D03*
X0181500Y0042800D03*
D16*
X0078370Y0076500D03*
X0039000Y0076500D03*
D17*
X0058685Y0076500D03*
X0019315Y0076500D03*
D18*
X0018058Y0012040D02*
X0021976Y0010944D01*
X0026044Y0010890D01*
X0029989Y0011882D01*
X0033548Y0013854D01*
X0036482Y0016673D01*
X0038593Y0020150D01*
X0039213Y0021842D01*
X0039213Y0022328D01*
X0039438Y0022554D01*
X0039528Y0022859D01*
X0040002Y0023118D01*
X0040384Y0023500D01*
X0040703Y0023500D01*
X0040983Y0023652D01*
X0041501Y0023500D01*
X0333704Y0023500D01*
X0334222Y0023652D01*
X0334502Y0023500D01*
X0334821Y0023500D01*
X0335203Y0023118D01*
X0335677Y0022859D01*
X0335767Y0022554D01*
X0335992Y0022328D01*
X0335992Y0021842D01*
X0336612Y0020150D01*
X0338723Y0016673D01*
X0341657Y0013854D01*
X0345216Y0011882D01*
X0345216Y0011882D01*
X0349161Y0010890D01*
X0353229Y0010944D01*
X0357147Y0012040D01*
X0360652Y0014106D01*
X0363510Y0017001D01*
X0365529Y0020534D01*
X0366573Y0024466D01*
X0366705Y0026500D01*
X0366705Y0056248D01*
X0366335Y0055356D01*
X0364183Y0053204D01*
X0361372Y0052039D01*
X0358328Y0052039D01*
X0355517Y0053204D01*
X0353365Y0055356D01*
X0352200Y0058167D01*
X0352200Y0061211D01*
X0353365Y0064022D01*
X0355517Y0066174D01*
X0358328Y0067339D01*
X0361372Y0067339D01*
X0364183Y0066174D01*
X0366335Y0064022D01*
X0366705Y0063130D01*
X0366705Y0081500D01*
X0366647Y0082085D01*
X0366199Y0083167D01*
X0365372Y0083994D01*
X0364290Y0084442D01*
X0363705Y0084500D01*
X0011500Y0084500D01*
X0010915Y0084442D01*
X0009833Y0083994D01*
X0009006Y0083167D01*
X0008558Y0082085D01*
X0008500Y0081500D01*
X0008500Y0026500D01*
X0008632Y0024466D01*
X0009676Y0020534D01*
X0011695Y0017001D01*
X0014553Y0014106D01*
X0018058Y0012040D01*
X0017293Y0012491D02*
X0020965Y0012491D01*
X0020016Y0011493D02*
X0028440Y0011493D01*
X0027468Y0012491D02*
X0031089Y0012491D01*
X0029928Y0013490D02*
X0032891Y0013490D01*
X0031616Y0014488D02*
X0034208Y0014488D01*
X0035247Y0015487D02*
X0032615Y0015487D01*
X0033613Y0016485D02*
X0036286Y0016485D01*
X0036974Y0017484D02*
X0034262Y0017484D01*
X0033785Y0016657D02*
X0035360Y0019384D01*
X0036175Y0022426D01*
X0036175Y0025574D01*
X0035360Y0028616D01*
X0033785Y0031343D01*
X0031559Y0033569D01*
X0028832Y0035143D01*
X0025791Y0035958D01*
X0022642Y0035958D01*
X0019601Y0035143D01*
X0016874Y0033569D01*
X0014648Y0031343D01*
X0013073Y0028616D01*
X0012258Y0025574D01*
X0012258Y0022426D01*
X0013073Y0019384D01*
X0014648Y0016657D01*
X0016874Y0014431D01*
X0019601Y0012857D01*
X0022642Y0012042D01*
X0025791Y0012042D01*
X0028832Y0012857D01*
X0031559Y0014431D01*
X0033785Y0016657D01*
X0034839Y0018482D02*
X0037580Y0018482D01*
X0038187Y0019481D02*
X0035386Y0019481D01*
X0035653Y0020479D02*
X0038714Y0020479D01*
X0039079Y0021478D02*
X0035921Y0021478D01*
X0036175Y0022476D02*
X0039361Y0022476D01*
X0040359Y0023475D02*
X0036175Y0023475D01*
X0036175Y0024473D02*
X0253930Y0024473D01*
X0253775Y0024553D02*
X0254504Y0024181D01*
X0255282Y0023928D01*
X0256000Y0023814D01*
X0256000Y0028500D01*
X0257000Y0028500D01*
X0257000Y0029500D01*
X0261686Y0029500D01*
X0261572Y0030218D01*
X0261319Y0030996D01*
X0260947Y0031725D01*
X0260466Y0032388D01*
X0259888Y0032966D01*
X0259225Y0033447D01*
X0258496Y0033819D01*
X0257718Y0034072D01*
X0257000Y0034186D01*
X0257000Y0029500D01*
X0256000Y0029500D01*
X0256000Y0034186D01*
X0255282Y0034072D01*
X0254504Y0033819D01*
X0253775Y0033447D01*
X0253112Y0032966D01*
X0252534Y0032388D01*
X0252053Y0031725D01*
X0251681Y0030996D01*
X0251428Y0030218D01*
X0251314Y0029500D01*
X0256000Y0029500D01*
X0256000Y0028500D01*
X0251314Y0028500D01*
X0251428Y0027782D01*
X0251681Y0027004D01*
X0252053Y0026275D01*
X0252534Y0025612D01*
X0253112Y0025034D01*
X0253775Y0024553D01*
X0252674Y0025472D02*
X0036175Y0025472D01*
X0035935Y0026470D02*
X0251953Y0026470D01*
X0251530Y0027469D02*
X0160524Y0027469D01*
X0160206Y0027150D02*
X0160850Y0027794D01*
X0160850Y0035206D01*
X0160206Y0035850D01*
X0152794Y0035850D01*
X0152150Y0035206D01*
X0152150Y0027794D01*
X0152794Y0027150D01*
X0160206Y0027150D01*
X0160850Y0028467D02*
X0251320Y0028467D01*
X0256000Y0028467D02*
X0257000Y0028467D01*
X0257000Y0028500D02*
X0257000Y0023814D01*
X0257718Y0023928D01*
X0258496Y0024181D01*
X0259225Y0024553D01*
X0259888Y0025034D01*
X0260466Y0025612D01*
X0260947Y0026275D01*
X0261319Y0027004D01*
X0261572Y0027782D01*
X0261686Y0028500D01*
X0257000Y0028500D01*
X0257000Y0029466D02*
X0281700Y0029466D01*
X0281700Y0029955D02*
X0281700Y0028045D01*
X0282431Y0026281D01*
X0283781Y0024931D01*
X0285545Y0024200D01*
X0287455Y0024200D01*
X0289219Y0024931D01*
X0290569Y0026281D01*
X0291300Y0028045D01*
X0291300Y0029955D01*
X0290569Y0031719D01*
X0289219Y0033069D01*
X0287455Y0033800D01*
X0285545Y0033800D01*
X0283781Y0033069D01*
X0282431Y0031719D01*
X0281700Y0029955D01*
X0281911Y0030464D02*
X0261492Y0030464D01*
X0261081Y0031463D02*
X0282325Y0031463D01*
X0283173Y0032461D02*
X0260393Y0032461D01*
X0259201Y0033460D02*
X0284724Y0033460D01*
X0284922Y0034458D02*
X0258078Y0034458D01*
X0257455Y0034200D02*
X0259219Y0034931D01*
X0260569Y0036281D01*
X0261300Y0038045D01*
X0261300Y0039955D01*
X0260569Y0041719D01*
X0259219Y0043069D01*
X0257455Y0043800D01*
X0255545Y0043800D01*
X0253781Y0043069D01*
X0252431Y0041719D01*
X0251700Y0039955D01*
X0251700Y0038045D01*
X0252431Y0036281D01*
X0253781Y0034931D01*
X0255545Y0034200D01*
X0257455Y0034200D01*
X0257000Y0033460D02*
X0256000Y0033460D01*
X0256000Y0032461D02*
X0257000Y0032461D01*
X0257000Y0031463D02*
X0256000Y0031463D01*
X0256000Y0030464D02*
X0257000Y0030464D01*
X0256000Y0029466D02*
X0160850Y0029466D01*
X0160850Y0030464D02*
X0251508Y0030464D01*
X0251919Y0031463D02*
X0160850Y0031463D01*
X0160850Y0032461D02*
X0252607Y0032461D01*
X0253799Y0033460D02*
X0160850Y0033460D01*
X0160850Y0034458D02*
X0254922Y0034458D01*
X0253255Y0035457D02*
X0160599Y0035457D01*
X0159012Y0037454D02*
X0251945Y0037454D01*
X0251700Y0038452D02*
X0243024Y0038452D01*
X0242415Y0038200D02*
X0244106Y0038900D01*
X0245400Y0040194D01*
X0246100Y0041885D01*
X0246100Y0043715D01*
X0245400Y0045406D01*
X0244106Y0046700D01*
X0242415Y0047400D01*
X0240585Y0047400D01*
X0238894Y0046700D01*
X0237600Y0045406D01*
X0236900Y0043715D01*
X0236900Y0041885D01*
X0237600Y0040194D01*
X0238894Y0038900D01*
X0240585Y0038200D01*
X0242415Y0038200D01*
X0239976Y0038452D02*
X0233024Y0038452D01*
X0232415Y0038200D02*
X0234106Y0038900D01*
X0235400Y0040194D01*
X0236100Y0041885D01*
X0236100Y0043715D01*
X0235400Y0045406D01*
X0234106Y0046700D01*
X0232415Y0047400D01*
X0230585Y0047400D01*
X0228894Y0046700D01*
X0227600Y0045406D01*
X0226900Y0043715D01*
X0226900Y0041885D01*
X0227600Y0040194D01*
X0228894Y0038900D01*
X0230585Y0038200D01*
X0232415Y0038200D01*
X0229976Y0038452D02*
X0223981Y0038452D01*
X0224121Y0038524D02*
X0224757Y0038986D01*
X0225314Y0039543D01*
X0225776Y0040179D01*
X0226134Y0040881D01*
X0226377Y0041629D01*
X0226483Y0042300D01*
X0222000Y0042300D01*
X0222000Y0043300D01*
X0226483Y0043300D01*
X0226377Y0043971D01*
X0226134Y0044719D01*
X0225776Y0045421D01*
X0225314Y0046057D01*
X0224757Y0046614D01*
X0224121Y0047076D01*
X0223419Y0047434D01*
X0222671Y0047677D01*
X0222000Y0047783D01*
X0222000Y0043300D01*
X0221000Y0043300D01*
X0221000Y0047783D01*
X0220329Y0047677D01*
X0219581Y0047434D01*
X0218879Y0047076D01*
X0218243Y0046614D01*
X0217686Y0046057D01*
X0217224Y0045421D01*
X0216866Y0044719D01*
X0216623Y0043971D01*
X0216517Y0043300D01*
X0221000Y0043300D01*
X0221000Y0042300D01*
X0222000Y0042300D01*
X0222000Y0037817D01*
X0222671Y0037923D01*
X0223419Y0038166D01*
X0224121Y0038524D01*
X0225222Y0039451D02*
X0228344Y0039451D01*
X0227495Y0040449D02*
X0225914Y0040449D01*
X0226318Y0041448D02*
X0227081Y0041448D01*
X0226900Y0042446D02*
X0222000Y0042446D01*
X0222000Y0041448D02*
X0221000Y0041448D01*
X0221000Y0042300D02*
X0221000Y0037817D01*
X0220329Y0037923D01*
X0219581Y0038166D01*
X0218879Y0038524D01*
X0218243Y0038986D01*
X0217686Y0039543D01*
X0217224Y0040179D01*
X0216866Y0040881D01*
X0216623Y0041629D01*
X0216517Y0042300D01*
X0221000Y0042300D01*
X0221000Y0042446D02*
X0206100Y0042446D01*
X0206100Y0041885D02*
X0205400Y0040194D01*
X0204106Y0038900D01*
X0202415Y0038200D01*
X0200585Y0038200D01*
X0198894Y0038900D01*
X0197600Y0040194D01*
X0196900Y0041885D01*
X0196900Y0043715D01*
X0197600Y0045406D01*
X0198894Y0046700D01*
X0200585Y0047400D01*
X0202415Y0047400D01*
X0204106Y0046700D01*
X0205400Y0045406D01*
X0206100Y0043715D01*
X0206100Y0041885D01*
X0205919Y0041448D02*
X0216682Y0041448D01*
X0217086Y0040449D02*
X0205505Y0040449D01*
X0204656Y0039451D02*
X0217778Y0039451D01*
X0219019Y0038452D02*
X0203024Y0038452D01*
X0199976Y0038452D02*
X0193024Y0038452D01*
X0192415Y0038200D02*
X0194106Y0038900D01*
X0195400Y0040194D01*
X0196100Y0041885D01*
X0196100Y0043715D01*
X0195400Y0045406D01*
X0194106Y0046700D01*
X0192415Y0047400D01*
X0190585Y0047400D01*
X0188894Y0046700D01*
X0187600Y0045406D01*
X0186900Y0043715D01*
X0186900Y0041885D01*
X0187600Y0040194D01*
X0188894Y0038900D01*
X0190585Y0038200D01*
X0192415Y0038200D01*
X0189976Y0038452D02*
X0183981Y0038452D01*
X0184121Y0038524D02*
X0184757Y0038986D01*
X0185314Y0039543D01*
X0185776Y0040179D01*
X0186134Y0040881D01*
X0186377Y0041629D01*
X0186483Y0042300D01*
X0182000Y0042300D01*
X0182000Y0043300D01*
X0186483Y0043300D01*
X0186377Y0043971D01*
X0186134Y0044719D01*
X0185776Y0045421D01*
X0185314Y0046057D01*
X0184757Y0046614D01*
X0184121Y0047076D01*
X0183419Y0047434D01*
X0182671Y0047677D01*
X0182000Y0047783D01*
X0182000Y0043300D01*
X0181000Y0043300D01*
X0181000Y0047783D01*
X0180329Y0047677D01*
X0179581Y0047434D01*
X0178879Y0047076D01*
X0178243Y0046614D01*
X0177686Y0046057D01*
X0177224Y0045421D01*
X0176866Y0044719D01*
X0176623Y0043971D01*
X0176517Y0043300D01*
X0181000Y0043300D01*
X0181000Y0042300D01*
X0182000Y0042300D01*
X0182000Y0037817D01*
X0182671Y0037923D01*
X0183419Y0038166D01*
X0184121Y0038524D01*
X0185222Y0039451D02*
X0188344Y0039451D01*
X0187495Y0040449D02*
X0185914Y0040449D01*
X0186318Y0041448D02*
X0187081Y0041448D01*
X0186900Y0042446D02*
X0182000Y0042446D01*
X0182000Y0041448D02*
X0181000Y0041448D01*
X0181000Y0042300D02*
X0181000Y0037817D01*
X0180329Y0037923D01*
X0179581Y0038166D01*
X0178879Y0038524D01*
X0178243Y0038986D01*
X0177686Y0039543D01*
X0177224Y0040179D01*
X0176866Y0040881D01*
X0176623Y0041629D01*
X0176517Y0042300D01*
X0181000Y0042300D01*
X0181000Y0042446D02*
X0161159Y0042446D01*
X0161133Y0042612D02*
X0160902Y0043323D01*
X0160563Y0043990D01*
X0160123Y0044594D01*
X0159594Y0045123D01*
X0158990Y0045563D01*
X0158323Y0045902D01*
X0157612Y0046133D01*
X0156874Y0046250D01*
X0156689Y0046250D01*
X0156689Y0041689D01*
X0156311Y0041689D01*
X0156311Y0046250D01*
X0156126Y0046250D01*
X0155388Y0046133D01*
X0154677Y0045902D01*
X0154010Y0045563D01*
X0153406Y0045123D01*
X0152877Y0044594D01*
X0152437Y0043990D01*
X0152098Y0043323D01*
X0151867Y0042612D01*
X0151750Y0041874D01*
X0151750Y0041689D01*
X0156311Y0041689D01*
X0156311Y0041311D01*
X0151750Y0041311D01*
X0151750Y0041126D01*
X0151867Y0040388D01*
X0152098Y0039677D01*
X0152437Y0039010D01*
X0152877Y0038406D01*
X0153406Y0037877D01*
X0154010Y0037437D01*
X0154677Y0037098D01*
X0155388Y0036867D01*
X0156126Y0036750D01*
X0156311Y0036750D01*
X0156311Y0041311D01*
X0156689Y0041311D01*
X0156689Y0041689D01*
X0161250Y0041689D01*
X0161250Y0041874D01*
X0161133Y0042612D01*
X0160840Y0043445D02*
X0176540Y0043445D01*
X0176777Y0044443D02*
X0160233Y0044443D01*
X0159156Y0045442D02*
X0177239Y0045442D01*
X0178069Y0046440D02*
X0008500Y0046440D01*
X0008500Y0045442D02*
X0153844Y0045442D01*
X0152767Y0044443D02*
X0008500Y0044443D01*
X0008500Y0043445D02*
X0152160Y0043445D01*
X0151841Y0042446D02*
X0008500Y0042446D01*
X0008500Y0041448D02*
X0156311Y0041448D01*
X0156689Y0041448D02*
X0176682Y0041448D01*
X0177086Y0040449D02*
X0161143Y0040449D01*
X0161133Y0040388D02*
X0161250Y0041126D01*
X0161250Y0041311D01*
X0156689Y0041311D01*
X0156689Y0036750D01*
X0156874Y0036750D01*
X0157612Y0036867D01*
X0158323Y0037098D01*
X0158990Y0037437D01*
X0159594Y0037877D01*
X0160123Y0038406D01*
X0160563Y0039010D01*
X0160902Y0039677D01*
X0161133Y0040388D01*
X0160787Y0039451D02*
X0177778Y0039451D01*
X0179019Y0038452D02*
X0160157Y0038452D01*
X0156689Y0038452D02*
X0156311Y0038452D01*
X0156311Y0037454D02*
X0156689Y0037454D01*
X0153988Y0037454D02*
X0008500Y0037454D01*
X0008500Y0038452D02*
X0152843Y0038452D01*
X0152213Y0039451D02*
X0008500Y0039451D01*
X0008500Y0040449D02*
X0151857Y0040449D01*
X0156311Y0040449D02*
X0156689Y0040449D01*
X0156689Y0039451D02*
X0156311Y0039451D01*
X0156311Y0042446D02*
X0156689Y0042446D01*
X0156689Y0043445D02*
X0156311Y0043445D01*
X0156311Y0044443D02*
X0156689Y0044443D01*
X0156689Y0045442D02*
X0156311Y0045442D01*
X0179597Y0047439D02*
X0008500Y0047439D01*
X0008500Y0048437D02*
X0251700Y0048437D01*
X0251700Y0048045D02*
X0252431Y0046281D01*
X0253781Y0044931D01*
X0255545Y0044200D01*
X0257455Y0044200D01*
X0259219Y0044931D01*
X0260569Y0046281D01*
X0261300Y0048045D01*
X0261300Y0049955D01*
X0260569Y0051719D01*
X0259219Y0053069D01*
X0257455Y0053800D01*
X0255545Y0053800D01*
X0253781Y0053069D01*
X0252431Y0051719D01*
X0251700Y0049955D01*
X0251700Y0048045D01*
X0251951Y0047439D02*
X0223403Y0047439D01*
X0222000Y0047439D02*
X0221000Y0047439D01*
X0221000Y0046440D02*
X0222000Y0046440D01*
X0222000Y0045442D02*
X0221000Y0045442D01*
X0221000Y0044443D02*
X0222000Y0044443D01*
X0222000Y0043445D02*
X0221000Y0043445D01*
X0226223Y0044443D02*
X0227202Y0044443D01*
X0226900Y0043445D02*
X0226460Y0043445D01*
X0225761Y0045442D02*
X0227637Y0045442D01*
X0228635Y0046440D02*
X0224931Y0046440D01*
X0219597Y0047439D02*
X0183403Y0047439D01*
X0182000Y0047439D02*
X0181000Y0047439D01*
X0181000Y0046440D02*
X0182000Y0046440D01*
X0182000Y0045442D02*
X0181000Y0045442D01*
X0181000Y0044443D02*
X0182000Y0044443D01*
X0182000Y0043445D02*
X0181000Y0043445D01*
X0186223Y0044443D02*
X0187202Y0044443D01*
X0186900Y0043445D02*
X0186460Y0043445D01*
X0185761Y0045442D02*
X0187637Y0045442D01*
X0188635Y0046440D02*
X0184931Y0046440D01*
X0194365Y0046440D02*
X0198635Y0046440D01*
X0197637Y0045442D02*
X0195363Y0045442D01*
X0195798Y0044443D02*
X0197202Y0044443D01*
X0196900Y0043445D02*
X0196100Y0043445D01*
X0196100Y0042446D02*
X0196900Y0042446D01*
X0197081Y0041448D02*
X0195919Y0041448D01*
X0195505Y0040449D02*
X0197495Y0040449D01*
X0198344Y0039451D02*
X0194656Y0039451D01*
X0206100Y0043445D02*
X0216540Y0043445D01*
X0216777Y0044443D02*
X0205798Y0044443D01*
X0205363Y0045442D02*
X0217239Y0045442D01*
X0218069Y0046440D02*
X0204365Y0046440D01*
X0221000Y0040449D02*
X0222000Y0040449D01*
X0222000Y0039451D02*
X0221000Y0039451D01*
X0221000Y0038452D02*
X0222000Y0038452D01*
X0234656Y0039451D02*
X0238344Y0039451D01*
X0237495Y0040449D02*
X0235505Y0040449D01*
X0235919Y0041448D02*
X0237081Y0041448D01*
X0236900Y0042446D02*
X0236100Y0042446D01*
X0236100Y0043445D02*
X0236900Y0043445D01*
X0237202Y0044443D02*
X0235798Y0044443D01*
X0235363Y0045442D02*
X0237637Y0045442D01*
X0238635Y0046440D02*
X0234365Y0046440D01*
X0244365Y0046440D02*
X0252365Y0046440D01*
X0253270Y0045442D02*
X0245363Y0045442D01*
X0245798Y0044443D02*
X0254958Y0044443D01*
X0254688Y0043445D02*
X0246100Y0043445D01*
X0246100Y0042446D02*
X0253158Y0042446D01*
X0252318Y0041448D02*
X0245919Y0041448D01*
X0245505Y0040449D02*
X0251905Y0040449D01*
X0251700Y0039451D02*
X0244656Y0039451D01*
X0252359Y0036455D02*
X0008500Y0036455D01*
X0008500Y0035457D02*
X0020771Y0035457D01*
X0018414Y0034458D02*
X0008500Y0034458D01*
X0008500Y0033460D02*
X0016765Y0033460D01*
X0015766Y0032461D02*
X0008500Y0032461D01*
X0008500Y0031463D02*
X0014768Y0031463D01*
X0014140Y0030464D02*
X0008500Y0030464D01*
X0008500Y0029466D02*
X0013564Y0029466D01*
X0013033Y0028467D02*
X0008500Y0028467D01*
X0008500Y0027469D02*
X0012766Y0027469D01*
X0012498Y0026470D02*
X0008502Y0026470D01*
X0008567Y0025472D02*
X0012258Y0025472D01*
X0012258Y0024473D02*
X0008632Y0024473D01*
X0008895Y0023475D02*
X0012258Y0023475D01*
X0012258Y0022476D02*
X0009161Y0022476D01*
X0009426Y0021478D02*
X0012512Y0021478D01*
X0012780Y0020479D02*
X0009708Y0020479D01*
X0010278Y0019481D02*
X0013047Y0019481D01*
X0013594Y0018482D02*
X0010849Y0018482D01*
X0011420Y0017484D02*
X0014171Y0017484D01*
X0014820Y0016485D02*
X0012205Y0016485D01*
X0013190Y0015487D02*
X0015818Y0015487D01*
X0016817Y0014488D02*
X0014175Y0014488D01*
X0015598Y0013490D02*
X0018505Y0013490D01*
X0035667Y0027469D02*
X0152476Y0027469D01*
X0152150Y0028467D02*
X0035400Y0028467D01*
X0034869Y0029466D02*
X0152150Y0029466D01*
X0152150Y0030464D02*
X0034293Y0030464D01*
X0033665Y0031463D02*
X0152150Y0031463D01*
X0152150Y0032461D02*
X0032667Y0032461D01*
X0031668Y0033460D02*
X0152150Y0033460D01*
X0152150Y0034458D02*
X0030019Y0034458D01*
X0027662Y0035457D02*
X0152401Y0035457D01*
X0181000Y0038452D02*
X0182000Y0038452D01*
X0182000Y0039451D02*
X0181000Y0039451D01*
X0181000Y0040449D02*
X0182000Y0040449D01*
X0160569Y0056281D02*
X0159219Y0054931D01*
X0157455Y0054200D01*
X0155545Y0054200D01*
X0153781Y0054931D01*
X0152431Y0056281D01*
X0151700Y0058045D01*
X0151700Y0059955D01*
X0152431Y0061719D01*
X0153781Y0063069D01*
X0155545Y0063800D01*
X0157455Y0063800D01*
X0159219Y0063069D01*
X0160569Y0061719D01*
X0161300Y0059955D01*
X0161300Y0058045D01*
X0160569Y0056281D01*
X0160629Y0056426D02*
X0251700Y0056426D01*
X0251700Y0057424D02*
X0161043Y0057424D01*
X0161300Y0058423D02*
X0251700Y0058423D01*
X0251700Y0059421D02*
X0161300Y0059421D01*
X0161107Y0060420D02*
X0251700Y0060420D01*
X0251700Y0061418D02*
X0160694Y0061418D01*
X0159872Y0062417D02*
X0251700Y0062417D01*
X0251700Y0063156D02*
X0251700Y0054844D01*
X0252344Y0054200D01*
X0260656Y0054200D01*
X0261300Y0054844D01*
X0261300Y0063156D01*
X0260656Y0063800D01*
X0252344Y0063800D01*
X0251700Y0063156D01*
X0251960Y0063415D02*
X0158384Y0063415D01*
X0158496Y0064181D02*
X0159225Y0064553D01*
X0159888Y0065034D01*
X0160466Y0065612D01*
X0160947Y0066275D01*
X0161319Y0067004D01*
X0161572Y0067782D01*
X0161686Y0068500D01*
X0157000Y0068500D01*
X0157000Y0069500D01*
X0161686Y0069500D01*
X0161572Y0070218D01*
X0161319Y0070996D01*
X0160947Y0071725D01*
X0160466Y0072388D01*
X0159888Y0072966D01*
X0159225Y0073447D01*
X0158496Y0073819D01*
X0157718Y0074072D01*
X0157000Y0074186D01*
X0157000Y0069500D01*
X0156000Y0069500D01*
X0156000Y0074186D01*
X0155282Y0074072D01*
X0154504Y0073819D01*
X0153775Y0073447D01*
X0153112Y0072966D01*
X0152534Y0072388D01*
X0152053Y0071725D01*
X0151681Y0070996D01*
X0151428Y0070218D01*
X0151314Y0069500D01*
X0156000Y0069500D01*
X0156000Y0068500D01*
X0157000Y0068500D01*
X0157000Y0063814D01*
X0157718Y0063928D01*
X0158496Y0064181D01*
X0158953Y0064414D02*
X0302056Y0064414D01*
X0301665Y0064022D02*
X0300500Y0061211D01*
X0300500Y0058167D01*
X0301665Y0055356D01*
X0303817Y0053204D01*
X0306628Y0052039D01*
X0309672Y0052039D01*
X0312483Y0053204D01*
X0314635Y0055356D01*
X0315800Y0058167D01*
X0315800Y0061211D01*
X0314635Y0064022D01*
X0312483Y0066174D01*
X0309672Y0067339D01*
X0306628Y0067339D01*
X0303817Y0066174D01*
X0301665Y0064022D01*
X0301413Y0063415D02*
X0288384Y0063415D01*
X0289219Y0063069D02*
X0287455Y0063800D01*
X0285545Y0063800D01*
X0283781Y0063069D01*
X0282431Y0061719D01*
X0281700Y0059955D01*
X0281700Y0058045D01*
X0282431Y0056281D01*
X0283781Y0054931D01*
X0285545Y0054200D01*
X0287455Y0054200D01*
X0289219Y0054931D01*
X0290569Y0056281D01*
X0291300Y0058045D01*
X0291300Y0059955D01*
X0290569Y0061719D01*
X0289219Y0063069D01*
X0289872Y0062417D02*
X0301000Y0062417D01*
X0300586Y0061418D02*
X0290694Y0061418D01*
X0291107Y0060420D02*
X0300500Y0060420D01*
X0300500Y0059421D02*
X0291300Y0059421D01*
X0291300Y0058423D02*
X0300500Y0058423D01*
X0300808Y0057424D02*
X0291043Y0057424D01*
X0290629Y0056426D02*
X0301221Y0056426D01*
X0301635Y0055427D02*
X0289715Y0055427D01*
X0288007Y0054429D02*
X0302592Y0054429D01*
X0303590Y0053430D02*
X0288348Y0053430D01*
X0289219Y0053069D02*
X0287455Y0053800D01*
X0285545Y0053800D01*
X0283781Y0053069D01*
X0282431Y0051719D01*
X0281700Y0049955D01*
X0281700Y0048045D01*
X0282431Y0046281D01*
X0283781Y0044931D01*
X0285545Y0044200D01*
X0287455Y0044200D01*
X0289219Y0044931D01*
X0290569Y0046281D01*
X0291300Y0048045D01*
X0291300Y0049955D01*
X0290569Y0051719D01*
X0289219Y0053069D01*
X0289857Y0052432D02*
X0305681Y0052432D01*
X0310619Y0052432D02*
X0357381Y0052432D01*
X0355290Y0053430D02*
X0312710Y0053430D01*
X0313708Y0054429D02*
X0354292Y0054429D01*
X0353335Y0055427D02*
X0314665Y0055427D01*
X0315079Y0056426D02*
X0352921Y0056426D01*
X0352508Y0057424D02*
X0315492Y0057424D01*
X0315800Y0058423D02*
X0352200Y0058423D01*
X0352200Y0059421D02*
X0315800Y0059421D01*
X0315800Y0060420D02*
X0352200Y0060420D01*
X0352286Y0061418D02*
X0315714Y0061418D01*
X0315300Y0062417D02*
X0352700Y0062417D01*
X0353113Y0063415D02*
X0314887Y0063415D01*
X0314244Y0064414D02*
X0353756Y0064414D01*
X0354754Y0065412D02*
X0313246Y0065412D01*
X0311913Y0066411D02*
X0356087Y0066411D01*
X0363613Y0066411D02*
X0366705Y0066411D01*
X0366705Y0067409D02*
X0161451Y0067409D01*
X0161671Y0068408D02*
X0366705Y0068408D01*
X0366705Y0069406D02*
X0157000Y0069406D01*
X0157000Y0068408D02*
X0156000Y0068408D01*
X0156000Y0068500D02*
X0156000Y0063814D01*
X0155282Y0063928D01*
X0154504Y0064181D01*
X0153775Y0064553D01*
X0153112Y0065034D01*
X0152534Y0065612D01*
X0152053Y0066275D01*
X0151681Y0067004D01*
X0151428Y0067782D01*
X0151314Y0068500D01*
X0156000Y0068500D01*
X0156000Y0069406D02*
X0137096Y0069406D01*
X0137538Y0068964D02*
X0136314Y0070188D01*
X0134715Y0070850D01*
X0132985Y0070850D01*
X0131386Y0070188D01*
X0130162Y0068964D01*
X0129500Y0067365D01*
X0129500Y0065635D01*
X0130162Y0064036D01*
X0131386Y0062812D01*
X0132985Y0062150D01*
X0134715Y0062150D01*
X0136314Y0062812D01*
X0137538Y0064036D01*
X0138200Y0065635D01*
X0138200Y0067365D01*
X0137538Y0068964D01*
X0137768Y0068408D02*
X0151329Y0068408D01*
X0151549Y0067409D02*
X0138182Y0067409D01*
X0138200Y0066411D02*
X0151983Y0066411D01*
X0152734Y0065412D02*
X0138108Y0065412D01*
X0137694Y0064414D02*
X0154047Y0064414D01*
X0154616Y0063415D02*
X0136917Y0063415D01*
X0135359Y0062417D02*
X0153128Y0062417D01*
X0152306Y0061418D02*
X0008500Y0061418D01*
X0008500Y0060420D02*
X0151893Y0060420D01*
X0151700Y0059421D02*
X0008500Y0059421D01*
X0008500Y0058423D02*
X0151700Y0058423D01*
X0151957Y0057424D02*
X0008500Y0057424D01*
X0008500Y0056426D02*
X0152371Y0056426D01*
X0153285Y0055427D02*
X0008500Y0055427D01*
X0008500Y0054429D02*
X0154993Y0054429D01*
X0158007Y0054429D02*
X0252116Y0054429D01*
X0251700Y0055427D02*
X0159715Y0055427D01*
X0132341Y0062417D02*
X0115659Y0062417D01*
X0115015Y0062150D02*
X0116614Y0062812D01*
X0117838Y0064036D01*
X0118500Y0065635D01*
X0118500Y0067365D01*
X0117838Y0068964D01*
X0116614Y0070188D01*
X0115015Y0070850D01*
X0113285Y0070850D01*
X0111686Y0070188D01*
X0110462Y0068964D01*
X0109800Y0067365D01*
X0109800Y0065635D01*
X0110462Y0064036D01*
X0111686Y0062812D01*
X0113285Y0062150D01*
X0115015Y0062150D01*
X0112641Y0062417D02*
X0008500Y0062417D01*
X0008500Y0063415D02*
X0111083Y0063415D01*
X0110306Y0064414D02*
X0008500Y0064414D01*
X0008500Y0065412D02*
X0109892Y0065412D01*
X0109800Y0066411D02*
X0008500Y0066411D01*
X0008500Y0067409D02*
X0109818Y0067409D01*
X0110232Y0068408D02*
X0008500Y0068408D01*
X0008500Y0069406D02*
X0110904Y0069406D01*
X0112210Y0070405D02*
X0008500Y0070405D01*
X0008500Y0071403D02*
X0018293Y0071403D01*
X0018300Y0071400D02*
X0020329Y0071400D01*
X0022204Y0072176D01*
X0023639Y0073611D01*
X0024415Y0075486D01*
X0024415Y0077514D01*
X0023639Y0079389D01*
X0022204Y0080824D01*
X0020329Y0081600D01*
X0018300Y0081600D01*
X0016426Y0080824D01*
X0014991Y0079389D01*
X0014215Y0077514D01*
X0014215Y0075486D01*
X0014991Y0073611D01*
X0016426Y0072176D01*
X0018300Y0071400D01*
X0020337Y0071403D02*
X0033975Y0071403D01*
X0034079Y0071300D02*
X0033800Y0071579D01*
X0033602Y0071921D01*
X0033500Y0072303D01*
X0033500Y0076000D01*
X0038500Y0076000D01*
X0038500Y0077000D01*
X0038500Y0082000D01*
X0034803Y0082000D01*
X0034421Y0081898D01*
X0034079Y0081700D01*
X0033800Y0081421D01*
X0033602Y0081079D01*
X0033500Y0080697D01*
X0033500Y0077000D01*
X0038500Y0077000D01*
X0039500Y0077000D01*
X0039500Y0082000D01*
X0043197Y0082000D01*
X0043579Y0081898D01*
X0043921Y0081700D01*
X0044200Y0081421D01*
X0044398Y0081079D01*
X0044500Y0080697D01*
X0044500Y0077000D01*
X0039500Y0077000D01*
X0039500Y0076000D01*
X0044500Y0076000D01*
X0044500Y0072303D01*
X0044398Y0071921D01*
X0044200Y0071579D01*
X0043921Y0071300D01*
X0043579Y0071102D01*
X0043197Y0071000D01*
X0039500Y0071000D01*
X0039500Y0076000D01*
X0038500Y0076000D01*
X0038500Y0071000D01*
X0034803Y0071000D01*
X0034421Y0071102D01*
X0034079Y0071300D01*
X0033500Y0072402D02*
X0022429Y0072402D01*
X0023428Y0073400D02*
X0033500Y0073400D01*
X0033500Y0074399D02*
X0023965Y0074399D01*
X0024378Y0075397D02*
X0033500Y0075397D01*
X0033500Y0077394D02*
X0024415Y0077394D01*
X0024415Y0076396D02*
X0038500Y0076396D01*
X0038500Y0077394D02*
X0039500Y0077394D01*
X0039500Y0076396D02*
X0053585Y0076396D01*
X0053585Y0075486D02*
X0054361Y0073611D01*
X0055796Y0072176D01*
X0057670Y0071400D01*
X0059699Y0071400D01*
X0061574Y0072176D01*
X0063009Y0073611D01*
X0063785Y0075486D01*
X0063785Y0077514D01*
X0063009Y0079389D01*
X0061574Y0080824D01*
X0059699Y0081600D01*
X0057670Y0081600D01*
X0055796Y0080824D01*
X0054361Y0079389D01*
X0053585Y0077514D01*
X0053585Y0075486D01*
X0053622Y0075397D02*
X0044500Y0075397D01*
X0044500Y0074399D02*
X0054035Y0074399D01*
X0054572Y0073400D02*
X0044500Y0073400D01*
X0044500Y0072402D02*
X0055571Y0072402D01*
X0057663Y0071403D02*
X0044025Y0071403D01*
X0039500Y0071403D02*
X0038500Y0071403D01*
X0038500Y0072402D02*
X0039500Y0072402D01*
X0039500Y0073400D02*
X0038500Y0073400D01*
X0038500Y0074399D02*
X0039500Y0074399D01*
X0039500Y0075397D02*
X0038500Y0075397D01*
X0044500Y0077394D02*
X0053585Y0077394D01*
X0053949Y0078393D02*
X0044500Y0078393D01*
X0044500Y0079391D02*
X0054364Y0079391D01*
X0055362Y0080390D02*
X0044500Y0080390D01*
X0044219Y0081388D02*
X0057160Y0081388D01*
X0060210Y0081388D02*
X0073151Y0081388D01*
X0073170Y0081421D02*
X0072972Y0081079D01*
X0072870Y0080697D01*
X0072870Y0077000D01*
X0077870Y0077000D01*
X0077870Y0082000D01*
X0074173Y0082000D01*
X0073791Y0081898D01*
X0073449Y0081700D01*
X0073170Y0081421D01*
X0072870Y0080390D02*
X0062008Y0080390D01*
X0063006Y0079391D02*
X0072870Y0079391D01*
X0072870Y0078393D02*
X0063421Y0078393D01*
X0063785Y0077394D02*
X0072870Y0077394D01*
X0072870Y0076000D02*
X0072870Y0072303D01*
X0072972Y0071921D01*
X0073170Y0071579D01*
X0073449Y0071300D01*
X0073791Y0071102D01*
X0074173Y0071000D01*
X0077870Y0071000D01*
X0077870Y0076000D01*
X0072870Y0076000D01*
X0072870Y0075397D02*
X0063748Y0075397D01*
X0063785Y0076396D02*
X0077870Y0076396D01*
X0077870Y0076000D02*
X0077870Y0077000D01*
X0078870Y0077000D01*
X0078870Y0082000D01*
X0082567Y0082000D01*
X0082949Y0081898D01*
X0083291Y0081700D01*
X0083570Y0081421D01*
X0083768Y0081079D01*
X0083870Y0080697D01*
X0083870Y0077000D01*
X0078870Y0077000D01*
X0078870Y0076000D01*
X0083870Y0076000D01*
X0083870Y0072303D01*
X0083768Y0071921D01*
X0083570Y0071579D01*
X0083291Y0071300D01*
X0082949Y0071102D01*
X0082567Y0071000D01*
X0078870Y0071000D01*
X0078870Y0076000D01*
X0077870Y0076000D01*
X0077870Y0075397D02*
X0078870Y0075397D01*
X0078870Y0074399D02*
X0077870Y0074399D01*
X0077870Y0073400D02*
X0078870Y0073400D01*
X0078870Y0072402D02*
X0077870Y0072402D01*
X0077870Y0071403D02*
X0078870Y0071403D01*
X0083395Y0071403D02*
X0151888Y0071403D01*
X0151489Y0070405D02*
X0135790Y0070405D01*
X0131910Y0070405D02*
X0116090Y0070405D01*
X0117396Y0069406D02*
X0130604Y0069406D01*
X0129932Y0068408D02*
X0118068Y0068408D01*
X0118482Y0067409D02*
X0129518Y0067409D01*
X0129500Y0066411D02*
X0118500Y0066411D01*
X0118408Y0065412D02*
X0129592Y0065412D01*
X0130006Y0064414D02*
X0117994Y0064414D01*
X0117217Y0063415D02*
X0130783Y0063415D01*
X0156000Y0064414D02*
X0157000Y0064414D01*
X0157000Y0065412D02*
X0156000Y0065412D01*
X0156000Y0066411D02*
X0157000Y0066411D01*
X0157000Y0067409D02*
X0156000Y0067409D01*
X0160266Y0065412D02*
X0303054Y0065412D01*
X0304387Y0066411D02*
X0161017Y0066411D01*
X0161511Y0070405D02*
X0366705Y0070405D01*
X0366705Y0071403D02*
X0161112Y0071403D01*
X0160452Y0072402D02*
X0271700Y0072402D01*
X0271700Y0072344D02*
X0272344Y0071700D01*
X0280656Y0071700D01*
X0281300Y0072344D01*
X0281300Y0080656D01*
X0280656Y0081300D01*
X0272344Y0081300D01*
X0271700Y0080656D01*
X0271700Y0072344D01*
X0271700Y0073400D02*
X0159290Y0073400D01*
X0159219Y0074931D02*
X0157455Y0074200D01*
X0155545Y0074200D01*
X0153781Y0074931D01*
X0152431Y0076281D01*
X0151700Y0078045D01*
X0151700Y0079955D01*
X0152431Y0081719D01*
X0153781Y0083069D01*
X0155545Y0083800D01*
X0157455Y0083800D01*
X0159219Y0083069D01*
X0160569Y0081719D01*
X0161300Y0079955D01*
X0161300Y0078045D01*
X0160569Y0076281D01*
X0159219Y0074931D01*
X0159685Y0075397D02*
X0271700Y0075397D01*
X0271700Y0074399D02*
X0157935Y0074399D01*
X0157000Y0073400D02*
X0156000Y0073400D01*
X0156000Y0072402D02*
X0157000Y0072402D01*
X0157000Y0071403D02*
X0156000Y0071403D01*
X0156000Y0070405D02*
X0157000Y0070405D01*
X0152548Y0072402D02*
X0083870Y0072402D01*
X0083870Y0073400D02*
X0153710Y0073400D01*
X0155065Y0074399D02*
X0083870Y0074399D01*
X0083870Y0075397D02*
X0153314Y0075397D01*
X0152383Y0076396D02*
X0078870Y0076396D01*
X0078870Y0077394D02*
X0077870Y0077394D01*
X0077870Y0078393D02*
X0078870Y0078393D01*
X0078870Y0079391D02*
X0077870Y0079391D01*
X0077870Y0080390D02*
X0078870Y0080390D01*
X0078870Y0081388D02*
X0077870Y0081388D01*
X0083589Y0081388D02*
X0152294Y0081388D01*
X0151880Y0080390D02*
X0083870Y0080390D01*
X0083870Y0079391D02*
X0151700Y0079391D01*
X0151700Y0078393D02*
X0083870Y0078393D01*
X0083870Y0077394D02*
X0151970Y0077394D01*
X0160617Y0076396D02*
X0271700Y0076396D01*
X0271700Y0077394D02*
X0161030Y0077394D01*
X0161300Y0078393D02*
X0271700Y0078393D01*
X0271700Y0079391D02*
X0161300Y0079391D01*
X0161120Y0080390D02*
X0271700Y0080390D01*
X0281300Y0080390D02*
X0283602Y0080390D01*
X0283781Y0080569D02*
X0282431Y0079219D01*
X0281700Y0077455D01*
X0281700Y0075545D01*
X0282431Y0073781D01*
X0283781Y0072431D01*
X0285545Y0071700D01*
X0287455Y0071700D01*
X0289219Y0072431D01*
X0290569Y0073781D01*
X0291300Y0075545D01*
X0291300Y0077455D01*
X0290569Y0079219D01*
X0289219Y0080569D01*
X0287455Y0081300D01*
X0285545Y0081300D01*
X0283781Y0080569D01*
X0282603Y0079391D02*
X0281300Y0079391D01*
X0281300Y0078393D02*
X0282089Y0078393D01*
X0281700Y0077394D02*
X0281300Y0077394D01*
X0281300Y0076396D02*
X0281700Y0076396D01*
X0281761Y0075397D02*
X0281300Y0075397D01*
X0281300Y0074399D02*
X0282175Y0074399D01*
X0282812Y0073400D02*
X0281300Y0073400D01*
X0281300Y0072402D02*
X0283851Y0072402D01*
X0289149Y0072402D02*
X0293851Y0072402D01*
X0293781Y0072431D02*
X0295545Y0071700D01*
X0297455Y0071700D01*
X0299219Y0072431D01*
X0300569Y0073781D01*
X0301300Y0075545D01*
X0301300Y0077455D01*
X0300569Y0079219D01*
X0299219Y0080569D01*
X0297455Y0081300D01*
X0295545Y0081300D01*
X0293781Y0080569D01*
X0292431Y0079219D01*
X0291700Y0077455D01*
X0291700Y0075545D01*
X0292431Y0073781D01*
X0293781Y0072431D01*
X0292812Y0073400D02*
X0290188Y0073400D01*
X0290825Y0074399D02*
X0292175Y0074399D01*
X0291761Y0075397D02*
X0291239Y0075397D01*
X0291300Y0076396D02*
X0291700Y0076396D01*
X0291700Y0077394D02*
X0291300Y0077394D01*
X0290911Y0078393D02*
X0292089Y0078393D01*
X0292603Y0079391D02*
X0290397Y0079391D01*
X0289398Y0080390D02*
X0293602Y0080390D01*
X0299398Y0080390D02*
X0366705Y0080390D01*
X0366705Y0081388D02*
X0160706Y0081388D01*
X0159901Y0082387D02*
X0366522Y0082387D01*
X0365981Y0083385D02*
X0158456Y0083385D01*
X0154544Y0083385D02*
X0009224Y0083385D01*
X0008683Y0082387D02*
X0153099Y0082387D01*
X0073345Y0071403D02*
X0059707Y0071403D01*
X0061799Y0072402D02*
X0072870Y0072402D01*
X0072870Y0073400D02*
X0062798Y0073400D01*
X0063335Y0074399D02*
X0072870Y0074399D01*
X0039500Y0078393D02*
X0038500Y0078393D01*
X0038500Y0079391D02*
X0039500Y0079391D01*
X0039500Y0080390D02*
X0038500Y0080390D01*
X0038500Y0081388D02*
X0039500Y0081388D01*
X0033781Y0081388D02*
X0020840Y0081388D01*
X0022638Y0080390D02*
X0033500Y0080390D01*
X0033500Y0079391D02*
X0023636Y0079391D01*
X0024051Y0078393D02*
X0033500Y0078393D01*
X0017790Y0081388D02*
X0008500Y0081388D01*
X0008500Y0080390D02*
X0015992Y0080390D01*
X0014994Y0079391D02*
X0008500Y0079391D01*
X0008500Y0078393D02*
X0014579Y0078393D01*
X0014215Y0077394D02*
X0008500Y0077394D01*
X0008500Y0076396D02*
X0014215Y0076396D01*
X0014252Y0075397D02*
X0008500Y0075397D01*
X0008500Y0074399D02*
X0014665Y0074399D01*
X0015202Y0073400D02*
X0008500Y0073400D01*
X0008500Y0072402D02*
X0016201Y0072402D01*
X0010774Y0084384D02*
X0364431Y0084384D01*
X0366705Y0079391D02*
X0300397Y0079391D01*
X0300911Y0078393D02*
X0366705Y0078393D01*
X0366705Y0077394D02*
X0301300Y0077394D01*
X0301300Y0076396D02*
X0366705Y0076396D01*
X0366705Y0075397D02*
X0301239Y0075397D01*
X0300825Y0074399D02*
X0366705Y0074399D01*
X0366705Y0073400D02*
X0300188Y0073400D01*
X0299149Y0072402D02*
X0366705Y0072402D01*
X0366705Y0065412D02*
X0364946Y0065412D01*
X0365944Y0064414D02*
X0366705Y0064414D01*
X0366705Y0063415D02*
X0366587Y0063415D01*
X0366705Y0055427D02*
X0366365Y0055427D01*
X0366705Y0054429D02*
X0365408Y0054429D01*
X0364410Y0053430D02*
X0366705Y0053430D01*
X0366705Y0052432D02*
X0362319Y0052432D01*
X0366705Y0051433D02*
X0290688Y0051433D01*
X0291101Y0050434D02*
X0366705Y0050434D01*
X0366705Y0049436D02*
X0291300Y0049436D01*
X0291300Y0048437D02*
X0366705Y0048437D01*
X0366705Y0047439D02*
X0291049Y0047439D01*
X0290635Y0046440D02*
X0366705Y0046440D01*
X0366705Y0045442D02*
X0289730Y0045442D01*
X0288042Y0044443D02*
X0366705Y0044443D01*
X0366705Y0043445D02*
X0288312Y0043445D01*
X0287455Y0043800D02*
X0285545Y0043800D01*
X0283781Y0043069D01*
X0282431Y0041719D01*
X0281700Y0039955D01*
X0281700Y0038045D01*
X0282431Y0036281D01*
X0283781Y0034931D01*
X0285545Y0034200D01*
X0287455Y0034200D01*
X0289219Y0034931D01*
X0290569Y0036281D01*
X0291300Y0038045D01*
X0291300Y0039955D01*
X0290569Y0041719D01*
X0289219Y0043069D01*
X0287455Y0043800D01*
X0284958Y0044443D02*
X0258042Y0044443D01*
X0258312Y0043445D02*
X0284688Y0043445D01*
X0283158Y0042446D02*
X0259842Y0042446D01*
X0260682Y0041448D02*
X0282318Y0041448D01*
X0281905Y0040449D02*
X0261095Y0040449D01*
X0261300Y0039451D02*
X0281700Y0039451D01*
X0281700Y0038452D02*
X0261300Y0038452D01*
X0261055Y0037454D02*
X0281945Y0037454D01*
X0282359Y0036455D02*
X0260641Y0036455D01*
X0259745Y0035457D02*
X0283255Y0035457D01*
X0288078Y0034458D02*
X0345186Y0034458D01*
X0346373Y0035143D02*
X0343646Y0033569D01*
X0341420Y0031343D01*
X0339845Y0028616D01*
X0339030Y0025574D01*
X0339030Y0022426D01*
X0339845Y0019384D01*
X0341420Y0016657D01*
X0343646Y0014431D01*
X0346373Y0012857D01*
X0349414Y0012042D01*
X0352563Y0012042D01*
X0355604Y0012857D01*
X0358331Y0014431D01*
X0360557Y0016657D01*
X0362132Y0019384D01*
X0362947Y0022426D01*
X0362947Y0025574D01*
X0362132Y0028616D01*
X0360557Y0031343D01*
X0358331Y0033569D01*
X0355604Y0035143D01*
X0352563Y0035958D01*
X0349414Y0035958D01*
X0346373Y0035143D01*
X0347543Y0035457D02*
X0289745Y0035457D01*
X0290641Y0036455D02*
X0366705Y0036455D01*
X0366705Y0035457D02*
X0354434Y0035457D01*
X0356791Y0034458D02*
X0366705Y0034458D01*
X0366705Y0033460D02*
X0358440Y0033460D01*
X0359439Y0032461D02*
X0366705Y0032461D01*
X0366705Y0031463D02*
X0360437Y0031463D01*
X0361065Y0030464D02*
X0366705Y0030464D01*
X0366705Y0029466D02*
X0361641Y0029466D01*
X0362172Y0028467D02*
X0366705Y0028467D01*
X0366705Y0027469D02*
X0362439Y0027469D01*
X0362707Y0026470D02*
X0366703Y0026470D01*
X0366638Y0025472D02*
X0362947Y0025472D01*
X0362947Y0024473D02*
X0366573Y0024473D01*
X0366310Y0023475D02*
X0362947Y0023475D01*
X0362947Y0022476D02*
X0366044Y0022476D01*
X0365779Y0021478D02*
X0362693Y0021478D01*
X0362425Y0020479D02*
X0365497Y0020479D01*
X0364927Y0019481D02*
X0362158Y0019481D01*
X0361611Y0018482D02*
X0364356Y0018482D01*
X0363785Y0017484D02*
X0361034Y0017484D01*
X0360385Y0016485D02*
X0363000Y0016485D01*
X0362015Y0015487D02*
X0359387Y0015487D01*
X0358388Y0014488D02*
X0361030Y0014488D01*
X0359607Y0013490D02*
X0356700Y0013490D01*
X0357912Y0012491D02*
X0354240Y0012491D01*
X0355189Y0011493D02*
X0346765Y0011493D01*
X0347737Y0012491D02*
X0344116Y0012491D01*
X0345277Y0013490D02*
X0342314Y0013490D01*
X0343589Y0014488D02*
X0340997Y0014488D01*
X0339958Y0015487D02*
X0342590Y0015487D01*
X0341592Y0016485D02*
X0338919Y0016485D01*
X0338231Y0017484D02*
X0340943Y0017484D01*
X0340366Y0018482D02*
X0337625Y0018482D01*
X0337018Y0019481D02*
X0339819Y0019481D01*
X0339552Y0020479D02*
X0336491Y0020479D01*
X0336126Y0021478D02*
X0339284Y0021478D01*
X0339030Y0022476D02*
X0335844Y0022476D01*
X0334846Y0023475D02*
X0339030Y0023475D01*
X0339030Y0024473D02*
X0288114Y0024473D01*
X0289760Y0025472D02*
X0339030Y0025472D01*
X0339270Y0026470D02*
X0290648Y0026470D01*
X0291061Y0027469D02*
X0339538Y0027469D01*
X0339805Y0028467D02*
X0291300Y0028467D01*
X0291300Y0029466D02*
X0340336Y0029466D01*
X0340912Y0030464D02*
X0291089Y0030464D01*
X0290675Y0031463D02*
X0341540Y0031463D01*
X0342538Y0032461D02*
X0289827Y0032461D01*
X0288276Y0033460D02*
X0343537Y0033460D01*
X0366705Y0037454D02*
X0291055Y0037454D01*
X0291300Y0038452D02*
X0366705Y0038452D01*
X0366705Y0039451D02*
X0291300Y0039451D01*
X0291095Y0040449D02*
X0366705Y0040449D01*
X0366705Y0041448D02*
X0290682Y0041448D01*
X0289842Y0042446D02*
X0366705Y0042446D01*
X0284993Y0054429D02*
X0260884Y0054429D01*
X0261300Y0055427D02*
X0283285Y0055427D01*
X0282371Y0056426D02*
X0261300Y0056426D01*
X0261300Y0057424D02*
X0281957Y0057424D01*
X0281700Y0058423D02*
X0261300Y0058423D01*
X0261300Y0059421D02*
X0281700Y0059421D01*
X0281893Y0060420D02*
X0261300Y0060420D01*
X0261300Y0061418D02*
X0282306Y0061418D01*
X0283128Y0062417D02*
X0261300Y0062417D01*
X0261040Y0063415D02*
X0284616Y0063415D01*
X0284652Y0053430D02*
X0258348Y0053430D01*
X0259857Y0052432D02*
X0283143Y0052432D01*
X0282312Y0051433D02*
X0260688Y0051433D01*
X0261101Y0050434D02*
X0281899Y0050434D01*
X0281700Y0049436D02*
X0261300Y0049436D01*
X0261300Y0048437D02*
X0281700Y0048437D01*
X0281951Y0047439D02*
X0261049Y0047439D01*
X0260635Y0046440D02*
X0282365Y0046440D01*
X0283270Y0045442D02*
X0259730Y0045442D01*
X0251700Y0049436D02*
X0008500Y0049436D01*
X0008500Y0050434D02*
X0251899Y0050434D01*
X0252312Y0051433D02*
X0008500Y0051433D01*
X0008500Y0052432D02*
X0253143Y0052432D01*
X0254652Y0053430D02*
X0008500Y0053430D01*
X0256000Y0027469D02*
X0257000Y0027469D01*
X0257000Y0026470D02*
X0256000Y0026470D01*
X0256000Y0025472D02*
X0257000Y0025472D01*
X0257000Y0024473D02*
X0256000Y0024473D01*
X0259070Y0024473D02*
X0284886Y0024473D01*
X0283240Y0025472D02*
X0260326Y0025472D01*
X0261047Y0026470D02*
X0282352Y0026470D01*
X0281939Y0027469D02*
X0261470Y0027469D01*
X0261680Y0028467D02*
X0281700Y0028467D01*
D19*
X0299000Y0031500D03*
X0221500Y0056500D03*
X0171500Y0059000D03*
X0249000Y0079000D03*
X0122750Y0034000D03*
X0074000Y0026500D03*
X0060250Y0054000D03*
X0025250Y0054000D03*
D20*
X0024216Y0024000D03*
X0350988Y0024000D03*
M02*
