G75*
%MOIN*%
%OFA0B0*%
%FSLAX25Y25*%
%IPPOS*%
%LPD*%
%AMOC8*
5,1,8,0,0,1.08239X$1,22.5*
%
%ADD10R,0.03500X0.01654*%
%ADD11R,0.02362X0.04331*%
%ADD12R,0.05000X0.05787*%
%ADD13R,0.04331X0.03937*%
%ADD14R,0.04724X0.07874*%
%ADD15R,0.03937X0.04331*%
%ADD16R,0.03543X0.03150*%
%ADD17C,0.01181*%
%ADD18R,0.03543X0.11811*%
D10*
X0095732Y0037602D03*
X0095732Y0040161D03*
X0095732Y0042720D03*
X0095732Y0045280D03*
X0095732Y0047839D03*
X0095732Y0050398D03*
X0112268Y0050398D03*
X0112268Y0047839D03*
X0112268Y0045280D03*
X0112268Y0042720D03*
X0112268Y0040161D03*
X0112268Y0037602D03*
D11*
X0105575Y0041047D03*
X0102425Y0041047D03*
X0102425Y0046953D03*
X0105575Y0046953D03*
D12*
X0062465Y0031500D03*
X0045535Y0031500D03*
X0088035Y0076500D03*
X0104965Y0076500D03*
D13*
X0083154Y0026500D03*
X0089846Y0026500D03*
X0113154Y0026500D03*
X0119846Y0026500D03*
X0118154Y0039000D03*
X0124846Y0039000D03*
X0130654Y0039000D03*
X0137346Y0039000D03*
X0089846Y0039000D03*
X0083154Y0039000D03*
X0083154Y0049000D03*
X0089846Y0049000D03*
X0175654Y0071500D03*
X0182346Y0071500D03*
X0190654Y0071500D03*
X0197346Y0071500D03*
X0205654Y0071500D03*
X0212346Y0071500D03*
X0240654Y0071500D03*
X0247346Y0071500D03*
X0315654Y0031500D03*
X0322346Y0031500D03*
D14*
X0140299Y0029000D03*
X0127701Y0029000D03*
X0075299Y0046500D03*
X0062701Y0046500D03*
D15*
X0071500Y0037346D03*
X0071500Y0030654D03*
X0104000Y0055654D03*
X0104000Y0062346D03*
X0166500Y0064846D03*
X0166500Y0058154D03*
X0166500Y0073154D03*
X0166500Y0079846D03*
X0244000Y0062346D03*
X0244000Y0055654D03*
X0296500Y0057346D03*
X0296500Y0050654D03*
D16*
X0095437Y0057760D03*
X0087169Y0061500D03*
X0095437Y0065240D03*
D17*
X0176925Y0065378D02*
X0176925Y0062622D01*
X0174169Y0062622D01*
X0174169Y0065378D01*
X0176925Y0065378D01*
X0176925Y0063802D02*
X0174169Y0063802D01*
X0174169Y0064982D02*
X0176925Y0064982D01*
X0183831Y0065378D02*
X0183831Y0062622D01*
X0181075Y0062622D01*
X0181075Y0065378D01*
X0183831Y0065378D01*
X0183831Y0063802D02*
X0181075Y0063802D01*
X0181075Y0064982D02*
X0183831Y0064982D01*
X0189169Y0065378D02*
X0189169Y0062622D01*
X0189169Y0065378D02*
X0191925Y0065378D01*
X0191925Y0062622D01*
X0189169Y0062622D01*
X0189169Y0063802D02*
X0191925Y0063802D01*
X0191925Y0064982D02*
X0189169Y0064982D01*
X0196075Y0065378D02*
X0196075Y0062622D01*
X0196075Y0065378D02*
X0198831Y0065378D01*
X0198831Y0062622D01*
X0196075Y0062622D01*
X0196075Y0063802D02*
X0198831Y0063802D01*
X0198831Y0064982D02*
X0196075Y0064982D01*
X0204169Y0065378D02*
X0204169Y0062622D01*
X0204169Y0065378D02*
X0206925Y0065378D01*
X0206925Y0062622D01*
X0204169Y0062622D01*
X0204169Y0063802D02*
X0206925Y0063802D01*
X0206925Y0064982D02*
X0204169Y0064982D01*
X0211075Y0065378D02*
X0211075Y0062622D01*
X0211075Y0065378D02*
X0213831Y0065378D01*
X0213831Y0062622D01*
X0211075Y0062622D01*
X0211075Y0063802D02*
X0213831Y0063802D01*
X0213831Y0064982D02*
X0211075Y0064982D01*
X0213831Y0057878D02*
X0213831Y0055122D01*
X0211075Y0055122D01*
X0211075Y0057878D01*
X0213831Y0057878D01*
X0213831Y0056302D02*
X0211075Y0056302D01*
X0211075Y0057482D02*
X0213831Y0057482D01*
X0206925Y0057878D02*
X0206925Y0055122D01*
X0204169Y0055122D01*
X0204169Y0057878D01*
X0206925Y0057878D01*
X0206925Y0056302D02*
X0204169Y0056302D01*
X0204169Y0057482D02*
X0206925Y0057482D01*
X0198831Y0057878D02*
X0198831Y0055122D01*
X0196075Y0055122D01*
X0196075Y0057878D01*
X0198831Y0057878D01*
X0198831Y0056302D02*
X0196075Y0056302D01*
X0196075Y0057482D02*
X0198831Y0057482D01*
X0191925Y0057878D02*
X0191925Y0055122D01*
X0189169Y0055122D01*
X0189169Y0057878D01*
X0191925Y0057878D01*
X0191925Y0056302D02*
X0189169Y0056302D01*
X0189169Y0057482D02*
X0191925Y0057482D01*
X0181075Y0057878D02*
X0181075Y0055122D01*
X0181075Y0057878D02*
X0183831Y0057878D01*
X0183831Y0055122D01*
X0181075Y0055122D01*
X0181075Y0056302D02*
X0183831Y0056302D01*
X0183831Y0057482D02*
X0181075Y0057482D01*
X0174169Y0057878D02*
X0174169Y0055122D01*
X0174169Y0057878D02*
X0176925Y0057878D01*
X0176925Y0055122D01*
X0174169Y0055122D01*
X0174169Y0056302D02*
X0176925Y0056302D01*
X0176925Y0057482D02*
X0174169Y0057482D01*
D18*
X0320220Y0043106D03*
X0330063Y0043106D03*
X0337937Y0043106D03*
X0347780Y0043106D03*
M02*
